<?xml version="1.0" standalone="no"?><!DOCTYPE svg PUBLIC "-//W3C//DTD SVG 1.1//EN" "http://www.w3.org/Graphics/SVG/1.1/DTD/svg11.dtd" ><svg version="1.1" xmlns="http://www.w3.org/2000/svg"><defs><font horiz-adv-x="0" id="font"><font-face ascent="750" bbox="-166 -224 1370 887" cap-height="657" descent="-250" font-family="Web use ONLY | Copyright (C) Emtype Foundry" font-stretch="normal" font-weight="500" units-per-em="1000" x-height="489" /><missing-glyph d="M534 132Q529 132 524.5 134.5Q520 137 513 144L421 236L329 144Q323 138 318 135Q313 132 308 132Q303 132 297.5 135Q292 138 287 144L236 196Q230 202 227.5 206.5Q225 211 225 215Q225 220 228 225.5Q231 231 237 236L329 328L237 420Q230 426 227 431.5Q224 437 224 442Q224 446 226.5 450.5Q229 455 235 461L286 513Q291 518 296.5 521Q302 524 307 524Q312 524 317.5 521Q323 518 329 512L421 420L513 512Q520 519 525 522Q530 525 535 525Q539 525 543.5 522.5Q548 520 554 514L606 463Q611 458 614 452.5Q617 447 617 441Q617 436 614 430.5Q611 425 605 420L513 328L605 236Q611 229 614 224Q617 219 617 215Q617 210 614 204.5Q611 199 605 194L553 143Q547 137 542.5 134.5Q538 132 534 132ZM419 -10Q278 -10 179 88.5Q80 187 80 328Q80 469 179.5 568Q279 667 420 667Q561 667 660.5 568Q760 469 760 328Q760 187 660 88.5Q560 -10 419 -10ZM420 622Q299 622 213.5 536Q128 450 128 328Q128 206 213 120.5Q298 35 419 35Q540 35 625.5 120.5Q711 206 711 328Q711 450 626 536Q541 622 420 622Z" horiz-adv-x="841" /><glyph d="M160 132 121 0H20L222 657H330L533 0H426L387 132ZM363 221 273 526 184 221Z" glyph-name="A" horiz-adv-x="553" unicode="A" /><glyph d="M174 130 113 0H3L324 657H769V564H478V380H743V289H478V93H778V0H375V130ZM375 563 213 219H375Z" glyph-name="AE" horiz-adv-x="823" unicode="&#198;" /><glyph d="M160 132 121 0H20L222 657H330L533 0H426L387 132ZM363 221 273 526 184 221ZM341 862 405 800 274 694 228 736Z" glyph-name="Aacute" horiz-adv-x="553" unicode="&#193;" /><glyph d="M160 132 121 0H20L222 657H330L533 0H426L387 132ZM363 221 273 526 184 221ZM326 799V819H387V799Q387 754 356 724Q325 694 276 694Q227 694 196 724Q165 754 165 799V819H227V799Q227 776 240.5 762Q254 748 276 748Q298 748 312 762.5Q326 777 326 799Z" glyph-name="Abreve" horiz-adv-x="553" unicode="&#258;" /><glyph d="M160 132 121 0H20L222 657H330L533 0H426L387 132ZM363 221 273 526 184 221ZM147 728 253 857H301L406 728L367 694L275 775L185 695Z" glyph-name="Acircumflex" horiz-adv-x="553" unicode="&#194;" /><glyph d="M160 132 121 0H20L222 657H330L533 0H426L387 132ZM363 221 273 526 184 221ZM214 710Q192 710 176 726Q160 742 160 764Q160 786 175.5 801Q191 816 214 816Q235 816 249.5 801Q264 786 264 764Q264 742 249.5 726Q235 710 214 710ZM341 710Q320 710 304.5 726Q289 742 289 764Q289 786 304 801Q319 816 341 816Q363 816 378 801Q393 786 393 764Q393 742 377.5 726Q362 710 341 710Z" glyph-name="Adieresis" horiz-adv-x="553" unicode="&#196;" /><glyph d="M160 132 121 0H20L222 657H330L533 0H426L387 132ZM363 221 273 526 184 221ZM322 736 276 694 145 800 210 862Z" glyph-name="Agrave" horiz-adv-x="553" unicode="&#192;" /><glyph d="M160 132 121 0H20L222 657H330L533 0H426L387 132ZM363 221 273 526 184 221ZM395 726H157V798H395Z" glyph-name="Amacron" horiz-adv-x="553" unicode="&#256;" /><glyph d="M453 -132H500V-191H440Q396 -191 371 -170Q346 -149 346 -114Q346 -80 367.5 -48.5Q389 -17 425 3L387 132H160L121 0H20L222 657H330L533 0H483Q446 -23 427 -47.5Q408 -72 408 -97Q408 -113 420 -122.5Q432 -132 453 -132ZM363 221 273 526 184 221Z" glyph-name="Aogonek" horiz-adv-x="553" unicode="&#260;" /><glyph d="M387 132H160L121 0H20L213 628Q193 642 182.5 662.5Q172 683 172 708Q172 751 201.5 779.5Q231 808 275 808Q320 808 349.5 779Q379 750 379 708Q379 684 368.5 663.5Q358 643 339 629L533 0H426ZM229 708Q229 686 242 672Q255 658 275 658Q296 658 309 672Q322 686 322 708Q322 730 309 744Q296 758 275 758Q255 758 242 744Q229 730 229 708ZM363 221 273 526 184 221Z" glyph-name="Aring" horiz-adv-x="553" unicode="&#197;" /><glyph d="M160 132 121 0H20L222 657H330L533 0H426L387 132ZM363 221 273 526 184 221ZM347 763Q362 763 370.5 776.5Q379 790 379 811H431Q432 807 432 802Q432 797 432 787Q432 744 411.5 720Q391 696 354 696Q340 696 324.5 700.5Q309 705 293 713L251 735Q239 741 231 743.5Q223 746 216 746Q197 746 186.5 731Q176 716 176 698H123Q123 701 121.5 709.5Q120 718 120 724Q120 764 145 789.5Q170 815 209 815Q222 815 236 811.5Q250 808 264 800L305 779Q328 767 335 765Q342 763 347 763Z" glyph-name="Atilde" horiz-adv-x="553" unicode="&#195;" /><glyph d="M321 0H78V657H304Q394 657 450.5 609.5Q507 562 507 486Q507 433 482.5 395.5Q458 358 411 339V338Q465 321 494 281Q523 241 523 181Q523 99 467 49.5Q411 0 321 0ZM417 188Q417 236 387.5 264Q358 292 308 292H180V85H306Q358 85 387.5 112.5Q417 140 417 188ZM402 477Q402 521 372.5 546.5Q343 572 292 572H180V378H295Q344 378 373 404.5Q402 431 402 477Z" glyph-name="B" horiz-adv-x="566" unicode="B" /><glyph d="M402 198V218H502V199Q502 104 442 47Q382 -10 283 -10Q182 -10 121 49Q60 108 60 205V452Q60 552 119.5 609.5Q179 667 283 667Q382 667 442 610Q502 553 502 458V443H402V459Q402 512 369.5 543Q337 574 281 574Q227 574 195 541Q163 508 163 452V205Q163 149 195 116Q227 83 281 83Q337 83 369.5 114Q402 145 402 198Z" glyph-name="C" horiz-adv-x="550" unicode="C" /><glyph glyph-name="CR" horiz-adv-x="0" unicode="" /><glyph d="M402 198V218H502V199Q502 104 442 47Q382 -10 283 -10Q182 -10 121 49Q60 108 60 205V452Q60 552 119.5 609.5Q179 667 283 667Q382 667 442 610Q502 553 502 458V443H402V459Q402 512 369.5 543Q337 574 281 574Q227 574 195 541Q163 508 163 452V205Q163 149 195 116Q227 83 281 83Q337 83 369.5 114Q402 145 402 198ZM347 862 411 800 280 694 234 736Z" glyph-name="Cacute" horiz-adv-x="550" unicode="&#262;" /><glyph d="M402 198V218H502V199Q502 104 442 47Q382 -10 283 -10Q182 -10 121 49Q60 108 60 205V452Q60 552 119.5 609.5Q179 667 283 667Q382 667 442 610Q502 553 502 458V443H402V459Q402 512 369.5 543Q337 574 281 574Q227 574 195 541Q163 508 163 452V205Q163 149 195 116Q227 83 281 83Q337 83 369.5 114Q402 145 402 198ZM410 821 305 692H257L151 821L191 855L282 774L372 854Z" glyph-name="Ccaron" horiz-adv-x="550" unicode="&#268;" /><glyph d="M374 -114Q374 -147 352 -167Q330 -187 293 -187H188V-135H286Q298 -135 304 -129.5Q310 -124 310 -114Q310 -104 303.5 -98.5Q297 -93 286 -93H231L212 -79L234 -6Q154 9 107.5 65Q61 121 61 205V452Q61 552 120.5 609.5Q180 667 284 667Q383 667 443 610Q503 553 503 458V443H403V459Q403 512 370.5 543Q338 574 282 574Q228 574 196 541Q164 508 164 452V205Q164 149 196 116Q228 83 282 83Q338 83 370.5 114Q403 145 403 198V218H503V199Q503 106 445 49Q387 -8 291 -10L281 -43H293Q332 -43 353 -61.5Q374 -80 374 -114Z" glyph-name="Ccedilla" horiz-adv-x="552" unicode="&#199;" /><glyph d="M402 198V218H502V199Q502 104 442 47Q382 -10 283 -10Q182 -10 121 49Q60 108 60 205V452Q60 552 119.5 609.5Q179 667 283 667Q382 667 442 610Q502 553 502 458V443H402V459Q402 512 369.5 543Q337 574 281 574Q227 574 195 541Q163 508 163 452V205Q163 149 195 116Q227 83 281 83Q337 83 369.5 114Q402 145 402 198ZM151 728 257 857H305L410 728L371 694L279 775L189 695Z" glyph-name="Ccircumflex" horiz-adv-x="550" unicode="&#264;" /><glyph d="M279 709Q254 709 237 726Q220 743 220 768Q220 793 237 810.5Q254 828 279 828Q305 828 322 811Q339 794 339 768Q339 743 321.5 726Q304 709 279 709ZM402 198V218H502V199Q502 104 442 47Q382 -10 283 -10Q182 -10 121 49Q60 108 60 205V452Q60 552 119.5 609.5Q179 667 283 667Q382 667 442 610Q502 553 502 458V443H402V459Q402 512 369.5 543Q337 574 281 574Q227 574 195 541Q163 508 163 452V205Q163 149 195 116Q227 83 281 83Q337 83 369.5 114Q402 145 402 198Z" glyph-name="Cdotaccent" horiz-adv-x="550" unicode="&#266;" /><glyph d="M78 657H296Q402 657 464 598Q526 539 526 437V220Q526 118 464 59Q402 0 296 0H78ZM296 564H181V93H296Q355 93 389 127Q423 161 423 220V437Q423 496 389 530Q355 564 296 564Z" glyph-name="D" horiz-adv-x="584" unicode="D" /><glyph d="M78 657H296Q402 657 464 598Q526 539 526 437V220Q526 118 464 59Q402 0 296 0H78ZM296 564H181V93H296Q355 93 389 127Q423 161 423 220V437Q423 496 389 530Q355 564 296 564ZM389 821 284 692H236L130 821L170 855L261 774L351 854Z" glyph-name="Dcaron" horiz-adv-x="584" unicode="&#270;" /><glyph d="M82 657H301Q407 657 468.5 598Q530 539 530 437V220Q530 118 468.5 59Q407 0 301 0H82V291H12V376H82ZM301 564H185V376H300V291H185V93H301Q360 93 393.5 127Q427 161 427 220V437Q427 496 393.5 530Q360 564 301 564Z" glyph-name="Dcroat" horiz-adv-x="589" unicode="&#272;" /><glyph d="M219 657H328L517 0H30ZM383 91 271 506 159 91Z" glyph-name="Delta" horiz-adv-x="547" unicode="&#8710;" /><glyph d="M440 380V289H181V93H475V0H78V657H466V564H181V380Z" glyph-name="E" horiz-adv-x="520" unicode="E" /><glyph d="M440 380V289H181V93H475V0H78V657H466V564H181V380ZM342 862 406 800 275 694 229 736Z" glyph-name="Eacute" horiz-adv-x="520" unicode="&#201;" /><glyph d="M440 380V289H181V93H475V0H78V657H466V564H181V380ZM326 799V819H387V799Q387 754 356 724Q325 694 276 694Q227 694 196 724Q165 754 165 799V819H227V799Q227 776 240.5 762Q254 748 276 748Q298 748 312 762.5Q326 777 326 799Z" glyph-name="Ebreve" horiz-adv-x="520" unicode="&#276;" /><glyph d="M440 380V289H181V93H475V0H78V657H466V564H181V380ZM406 821 301 692H253L147 821L187 855L278 774L368 854Z" glyph-name="Ecaron" horiz-adv-x="520" unicode="&#282;" /><glyph d="M147 728 253 857H301L406 728L367 694L275 775L185 695ZM440 380V289H181V93H475V0H78V657H466V564H181V380Z" glyph-name="Ecircumflex" horiz-adv-x="520" unicode="&#202;" /><glyph d="M440 380V289H181V93H475V0H78V657H466V564H181V380ZM214 710Q192 710 176 726Q160 742 160 764Q160 786 175.5 801Q191 816 214 816Q235 816 249.5 801Q264 786 264 764Q264 742 249.5 726Q235 710 214 710ZM341 710Q320 710 304.5 726Q289 742 289 764Q289 786 304 801Q319 816 341 816Q363 816 378 801Q393 786 393 764Q393 742 377.5 726Q362 710 341 710Z" glyph-name="Edieresis" horiz-adv-x="520" unicode="&#203;" /><glyph d="M276 709Q251 709 234 726Q217 743 217 768Q217 793 234 810.5Q251 828 276 828Q302 828 319 811Q336 794 336 768Q336 743 318.5 726Q301 709 276 709ZM440 380V289H181V93H475V0H78V657H466V564H181V380Z" glyph-name="Edotaccent" horiz-adv-x="520" unicode="&#278;" /><glyph d="M322 736 276 694 145 800 210 862ZM440 380V289H181V93H475V0H78V657H466V564H181V380Z" glyph-name="Egrave" horiz-adv-x="520" unicode="&#200;" /><glyph d="M440 380V289H181V93H475V0H78V657H466V564H181V380ZM394 726H156V798H394Z" glyph-name="Emacron" horiz-adv-x="520" unicode="&#274;" /><glyph d="M413 -132H460V-191H400Q356 -191 331 -170Q306 -149 306 -114Q306 -81 326 -50.5Q346 -20 380 0H78V657H466V564H181V380H440V289H181V93H475V0H443Q406 -23 387 -47.5Q368 -72 368 -97Q368 -113 380 -122.5Q392 -132 413 -132Z" glyph-name="Eogonek" horiz-adv-x="520" unicode="&#280;" /><glyph d="M82 657H301Q407 657 468.5 598Q530 539 530 437V220Q530 118 468.5 59Q407 0 301 0H82V291H12V376H82ZM301 564H185V376H300V291H185V93H301Q360 93 393.5 127Q427 161 427 220V437Q427 496 393.5 530Q360 564 301 564Z" glyph-name="Eth" horiz-adv-x="589" unicode="&#208;" /><glyph d="M533 215V196Q533 103 475.5 46.5Q418 -10 324 -10Q226 -10 167 50Q108 110 108 210V233H44V298H108V364H44V429H108V447Q108 549 166 608Q224 667 326 667Q420 667 476.5 611Q533 555 533 461V446H436V464Q436 516 406 547Q376 578 323 578Q271 578 239.5 544.5Q208 511 208 455V429H336V364H208V298H336V233H208V202Q208 146 239.5 112.5Q271 79 323 79Q376 79 406 110Q436 141 436 193V215Z" glyph-name="Euro" horiz-adv-x="585" unicode="&#8364;" /><glyph d="M440 363V271H181V0H78V657H466V564H181V363Z" glyph-name="F" horiz-adv-x="503" unicode="F" /><glyph d="M405 246H297V328H502V199Q502 104 442.5 47Q383 -10 283 -10Q182 -10 121 49Q60 108 60 205V452Q60 551 120.5 609Q181 667 285 667Q384 667 443 613Q502 559 502 468V453H402V469Q402 517 370.5 545.5Q339 574 284 574Q228 574 195.5 541Q163 508 163 452V205Q163 149 195.5 116Q228 83 283 83Q340 83 372.5 114Q405 145 405 198Z" glyph-name="G" horiz-adv-x="555" unicode="G" /><glyph d="M405 246H297V328H502V199Q502 104 442.5 47Q383 -10 283 -10Q182 -10 121 49Q60 108 60 205V452Q60 551 120.5 609Q181 667 285 667Q384 667 443 613Q502 559 502 468V453H402V469Q402 517 370.5 545.5Q339 574 284 574Q228 574 195.5 541Q163 508 163 452V205Q163 149 195.5 116Q228 83 283 83Q340 83 372.5 114Q405 145 405 198ZM330 799V819H391V799Q391 754 360 724Q329 694 280 694Q231 694 200 724Q169 754 169 799V819H231V799Q231 776 244.5 762Q258 748 280 748Q302 748 316 762.5Q330 777 330 799Z" glyph-name="Gbreve" horiz-adv-x="555" unicode="&#286;" /><glyph d="M151 728 257 857H305L410 728L371 694L279 775L189 695ZM405 246H297V328H502V199Q502 104 442.5 47Q383 -10 283 -10Q182 -10 121 49Q60 108 60 205V452Q60 551 120.5 609Q181 667 285 667Q384 667 443 613Q502 559 502 468V453H402V469Q402 517 370.5 545.5Q339 574 284 574Q228 574 195.5 541Q163 508 163 452V205Q163 149 195.5 116Q228 83 283 83Q340 83 372.5 114Q405 145 405 198Z" glyph-name="Gcircumflex" horiz-adv-x="555" unicode="&#284;" /><glyph d="M279 709Q254 709 237 726Q220 743 220 768Q220 793 237 810.5Q254 828 279 828Q305 828 322 811Q339 794 339 768Q339 743 321.5 726Q304 709 279 709ZM405 246H297V328H502V199Q502 104 442.5 47Q383 -10 283 -10Q182 -10 121 49Q60 108 60 205V452Q60 551 120.5 609Q181 667 285 667Q384 667 443 613Q502 559 502 468V453H402V469Q402 517 370.5 545.5Q339 574 284 574Q228 574 195.5 541Q163 508 163 452V205Q163 149 195.5 116Q228 83 283 83Q340 83 372.5 114Q405 145 405 198Z" glyph-name="Gdotaccent" horiz-adv-x="555" unicode="&#288;" /><glyph d="M413 657H517V0H413V288H181V0H78V657H181V381H413Z" glyph-name="H" horiz-adv-x="594" unicode="H" /><glyph d="M415 288H183V0H80V486H18V549H80V657H183V549H415V657H519V549H580V486H519V0H415ZM183 486V381H415V486Z" glyph-name="Hbar" horiz-adv-x="597" unicode="&#294;" /><glyph d="M413 657H517V0H413V288H181V0H78V657H181V381H413ZM168 728 274 857H322L427 728L388 694L296 775L206 695Z" glyph-name="Hcircumflex" horiz-adv-x="594" unicode="&#292;" /><glyph d="M78 657H181V0H78Z" glyph-name="I" horiz-adv-x="258" unicode="I" /><glyph d="M78 657H181V0H78ZM281 185V210H383V185Q383 139 409.5 111Q436 83 481 83Q526 83 552 110.5Q578 138 578 185V657H681V185Q681 96 626.5 43Q572 -10 481 -10Q391 -10 336 43.5Q281 97 281 185Z" glyph-name="IJ" horiz-adv-x="755" unicode="&#306;" /><glyph d="M78 657H181V0H78ZM195 862 259 800 128 694 82 736Z" glyph-name="Iacute" horiz-adv-x="258" unicode="&#205;" /><glyph d="M78 657H181V0H78ZM0 728 106 857H154L259 728L220 694L128 775L38 695Z" glyph-name="Icircumflex" horiz-adv-x="258" unicode="&#206;" /><glyph d="M78 657H181V0H78ZM67 710Q45 710 29 726Q13 742 13 764Q13 786 28.5 801Q44 816 67 816Q88 816 102.5 801Q117 786 117 764Q117 742 102.5 726Q88 710 67 710ZM194 710Q173 710 157.5 726Q142 742 142 764Q142 786 157 801Q172 816 194 816Q216 816 231 801Q246 786 246 764Q246 742 230.5 726Q215 710 194 710Z" glyph-name="Idieresis" horiz-adv-x="258" unicode="&#207;" /><glyph d="M78 657H181V0H78ZM128 709Q103 709 86 726Q69 743 69 768Q69 793 86 810.5Q103 828 128 828Q154 828 171 811Q188 794 188 768Q188 743 170.5 726Q153 709 128 709Z" glyph-name="Idotaccent" horiz-adv-x="258" unicode="&#304;" /><glyph d="M78 657H181V0H78ZM177 736 131 694 0 800 65 862Z" glyph-name="Igrave" horiz-adv-x="258" unicode="&#204;" /><glyph d="M78 657H181V0H78ZM248 726H10V798H248Z" glyph-name="Imacron" horiz-adv-x="258" unicode="&#298;" /><glyph d="M110 -132H157V-191H97Q53 -191 28 -170Q3 -149 3 -114Q3 -81 23.5 -50.5Q44 -20 78 0V657H181V0H140Q103 -23 84 -47.5Q65 -72 65 -97Q65 -113 77 -122.5Q89 -132 110 -132Z" glyph-name="Iogonek" horiz-adv-x="258" unicode="&#302;" /><glyph d="M78 657H181V0H78ZM200 763Q215 763 223.5 776.5Q232 790 232 811H284Q285 807 285 802Q285 797 285 787Q285 744 264.5 720Q244 696 207 696Q193 696 177.5 700.5Q162 705 146 713L104 735Q92 741 84 743.5Q76 746 69 746Q50 746 39.5 731Q29 716 29 698H-24Q-24 701 -25.5 709.5Q-27 718 -27 724Q-27 764 -2 789.5Q23 815 62 815Q75 815 89 811.5Q103 808 117 800L158 779Q181 767 188 765Q195 763 200 763Z" glyph-name="Itilde" horiz-adv-x="258" unicode="&#296;" /><glyph d="M20 185V210H122V185Q122 139 148.5 111Q175 83 220 83Q265 83 291 110.5Q317 138 317 185V657H420V185Q420 96 365.5 43Q311 -10 220 -10Q130 -10 75 43.5Q20 97 20 185Z" glyph-name="J" horiz-adv-x="494" unicode="J" /><glyph d="M20 185V210H122V185Q122 139 148.5 111Q175 83 220 83Q265 83 291 110.5Q317 138 317 185V657H420V185Q420 96 365.5 43Q311 -10 220 -10Q130 -10 75 43.5Q20 97 20 185ZM239 728 345 857H393L498 728L459 694L367 775L277 695Z" glyph-name="Jcircumflex" horiz-adv-x="494" unicode="&#308;" /><glyph d="M78 657H181V319L413 657H528L347 387L534 0H418L275 301L181 164V0H78Z" glyph-name="K" horiz-adv-x="549" unicode="K" /><glyph d="M78 657H181V93H451V0H78Z" glyph-name="L" horiz-adv-x="466" unicode="L" /><glyph d="M192 862 256 800 125 694 79 736ZM78 657H181V93H451V0H78Z" glyph-name="Lacute" horiz-adv-x="466" unicode="&#313;" /><glyph d="M238 513 260 657H353L294 513ZM78 657H181V93H451V0H78Z" glyph-name="Lcaron" horiz-adv-x="466" unicode="&#317;" /><glyph d="M78 657H181V93H451V0H78ZM308 283Q282 283 264 301Q246 319 246 344Q246 370 264 388Q282 406 308 406Q334 406 352 388Q370 370 370 344Q370 319 352 301Q334 283 308 283Z" glyph-name="Ldot" horiz-adv-x="466" unicode="&#319;" /><glyph d="M187 93H457V0H84V257L13 218V309L84 348V657H187V404L301 467V377L187 314Z" glyph-name="Lslash" horiz-adv-x="472" unicode="&#321;" /><glyph d="M359 216H298L173 451V0H78V657H167L330 346L492 657H581V0H481V449Z" glyph-name="M" horiz-adv-x="659" unicode="M" /><glyph d="M418 657H513V0H428L172 456V0H78V657H167L418 210Z" glyph-name="N" horiz-adv-x="590" unicode="N" /><glyph glyph-name="NULL" horiz-adv-x="0" /><glyph d="M361 862 425 800 294 694 248 736ZM418 657H513V0H428L172 456V0H78V657H167L418 210Z" glyph-name="Nacute" horiz-adv-x="590" unicode="&#323;" /><glyph d="M418 657H513V0H428L172 456V0H78V657H167L418 210ZM425 821 320 692H272L166 821L206 855L297 774L387 854Z" glyph-name="Ncaron" horiz-adv-x="590" unicode="&#327;" /><glyph d="M366 763Q381 763 389.5 776.5Q398 790 398 811H450Q451 807 451 802Q451 797 451 787Q451 744 430.5 720Q410 696 373 696Q359 696 343.5 700.5Q328 705 312 713L270 735Q258 741 250 743.5Q242 746 235 746Q216 746 205.5 731Q195 716 195 698H142Q142 701 140.5 709.5Q139 718 139 724Q139 764 164 789.5Q189 815 228 815Q241 815 255 811.5Q269 808 283 800L324 779Q347 767 354 765Q361 763 366 763ZM418 657H513V0H428L172 456V0H78V657H167L418 210Z" glyph-name="Ntilde" horiz-adv-x="590" unicode="&#209;" /><glyph d="M284 574Q228 574 195.5 541Q163 508 163 452V205Q163 149 195.5 116Q228 83 284 83Q340 83 372.5 116Q405 149 405 205V452Q405 508 372.5 541Q340 574 284 574ZM284 667Q386 667 447.5 608.5Q509 550 509 452V205Q509 107 447.5 48.5Q386 -10 284 -10Q183 -10 121.5 48.5Q60 107 60 205V452Q60 552 119.5 609.5Q179 667 284 667Z" glyph-name="O" horiz-adv-x="568" unicode="O" /><glyph d="M411 657H799V564H509V380H773V289H509V93H808V0H411V39Q384 15 349.5 2.5Q315 -10 276 -10Q178 -10 119 48.5Q60 107 60 205V452Q60 553 117.5 610Q175 667 276 667Q315 667 349.5 654.5Q384 642 411 618ZM284 574Q228 574 195.5 541Q163 508 163 452V205Q163 149 195.5 116Q228 83 284 83Q339 83 372 115.5Q405 148 405 202V452Q405 508 372.5 541Q340 574 284 574Z" glyph-name="OE" horiz-adv-x="853" unicode="&#338;" /><glyph d="M351 862 415 800 284 694 238 736ZM284 574Q228 574 195.5 541Q163 508 163 452V205Q163 149 195.5 116Q228 83 284 83Q340 83 372.5 116Q405 149 405 205V452Q405 508 372.5 541Q340 574 284 574ZM284 667Q386 667 447.5 608.5Q509 550 509 452V205Q509 107 447.5 48.5Q386 -10 284 -10Q183 -10 121.5 48.5Q60 107 60 205V452Q60 552 119.5 609.5Q179 667 284 667Z" glyph-name="Oacute" horiz-adv-x="568" unicode="&#211;" /><glyph d="M284 574Q228 574 195.5 541Q163 508 163 452V205Q163 149 195.5 116Q228 83 284 83Q340 83 372.5 116Q405 149 405 205V452Q405 508 372.5 541Q340 574 284 574ZM284 667Q386 667 447.5 608.5Q509 550 509 452V205Q509 107 447.5 48.5Q386 -10 284 -10Q183 -10 121.5 48.5Q60 107 60 205V452Q60 552 119.5 609.5Q179 667 284 667ZM334 799V819H395V799Q395 754 364 724Q333 694 284 694Q235 694 204 724Q173 754 173 799V819H235V799Q235 776 248.5 762Q262 748 284 748Q306 748 320 762.5Q334 777 334 799Z" glyph-name="Obreve" horiz-adv-x="568" unicode="&#334;" /><glyph d="M154 728 260 857H308L413 728L374 694L282 775L192 695ZM284 574Q228 574 195.5 541Q163 508 163 452V205Q163 149 195.5 116Q228 83 284 83Q340 83 372.5 116Q405 149 405 205V452Q405 508 372.5 541Q340 574 284 574ZM284 667Q386 667 447.5 608.5Q509 550 509 452V205Q509 107 447.5 48.5Q386 -10 284 -10Q183 -10 121.5 48.5Q60 107 60 205V452Q60 552 119.5 609.5Q179 667 284 667Z" glyph-name="Ocircumflex" horiz-adv-x="568" unicode="&#212;" /><glyph d="M284 574Q228 574 195.5 541Q163 508 163 452V205Q163 149 195.5 116Q228 83 284 83Q340 83 372.5 116Q405 149 405 205V452Q405 508 372.5 541Q340 574 284 574ZM284 667Q386 667 447.5 608.5Q509 550 509 452V205Q509 107 447.5 48.5Q386 -10 284 -10Q183 -10 121.5 48.5Q60 107 60 205V452Q60 552 119.5 609.5Q179 667 284 667ZM222 710Q200 710 184 726Q168 742 168 764Q168 786 183.5 801Q199 816 222 816Q243 816 257.5 801Q272 786 272 764Q272 742 257.5 726Q243 710 222 710ZM349 710Q328 710 312.5 726Q297 742 297 764Q297 786 312 801Q327 816 349 816Q371 816 386 801Q401 786 401 764Q401 742 385.5 726Q370 710 349 710Z" glyph-name="Odieresis" horiz-adv-x="568" unicode="&#214;" /><glyph d="M329 736 283 694 152 800 217 862ZM284 574Q228 574 195.5 541Q163 508 163 452V205Q163 149 195.5 116Q228 83 284 83Q340 83 372.5 116Q405 149 405 205V452Q405 508 372.5 541Q340 574 284 574ZM284 667Q386 667 447.5 608.5Q509 550 509 452V205Q509 107 447.5 48.5Q386 -10 284 -10Q183 -10 121.5 48.5Q60 107 60 205V452Q60 552 119.5 609.5Q179 667 284 667Z" glyph-name="Ograve" horiz-adv-x="568" unicode="&#210;" /><glyph d="M278 857 333 808 209 694 171 728ZM413 854 464 801 334 693 300 730ZM284 574Q228 574 195.5 541Q163 508 163 452V205Q163 149 195.5 116Q228 83 284 83Q340 83 372.5 116Q405 149 405 205V452Q405 508 372.5 541Q340 574 284 574ZM284 667Q386 667 447.5 608.5Q509 550 509 452V205Q509 107 447.5 48.5Q386 -10 284 -10Q183 -10 121.5 48.5Q60 107 60 205V452Q60 552 119.5 609.5Q179 667 284 667Z" glyph-name="Ohungarumlaut" horiz-adv-x="568" unicode="&#336;" /><glyph d="M284 574Q228 574 195.5 541Q163 508 163 452V205Q163 149 195.5 116Q228 83 284 83Q340 83 372.5 116Q405 149 405 205V452Q405 508 372.5 541Q340 574 284 574ZM284 667Q386 667 447.5 608.5Q509 550 509 452V205Q509 107 447.5 48.5Q386 -10 284 -10Q183 -10 121.5 48.5Q60 107 60 205V452Q60 552 119.5 609.5Q179 667 284 667ZM403 726H165V798H403Z" glyph-name="Omacron" horiz-adv-x="568" unicode="&#332;" /><glyph d="M540 180Q540 100 483.5 50Q427 0 337 0H332V-108H254V0H83V657H254V765H332V657Q418 653 471 606.5Q524 560 524 487Q524 434 498.5 396.5Q473 359 425 340V339Q481 322 510.5 281Q540 240 540 180ZM185 572V379H254V572ZM419 485Q419 521 396 543.5Q373 566 332 571V380Q373 385 396 412.5Q419 440 419 485ZM185 293V85H254V293ZM434 182Q434 233 406.5 263Q379 293 332 293V85Q380 86 407 112Q434 138 434 182Z" glyph-name="Omega" horiz-adv-x="583" unicode="&#8486;" /><glyph d="M284 -10Q252 -10 222 -3Q192 4 165 17L133 -49H66L116 54Q88 83 74 121.5Q60 160 60 205V452Q60 552 119.5 609.5Q179 667 284 667Q318 667 348 660Q378 653 403 640L435 706H502L452 604Q480 575 494.5 536.5Q509 498 509 452V205Q509 107 447.5 48.5Q386 -10 284 -10ZM161 454V203Q161 191 163 179Q165 167 169 156L363 553Q348 564 328 570Q308 576 284 576Q227 576 194 543Q161 510 161 454ZM408 203V454Q408 467 406 479.5Q404 492 400 503L205 105Q220 93 240 87Q260 81 284 81Q341 81 374.5 114Q408 147 408 203Z" glyph-name="Oslash" horiz-adv-x="568" unicode="&#216;" /><glyph d="M284 574Q228 574 195.5 541Q163 508 163 452V205Q163 149 195.5 116Q228 83 284 83Q340 83 372.5 116Q405 149 405 205V452Q405 508 372.5 541Q340 574 284 574ZM284 667Q386 667 447.5 608.5Q509 550 509 452V205Q509 107 447.5 48.5Q386 -10 284 -10Q183 -10 121.5 48.5Q60 107 60 205V452Q60 552 119.5 609.5Q179 667 284 667ZM355 763Q370 763 378.5 776.5Q387 790 387 811H439Q440 807 440 802Q440 797 440 787Q440 744 419.5 720Q399 696 362 696Q348 696 332.5 700.5Q317 705 301 713L259 735Q247 741 239 743.5Q231 746 224 746Q205 746 194.5 731Q184 716 184 698H131Q131 701 129.5 709.5Q128 718 128 724Q128 764 153 789.5Q178 815 217 815Q230 815 244 811.5Q258 808 272 800L313 779Q336 767 343 765Q350 763 355 763Z" glyph-name="Otilde" horiz-adv-x="568" unicode="&#213;" /><glyph d="M181 0H78V657H294Q393 657 456 598.5Q519 540 519 446Q519 349 456.5 289Q394 229 294 229H181ZM414 444Q414 500 379 533Q344 566 286 566H181V319H286Q344 319 379 353Q414 387 414 444Z" glyph-name="P" horiz-adv-x="552" unicode="P" /><glyph d="M284 667Q386 667 447.5 608.5Q509 550 509 452V205Q509 143 482.5 94.5Q456 46 407 19L506 -133H385L305 -8Q299 -9 293.5 -9.5Q288 -10 284 -10Q183 -10 121.5 48.5Q60 107 60 205V452Q60 552 119.5 609.5Q179 667 284 667ZM284 574Q228 574 195.5 541Q163 508 163 452V205Q163 149 195.5 116Q228 83 284 83Q340 83 372.5 116Q405 149 405 205V452Q405 508 372.5 541Q340 574 284 574Z" glyph-name="Q" horiz-adv-x="569" unicode="Q" /><glyph d="M406 274 521 0H408L305 250Q302 249 298.5 249Q295 249 288 249H181V0H78V657H295Q394 657 456.5 601.5Q519 546 519 456Q519 394 489.5 346.5Q460 299 406 274ZM414 455Q414 506 379.5 536Q345 566 286 566H181V339H286Q345 339 379.5 370.5Q414 402 414 455Z" glyph-name="R" horiz-adv-x="566" unicode="R" /><glyph d="M406 274 521 0H408L305 250Q302 249 298.5 249Q295 249 288 249H181V0H78V657H295Q394 657 456.5 601.5Q519 546 519 456Q519 394 489.5 346.5Q460 299 406 274ZM414 455Q414 506 379.5 536Q345 566 286 566H181V339H286Q345 339 379.5 370.5Q414 402 414 455ZM319 862 383 800 252 694 206 736Z" glyph-name="Racute" horiz-adv-x="566" unicode="&#340;" /><glyph d="M406 274 521 0H408L305 250Q302 249 298.5 249Q295 249 288 249H181V0H78V657H295Q394 657 456.5 601.5Q519 546 519 456Q519 394 489.5 346.5Q460 299 406 274ZM414 455Q414 506 379.5 536Q345 566 286 566H181V339H286Q345 339 379.5 370.5Q414 402 414 455ZM384 821 279 692H231L125 821L165 855L256 774L346 854Z" glyph-name="Rcaron" horiz-adv-x="566" unicode="&#344;" /><glyph d="M473 477V463H371V481Q371 526 341 553.5Q311 581 262 581Q213 581 184 558Q155 535 155 496Q155 469 173 447Q191 425 224 413L323 375Q414 340 449.5 296Q485 252 485 186Q485 98 424.5 44Q364 -10 266 -10Q165 -10 103.5 42Q42 94 42 180V199H143V176Q143 130 175.5 103Q208 76 263 76Q319 76 351.5 103Q384 130 384 175Q384 211 362.5 235Q341 259 294 277L197 315Q125 343 90.5 385.5Q56 428 56 489Q56 567 113.5 617Q171 667 262 667Q357 667 415 615Q473 563 473 477Z" glyph-name="S" horiz-adv-x="529" unicode="S" /><glyph d="M473 477V463H371V481Q371 526 341 553.5Q311 581 262 581Q213 581 184 558Q155 535 155 496Q155 469 173 447Q191 425 224 413L323 375Q414 340 449.5 296Q485 252 485 186Q485 98 424.5 44Q364 -10 266 -10Q165 -10 103.5 42Q42 94 42 180V199H143V176Q143 130 175.5 103Q208 76 263 76Q319 76 351.5 103Q384 130 384 175Q384 211 362.5 235Q341 259 294 277L197 315Q125 343 90.5 385.5Q56 428 56 489Q56 567 113.5 617Q171 667 262 667Q357 667 415 615Q473 563 473 477ZM328 862 392 800 261 694 215 736Z" glyph-name="Sacute" horiz-adv-x="529" unicode="&#346;" /><glyph d="M473 477V463H371V481Q371 526 341 553.5Q311 581 262 581Q213 581 184 558Q155 535 155 496Q155 469 173 447Q191 425 224 413L323 375Q414 340 449.5 296Q485 252 485 186Q485 98 424.5 44Q364 -10 266 -10Q165 -10 103.5 42Q42 94 42 180V199H143V176Q143 130 175.5 103Q208 76 263 76Q319 76 351.5 103Q384 130 384 175Q384 211 362.5 235Q341 259 294 277L197 315Q125 343 90.5 385.5Q56 428 56 489Q56 567 113.5 617Q171 667 262 667Q357 667 415 615Q473 563 473 477ZM393 821 288 692H240L134 821L174 855L265 774L355 854Z" glyph-name="Scaron" horiz-adv-x="529" unicode="&#352;" /><glyph d="M360 -114Q360 -147 338 -167Q316 -187 279 -187H174V-135H272Q284 -135 290 -129.5Q296 -124 296 -114Q296 -104 289.5 -98.5Q283 -93 272 -93H217L198 -79L219 -7Q138 5 90.5 55Q43 105 43 180V199H144V176Q144 130 176.5 103Q209 76 264 76Q320 76 352.5 103Q385 130 385 175Q385 211 363.5 235Q342 259 295 277L198 315Q126 343 91.5 385.5Q57 428 57 489Q57 567 114.5 617Q172 667 263 667Q358 667 416 615Q474 563 474 477V463H372V481Q372 526 342 553.5Q312 581 263 581Q214 581 185 558Q156 535 156 496Q156 469 174 447Q192 425 225 413L324 375Q415 340 450.5 296Q486 252 486 186Q486 101 428.5 47Q371 -7 277 -10L267 -43H279Q318 -43 339 -61.5Q360 -80 360 -114Z" glyph-name="Scedilla" horiz-adv-x="531" unicode="&#350;" /><glyph d="M473 477V463H371V481Q371 526 341 553.5Q311 581 262 581Q213 581 184 558Q155 535 155 496Q155 469 173 447Q191 425 224 413L323 375Q414 340 449.5 296Q485 252 485 186Q485 98 424.5 44Q364 -10 266 -10Q165 -10 103.5 42Q42 94 42 180V199H143V176Q143 130 175.5 103Q208 76 263 76Q319 76 351.5 103Q384 130 384 175Q384 211 362.5 235Q341 259 294 277L197 315Q125 343 90.5 385.5Q56 428 56 489Q56 567 113.5 617Q171 667 262 667Q357 667 415 615Q473 563 473 477ZM133 728 239 857H287L392 728L353 694L261 775L171 695Z" glyph-name="Scircumflex" horiz-adv-x="529" unicode="&#348;" /><glyph d="M183 564H19V657H450V564H286V0H183Z" glyph-name="T" horiz-adv-x="469" unicode="T" /><glyph d="M414 427V347H286V0H183V347H57V427H183V564H19V657H450V564H286V427Z" glyph-name="Tbar" horiz-adv-x="470" unicode="&#358;" /><glyph d="M183 564H19V657H450V564H286V0H183ZM364 821 259 692H211L105 821L145 855L236 774L326 854Z" glyph-name="Tcaron" horiz-adv-x="469" unicode="&#356;" /><glyph d="M78 657H181V542H294Q393 542 456 483.5Q519 425 519 331Q519 234 456.5 174Q394 114 294 114H181V0H78ZM414 329Q414 385 379 418.5Q344 452 286 452H181V205H286Q344 205 379 239Q414 273 414 329Z" glyph-name="Thorn" horiz-adv-x="555" unicode="&#222;" /><glyph d="M408 205V657H511V205Q511 107 451 48.5Q391 -10 292 -10Q193 -10 133 48.5Q73 107 73 205V657H176V205Q176 149 207 116Q238 83 292 83Q345 83 376.5 116Q408 149 408 205Z" glyph-name="U" horiz-adv-x="584" unicode="U" /><glyph d="M408 205V657H511V205Q511 107 451 48.5Q391 -10 292 -10Q193 -10 133 48.5Q73 107 73 205V657H176V205Q176 149 207 116Q238 83 292 83Q345 83 376.5 116Q408 149 408 205ZM357 862 421 800 290 694 244 736Z" glyph-name="Uacute" horiz-adv-x="584" unicode="&#218;" /><glyph d="M408 205V657H511V205Q511 107 451 48.5Q391 -10 292 -10Q193 -10 133 48.5Q73 107 73 205V657H176V205Q176 149 207 116Q238 83 292 83Q345 83 376.5 116Q408 149 408 205ZM342 799V819H403V799Q403 754 372 724Q341 694 292 694Q243 694 212 724Q181 754 181 799V819H243V799Q243 776 256.5 762Q270 748 292 748Q314 748 328 762.5Q342 777 342 799Z" glyph-name="Ubreve" horiz-adv-x="584" unicode="&#364;" /><glyph d="M162 728 268 857H316L421 728L382 694L290 775L200 695ZM408 205V657H511V205Q511 107 451 48.5Q391 -10 292 -10Q193 -10 133 48.5Q73 107 73 205V657H176V205Q176 149 207 116Q238 83 292 83Q345 83 376.5 116Q408 149 408 205Z" glyph-name="Ucircumflex" horiz-adv-x="584" unicode="&#219;" /><glyph d="M408 205V657H511V205Q511 107 451 48.5Q391 -10 292 -10Q193 -10 133 48.5Q73 107 73 205V657H176V205Q176 149 207 116Q238 83 292 83Q345 83 376.5 116Q408 149 408 205ZM229 710Q207 710 191 726Q175 742 175 764Q175 786 190.5 801Q206 816 229 816Q250 816 264.5 801Q279 786 279 764Q279 742 264.5 726Q250 710 229 710ZM356 710Q335 710 319.5 726Q304 742 304 764Q304 786 319 801Q334 816 356 816Q378 816 393 801Q408 786 408 764Q408 742 392.5 726Q377 710 356 710Z" glyph-name="Udieresis" horiz-adv-x="584" unicode="&#220;" /><glyph d="M338 736 292 694 161 800 226 862ZM408 205V657H511V205Q511 107 451 48.5Q391 -10 292 -10Q193 -10 133 48.5Q73 107 73 205V657H176V205Q176 149 207 116Q238 83 292 83Q345 83 376.5 116Q408 149 408 205Z" glyph-name="Ugrave" horiz-adv-x="584" unicode="&#217;" /><glyph d="M296 857 351 808 227 694 189 728ZM431 854 482 801 352 693 318 730ZM408 205V657H511V205Q511 107 451 48.5Q391 -10 292 -10Q193 -10 133 48.5Q73 107 73 205V657H176V205Q176 149 207 116Q238 83 292 83Q345 83 376.5 116Q408 149 408 205Z" glyph-name="Uhungarumlaut" horiz-adv-x="584" unicode="&#368;" /><glyph d="M408 205V657H511V205Q511 107 451 48.5Q391 -10 292 -10Q193 -10 133 48.5Q73 107 73 205V657H176V205Q176 149 207 116Q238 83 292 83Q345 83 376.5 116Q408 149 408 205ZM411 726H173V798H411Z" glyph-name="Umacron" horiz-adv-x="584" unicode="&#362;" /><glyph d="M408 205V657H511V205Q511 157 495.5 117Q480 77 449 47Q406 4 389.5 -25.5Q373 -55 373 -84Q373 -107 384.5 -119.5Q396 -132 418 -132H465V-191H405Q361 -191 336 -166.5Q311 -142 311 -101Q311 -76 320.5 -52Q330 -28 348 -4Q335 -7 320.5 -8.5Q306 -10 292 -10Q193 -10 133 48.5Q73 107 73 205V657H176V205Q176 149 207 116Q238 83 292 83Q345 83 376.5 116Q408 149 408 205Z" glyph-name="Uogonek" horiz-adv-x="585" unicode="&#370;" /><glyph d="M246 778Q246 756 259 742Q272 728 292 728Q313 728 326 742Q339 756 339 778Q339 800 326 814Q313 828 292 828Q272 828 259 814Q246 800 246 778ZM396 778Q396 736 366.5 707.5Q337 679 292 679Q247 679 218 707.5Q189 736 189 778Q189 821 218.5 849.5Q248 878 292 878Q337 878 366.5 849Q396 820 396 778ZM408 205V657H511V205Q511 107 451 48.5Q391 -10 292 -10Q193 -10 133 48.5Q73 107 73 205V657H176V205Q176 149 207 116Q238 83 292 83Q345 83 376.5 116Q408 149 408 205Z" glyph-name="Uring" horiz-adv-x="584" unicode="&#366;" /><glyph d="M408 205V657H511V205Q511 107 451 48.5Q391 -10 292 -10Q193 -10 133 48.5Q73 107 73 205V657H176V205Q176 149 207 116Q238 83 292 83Q345 83 376.5 116Q408 149 408 205ZM363 763Q378 763 386.5 776.5Q395 790 395 811H447Q448 807 448 802Q448 797 448 787Q448 744 427.5 720Q407 696 370 696Q356 696 340.5 700.5Q325 705 309 713L267 735Q255 741 247 743.5Q239 746 232 746Q213 746 202.5 731Q192 716 192 698H139Q139 701 137.5 709.5Q136 718 136 724Q136 764 161 789.5Q186 815 225 815Q238 815 252 811.5Q266 808 280 800L321 779Q344 767 351 765Q358 763 363 763Z" glyph-name="Utilde" horiz-adv-x="584" unicode="&#360;" /><glyph d="M262 157 394 657H498L314 0H205L21 657H131Z" glyph-name="V" horiz-adv-x="519" unicode="V" /><glyph d="M512 182 605 657H703L559 0H465L366 478L267 0H173L29 657H132L224 183L321 657H415Z" glyph-name="W" horiz-adv-x="732" unicode="W" /><glyph d="M434 862 498 800 367 694 321 736ZM512 182 605 657H703L559 0H465L366 478L267 0H173L29 657H132L224 183L321 657H415Z" glyph-name="Wacute" horiz-adv-x="732" unicode="&#7810;" /><glyph d="M236 728 342 857H390L495 728L456 694L364 775L274 695ZM512 182 605 657H703L559 0H465L366 478L267 0H173L29 657H132L224 183L321 657H415Z" glyph-name="Wcircumflex" horiz-adv-x="732" unicode="&#372;" /><glyph d="M512 182 605 657H703L559 0H465L366 478L267 0H173L29 657H132L224 183L321 657H415ZM303 710Q281 710 265 726Q249 742 249 764Q249 786 264.5 801Q280 816 303 816Q324 816 338.5 801Q353 786 353 764Q353 742 338.5 726Q324 710 303 710ZM430 710Q409 710 393.5 726Q378 742 378 764Q378 786 393 801Q408 816 430 816Q452 816 467 801Q482 786 482 764Q482 742 466.5 726Q451 710 430 710Z" glyph-name="Wdieresis" horiz-adv-x="732" unicode="&#7812;" /><glyph d="M412 736 366 694 235 800 300 862ZM512 182 605 657H703L559 0H465L366 478L267 0H173L29 657H132L224 183L321 657H415Z" glyph-name="Wgrave" horiz-adv-x="732" unicode="&#7808;" /><glyph d="M195 340 25 657H136L257 430L376 657H482L309 343L493 0H381L248 251L121 0H14Z" glyph-name="X" horiz-adv-x="506" unicode="X" /><glyph d="M198 263 11 657H121L253 365L384 657H488L301 264V0H198Z" glyph-name="Y" horiz-adv-x="499" unicode="Y" /><glyph d="M198 263 11 657H121L253 365L384 657H488L301 264V0H198ZM316 862 380 800 249 694 203 736Z" glyph-name="Yacute" horiz-adv-x="499" unicode="&#221;" /><glyph d="M198 263 11 657H121L253 365L384 657H488L301 264V0H198ZM120 728 226 857H274L379 728L340 694L248 775L158 695Z" glyph-name="Ycircumflex" horiz-adv-x="499" unicode="&#374;" /><glyph d="M198 263 11 657H121L253 365L384 657H488L301 264V0H198ZM187 710Q165 710 149 726Q133 742 133 764Q133 786 148.5 801Q164 816 187 816Q208 816 222.5 801Q237 786 237 764Q237 742 222.5 726Q208 710 187 710ZM314 710Q293 710 277.5 726Q262 742 262 764Q262 786 277 801Q292 816 314 816Q336 816 351 801Q366 786 366 764Q366 742 350.5 726Q335 710 314 710Z" glyph-name="Ydieresis" horiz-adv-x="499" unicode="&#376;" /><glyph d="M302 565H46V657H428V592L162 92H435V0H36V65Z" glyph-name="Z" horiz-adv-x="472" unicode="Z" /><glyph d="M302 565H46V657H428V592L162 92H435V0H36V65ZM302 862 366 800 235 694 189 736Z" glyph-name="Zacute" horiz-adv-x="472" unicode="&#377;" /><glyph d="M302 565H46V657H428V592L162 92H435V0H36V65ZM368 821 263 692H215L109 821L149 855L240 774L330 854Z" glyph-name="Zcaron" horiz-adv-x="472" unicode="&#381;" /><glyph d="M235 709Q210 709 193 726Q176 743 176 768Q176 793 193 810.5Q210 828 235 828Q261 828 278 811Q295 794 295 768Q295 743 277.5 726Q260 709 235 709ZM302 565H46V657H428V592L162 92H435V0H36V65Z" glyph-name="Zdotaccent" horiz-adv-x="472" unicode="&#379;" /><glyph d="M219 -10Q140 -10 95.5 39.5Q51 89 51 176V313Q51 400 95.5 449.5Q140 499 219 499Q259 499 291 483.5Q323 468 344 439L354 489H436V0H354L344 51Q323 21 291 5.5Q259 -10 219 -10ZM241 77Q284 77 310.5 105.5Q337 134 337 179V311Q337 355 310.5 383.5Q284 412 241 412Q199 412 175 385.5Q151 359 151 315V174Q151 130 175 103.5Q199 77 241 77Z" glyph-name="a" horiz-adv-x="502" unicode="a" /><glyph d="M419 0H336L327 48Q307 20 274.5 5Q242 -10 202 -10Q126 -10 83.5 26Q41 62 41 127Q41 197 85.5 234.5Q130 272 213 272H319V335Q319 373 295.5 395Q272 417 232 417Q192 417 168.5 395.5Q145 374 145 339V328H49V334Q49 409 100 454Q151 499 235 499Q320 499 369.5 452Q419 405 419 325ZM142 134Q142 103 163 86.5Q184 70 224 70Q263 70 288 92.5Q313 115 319 153V200H228Q184 200 163 183.5Q142 167 142 134Z" glyph-name="a.alt" horiz-adv-x="481" /><glyph d="M219 -10Q140 -10 95.5 39.5Q51 89 51 176V313Q51 400 95.5 449.5Q140 499 219 499Q259 499 291 483.5Q323 468 344 439L354 489H436V0H354L344 51Q323 21 291 5.5Q259 -10 219 -10ZM241 77Q284 77 310.5 105.5Q337 134 337 179V311Q337 355 310.5 383.5Q284 412 241 412Q199 412 175 385.5Q151 359 151 315V174Q151 130 175 103.5Q199 77 241 77ZM309 712 373 651 242 545 196 586Z" glyph-name="aacute" horiz-adv-x="502" unicode="&#225;" /><glyph d="M297 712 361 651 230 545 184 586ZM419 0H336L327 48Q307 20 274.5 5Q242 -10 202 -10Q126 -10 83.5 26Q41 62 41 127Q41 197 85.5 234.5Q130 272 213 272H319V335Q319 373 295.5 395Q272 417 232 417Q192 417 168.5 395.5Q145 374 145 339V328H49V334Q49 409 100 454Q151 499 235 499Q320 499 369.5 452Q419 405 419 325ZM142 134Q142 103 163 86.5Q184 70 224 70Q263 70 288 92.5Q313 115 319 153V200H228Q184 200 163 183.5Q142 167 142 134Z" glyph-name="aacute.alt" horiz-adv-x="481" /><glyph d="M219 -10Q140 -10 95.5 39.5Q51 89 51 176V313Q51 400 95.5 449.5Q140 499 219 499Q259 499 291 483.5Q323 468 344 439L354 489H436V0H354L344 51Q323 21 291 5.5Q259 -10 219 -10ZM241 77Q284 77 310.5 105.5Q337 134 337 179V311Q337 355 310.5 383.5Q284 412 241 412Q199 412 175 385.5Q151 359 151 315V174Q151 130 175 103.5Q199 77 241 77ZM293 650V670H354V650Q354 605 323 575Q292 545 243 545Q194 545 163 575Q132 605 132 650V670H194V650Q194 627 207 613Q220 599 243 599Q265 599 279 613Q293 627 293 650Z" glyph-name="abreve" horiz-adv-x="502" unicode="&#259;" /><glyph d="M419 0H336L327 48Q307 20 274.5 5Q242 -10 202 -10Q126 -10 83.5 26Q41 62 41 127Q41 197 85.5 234.5Q130 272 213 272H319V335Q319 373 295.5 395Q272 417 232 417Q192 417 168.5 395.5Q145 374 145 339V328H49V334Q49 409 100 454Q151 499 235 499Q320 499 369.5 452Q419 405 419 325ZM142 134Q142 103 163 86.5Q184 70 224 70Q263 70 288 92.5Q313 115 319 153V200H228Q184 200 163 183.5Q142 167 142 134ZM281 650V670H342V650Q342 605 311 575Q280 545 231 545Q182 545 151 575Q120 605 120 650V670H182V650Q182 627 195 613Q208 599 231 599Q253 599 267 613Q281 627 281 650Z" glyph-name="abreve.alt" horiz-adv-x="481" /><glyph d="M219 -10Q140 -10 95.5 39.5Q51 89 51 176V313Q51 400 95.5 449.5Q140 499 219 499Q259 499 291 483.5Q323 468 344 439L354 489H436V0H354L344 51Q323 21 291 5.5Q259 -10 219 -10ZM241 77Q284 77 310.5 105.5Q337 134 337 179V311Q337 355 310.5 383.5Q284 412 241 412Q199 412 175 385.5Q151 359 151 315V174Q151 130 175 103.5Q199 77 241 77ZM114 578 220 707H268L373 578L334 544L242 625L152 545Z" glyph-name="acircumflex" horiz-adv-x="502" unicode="&#226;" /><glyph d="M105 578 211 707H259L364 578L325 544L233 625L143 545ZM419 0H336L327 48Q307 20 274.5 5Q242 -10 202 -10Q126 -10 83.5 26Q41 62 41 127Q41 197 85.5 234.5Q130 272 213 272H319V335Q319 373 295.5 395Q272 417 232 417Q192 417 168.5 395.5Q145 374 145 339V328H49V334Q49 409 100 454Q151 499 235 499Q320 499 369.5 452Q419 405 419 325ZM142 134Q142 103 163 86.5Q184 70 224 70Q263 70 288 92.5Q313 115 319 153V200H228Q184 200 163 183.5Q142 167 142 134Z" glyph-name="acircumflex.alt" horiz-adv-x="481" /><glyph d="M133 712 197 651 66 545 20 586Z" glyph-name="acute" horiz-adv-x="217" unicode="&#180;" /><glyph d="M133 862 197 800 66 694 20 736Z" glyph-name="acute.case" horiz-adv-x="217" /><glyph d="M219 -10Q140 -10 95.5 39.5Q51 89 51 176V313Q51 400 95.5 449.5Q140 499 219 499Q259 499 291 483.5Q323 468 344 439L354 489H436V0H354L344 51Q323 21 291 5.5Q259 -10 219 -10ZM241 77Q284 77 310.5 105.5Q337 134 337 179V311Q337 355 310.5 383.5Q284 412 241 412Q199 412 175 385.5Q151 359 151 315V174Q151 130 175 103.5Q199 77 241 77ZM181 556Q159 556 143 572Q127 588 127 610Q127 632 142.5 646.5Q158 661 181 661Q202 661 216.5 646.5Q231 632 231 610Q231 587 216.5 571.5Q202 556 181 556ZM308 556Q286 556 271 571.5Q256 587 256 610Q256 632 271 646.5Q286 661 308 661Q330 661 345 646.5Q360 632 360 610Q360 587 345 571.5Q330 556 308 556Z" glyph-name="adieresis" horiz-adv-x="502" unicode="&#228;" /><glyph d="M170 556Q148 556 132 572Q116 588 116 610Q116 632 131.5 646.5Q147 661 170 661Q191 661 205.5 646.5Q220 632 220 610Q220 587 205.5 571.5Q191 556 170 556ZM297 556Q275 556 260 571.5Q245 587 245 610Q245 632 260 646.5Q275 661 297 661Q319 661 334 646.5Q349 632 349 610Q349 587 334 571.5Q319 556 297 556ZM419 0H336L327 48Q307 20 274.5 5Q242 -10 202 -10Q126 -10 83.5 26Q41 62 41 127Q41 197 85.5 234.5Q130 272 213 272H319V335Q319 373 295.5 395Q272 417 232 417Q192 417 168.5 395.5Q145 374 145 339V328H49V334Q49 409 100 454Q151 499 235 499Q320 499 369.5 452Q419 405 419 325ZM142 134Q142 103 163 86.5Q184 70 224 70Q263 70 288 92.5Q313 115 319 153V200H228Q184 200 163 183.5Q142 167 142 134Z" glyph-name="adieresis.alt" horiz-adv-x="481" /><glyph d="M202 -10Q127 -10 84.5 28Q42 66 42 134Q42 201 86.5 236.5Q131 272 214 272H321V328Q321 369 297.5 393Q274 417 234 417Q194 417 170 393.5Q146 370 146 332V321H49V327Q49 405 99 452Q149 499 231 499Q277 499 314 481.5Q351 464 373 431Q396 464 432 481.5Q468 499 513 499Q598 499 649.5 446Q701 393 701 305V228H419V169Q419 125 445 97.5Q471 70 514 70Q557 70 582 94Q607 118 607 159V167H701V161Q701 84 649.5 37Q598 -10 513 -10Q461 -10 421 12.5Q381 35 358 77Q338 36 297.5 13Q257 -10 202 -10ZM143 135Q143 103 164 86.5Q185 70 225 70Q269 70 295 98Q321 126 321 172V200H229Q185 200 164 184Q143 168 143 135ZM513 419Q470 419 444.5 391Q419 363 419 317V299H607V317Q607 362 581 390.5Q555 419 513 419Z" glyph-name="ae" horiz-adv-x="747" unicode="&#230;" /><glyph d="M219 -10Q140 -10 95.5 39.5Q51 89 51 176V313Q51 400 95.5 449.5Q140 499 219 499Q259 499 291 483.5Q323 468 344 439L354 489H436V0H354L344 51Q323 21 291 5.5Q259 -10 219 -10ZM241 77Q284 77 310.5 105.5Q337 134 337 179V311Q337 355 310.5 383.5Q284 412 241 412Q199 412 175 385.5Q151 359 151 315V174Q151 130 175 103.5Q199 77 241 77ZM291 586 245 545 114 651 179 712Z" glyph-name="agrave" horiz-adv-x="502" unicode="&#224;" /><glyph d="M419 0H336L327 48Q307 20 274.5 5Q242 -10 202 -10Q126 -10 83.5 26Q41 62 41 127Q41 197 85.5 234.5Q130 272 213 272H319V335Q319 373 295.5 395Q272 417 232 417Q192 417 168.5 395.5Q145 374 145 339V328H49V334Q49 409 100 454Q151 499 235 499Q320 499 369.5 452Q419 405 419 325ZM142 134Q142 103 163 86.5Q184 70 224 70Q263 70 288 92.5Q313 115 319 153V200H228Q184 200 163 183.5Q142 167 142 134ZM282 586 236 545 105 651 170 712Z" glyph-name="agrave.alt" horiz-adv-x="481" /><glyph d="M219 -10Q140 -10 95.5 39.5Q51 89 51 176V313Q51 400 95.5 449.5Q140 499 219 499Q259 499 291 483.5Q323 468 344 439L354 489H436V0H354L344 51Q323 21 291 5.5Q259 -10 219 -10ZM241 77Q284 77 310.5 105.5Q337 134 337 179V311Q337 355 310.5 383.5Q284 412 241 412Q199 412 175 385.5Q151 359 151 315V174Q151 130 175 103.5Q199 77 241 77ZM363 567H125V639H363Z" glyph-name="amacron" horiz-adv-x="502" unicode="&#257;" /><glyph d="M419 0H336L327 48Q307 20 274.5 5Q242 -10 202 -10Q126 -10 83.5 26Q41 62 41 127Q41 197 85.5 234.5Q130 272 213 272H319V335Q319 373 295.5 395Q272 417 232 417Q192 417 168.5 395.5Q145 374 145 339V328H49V334Q49 409 100 454Q151 499 235 499Q320 499 369.5 452Q419 405 419 325ZM142 134Q142 103 163 86.5Q184 70 224 70Q263 70 288 92.5Q313 115 319 153V200H228Q184 200 163 183.5Q142 167 142 134ZM351 567H113V639H351Z" glyph-name="amacron.alt" horiz-adv-x="481" /><glyph d="M286 380H552V300H484V191Q484 101 425 45.5Q366 -10 269 -10Q169 -10 108 42Q47 94 47 180Q47 239 75.5 281Q104 323 157 344Q115 364 92.5 401Q70 438 70 489Q70 569 124 618Q178 667 267 667Q355 667 408.5 615Q462 563 462 480V466H364V481Q364 526 338.5 552Q313 578 269 578Q224 578 198.5 552.5Q173 527 173 481Q173 431 201.5 405.5Q230 380 286 380ZM153 189Q153 135 184 105.5Q215 76 272 76Q325 76 356 107Q387 138 387 189V300H284Q222 300 187.5 270.5Q153 241 153 189Z" glyph-name="ampersand" horiz-adv-x="584" unicode="&amp;" /><glyph d="M570 0H459L405 69Q370 30 327 10Q284 -10 235 -10Q143 -10 91 36.5Q39 83 39 167Q39 231 78.5 277.5Q118 324 190 346L186 351Q154 394 139.5 432.5Q125 471 125 507Q125 579 173 623Q221 667 299 667Q377 667 422.5 621.5Q468 576 468 498V476H374V500Q374 538 353.5 560.5Q333 583 297 583Q263 583 243 562.5Q223 542 223 508Q223 480 235 451Q247 422 269 395L408 213L481 360H576L461 143ZM143 178Q143 128 170 102Q197 76 248 76Q281 76 307.5 90Q334 104 356 133L234 289Q191 275 167 246Q143 217 143 178Z" glyph-name="ampersand.alt" horiz-adv-x="605" /><glyph d="M379 -132H426V-191H366Q322 -191 297 -170Q272 -149 272 -114Q272 -79 294.5 -47Q317 -15 353 4L344 51Q323 21 291 5.5Q259 -10 219 -10Q140 -10 95.5 39.5Q51 89 51 176V313Q51 400 95.5 449.5Q140 499 219 499Q259 499 291 483.5Q323 468 344 439L354 489H436V0H409Q372 -23 353 -47.5Q334 -72 334 -97Q334 -113 346 -122.5Q358 -132 379 -132ZM241 77Q284 77 310.5 105.5Q337 134 337 179V311Q337 355 310.5 383.5Q284 412 241 412Q199 412 175 385.5Q151 359 151 315V174Q151 130 175 103.5Q199 77 241 77Z" glyph-name="aogonek" horiz-adv-x="502" unicode="&#261;" /><glyph d="M362 -132H409V-191H349Q305 -191 280 -170Q255 -149 255 -114Q255 -80 277 -48Q299 -16 335 3L327 48Q307 20 274.5 5Q242 -10 202 -10Q126 -10 83.5 26Q41 62 41 127Q41 197 85.5 234.5Q130 272 213 272H319V335Q319 373 295.5 395Q272 417 232 417Q192 417 168.5 395.5Q145 374 145 339V328H49V334Q49 409 100 454Q151 499 235 499Q320 499 369.5 452Q419 405 419 325V0H392Q355 -23 336 -47.5Q317 -72 317 -97Q317 -113 329 -122.5Q341 -132 362 -132ZM142 134Q142 103 163 86.5Q184 70 224 70Q263 70 288 92.5Q313 115 319 153V200H228Q184 200 163 183.5Q142 167 142 134Z" glyph-name="aogonek.alt" horiz-adv-x="481" /><glyph d="M363 418Q380 418 396.5 432.5Q413 447 433 481L491 441Q464 390 432 364Q400 338 363 338Q341 338 320.5 345.5Q300 353 265 377Q233 398 221 402Q209 406 197 406Q176 406 156.5 389.5Q137 373 110 329L55 371Q81 425 118.5 455Q156 485 199 485Q221 485 242 477.5Q263 470 299 447Q328 428 339.5 423Q351 418 363 418ZM363 212Q380 212 396.5 227Q413 242 433 276L491 236Q465 185 432.5 159Q400 133 363 133Q340 133 319.5 140.5Q299 148 265 171Q233 192 221 196Q209 200 197 200Q176 200 156.5 184Q137 168 110 124L55 165Q81 219 118.5 249Q156 279 199 279Q221 279 242 271.5Q263 264 299 241Q333 219 343 215.5Q353 212 363 212Z" glyph-name="approxequal" horiz-adv-x="544" unicode="&#8776;" /><glyph d="M219 -10Q140 -10 95.5 39.5Q51 89 51 176V313Q51 400 95.5 449.5Q140 499 219 499Q259 499 291 483.5Q323 468 344 439L354 489H436V0H354L344 51Q323 21 291 5.5Q259 -10 219 -10ZM241 77Q284 77 310.5 105.5Q337 134 337 179V311Q337 355 310.5 383.5Q284 412 241 412Q199 412 175 385.5Q151 359 151 315V174Q151 130 175 103.5Q199 77 241 77ZM196 628Q196 606 209 591.5Q222 577 242 577Q263 577 276 591Q289 605 289 628Q289 650 276 663.5Q263 677 242 677Q222 677 209 663.5Q196 650 196 628ZM346 628Q346 585 316.5 556.5Q287 528 242 528Q197 528 168 556.5Q139 585 139 628Q139 670 168 698.5Q197 727 242 727Q287 727 316.5 698.5Q346 670 346 628Z" glyph-name="aring" horiz-adv-x="502" unicode="&#229;" /><glyph d="M186 628Q186 606 199 591.5Q212 577 232 577Q253 577 266 591Q279 605 279 628Q279 650 266 663.5Q253 677 232 677Q212 677 199 663.5Q186 650 186 628ZM336 628Q336 585 306.5 556.5Q277 528 232 528Q187 528 158 556.5Q129 585 129 628Q129 670 158 698.5Q187 727 232 727Q277 727 306.5 698.5Q336 670 336 628ZM419 0H336L327 48Q307 20 274.5 5Q242 -10 202 -10Q126 -10 83.5 26Q41 62 41 127Q41 197 85.5 234.5Q130 272 213 272H319V335Q319 373 295.5 395Q272 417 232 417Q192 417 168.5 395.5Q145 374 145 339V328H49V334Q49 409 100 454Q151 499 235 499Q320 499 369.5 452Q419 405 419 325ZM142 134Q142 103 163 86.5Q184 70 224 70Q263 70 288 92.5Q313 115 319 153V200H228Q184 200 163 183.5Q142 167 142 134Z" glyph-name="aring.alt" horiz-adv-x="481" /><glyph d="M45 355 175 657H255L385 355H290L212 548L135 355Z" glyph-name="asciicircum" horiz-adv-x="430" unicode="^" /><glyph d="M351 329Q369 329 385 343.5Q401 358 421 393L479 353Q453 302 421 275.5Q389 249 351 249Q329 249 308.5 256.5Q288 264 253 288Q225 307 211.5 312Q198 317 185 317Q164 317 144.5 300.5Q125 284 98 240L43 282Q69 336 106.5 366Q144 396 187 396Q209 396 230 388.5Q251 381 287 358Q316 339 327.5 334Q339 329 351 329Z" glyph-name="asciitilde" horiz-adv-x="521" unicode="~" /><glyph d="M162 350V386L185 483L114 412L84 394L47 456L78 474L174 504L78 534L47 552L83 613L114 595L185 523L162 621V657H233V621L209 524L279 595L311 613L347 552L316 534L219 504L316 474L347 456L310 394L279 412L209 482L233 386V350Z" glyph-name="asterisk" horiz-adv-x="394" unicode="*" /><glyph d="M343 39Q281 39 251.5 80.5Q222 122 234 190L250 279Q262 351 296.5 387Q331 423 387 423Q422 423 448 409.5Q474 396 486 371L503 416H572L526 153Q518 107 533.5 84.5Q549 62 591 62Q630 62 649.5 90.5Q669 119 669 177V320Q669 423 597 483.5Q525 544 403 544Q281 544 209.5 483.5Q138 423 138 320V143Q138 40 209.5 -20.5Q281 -81 403 -81H493V-159H403Q241 -159 147.5 -74.5Q54 10 54 155V308Q54 457 145 539.5Q236 622 403 622Q565 622 658.5 537.5Q752 453 752 308V189Q752 93 708.5 41.5Q665 -10 588 -10Q526 -10 488 17Q450 44 445 94Q424 68 397.5 53.5Q371 39 343 39ZM372 107Q400 107 421 127.5Q442 148 448 181L466 279Q472 312 454.5 332.5Q437 353 402 353Q376 353 358 333Q340 313 333 278L316 182Q310 147 324.5 127Q339 107 372 107Z" glyph-name="at" horiz-adv-x="798" unicode="@" /><glyph d="M219 -10Q140 -10 95.5 39.5Q51 89 51 176V313Q51 400 95.5 449.5Q140 499 219 499Q259 499 291 483.5Q323 468 344 439L354 489H436V0H354L344 51Q323 21 291 5.5Q259 -10 219 -10ZM241 77Q284 77 310.5 105.5Q337 134 337 179V311Q337 355 310.5 383.5Q284 412 241 412Q199 412 175 385.5Q151 359 151 315V174Q151 130 175 103.5Q199 77 241 77ZM314 618Q329 618 337.5 631.5Q346 645 346 666H398Q399 661 399 656Q399 651 399 642Q399 599 378.5 575Q358 551 321 551Q306 551 290.5 555.5Q275 560 260 569L218 590Q207 596 199 599Q191 602 183 602Q164 602 153.5 586.5Q143 571 143 553H90Q89 564 88 570.5Q87 577 87 579Q87 619 112 644.5Q137 670 176 670Q189 670 203 666.5Q217 663 231 655L272 634Q295 622 302 620Q309 618 314 618Z" glyph-name="atilde" horiz-adv-x="502" unicode="&#227;" /><glyph d="M419 0H336L327 48Q307 20 274.5 5Q242 -10 202 -10Q126 -10 83.5 26Q41 62 41 127Q41 197 85.5 234.5Q130 272 213 272H319V335Q319 373 295.5 395Q272 417 232 417Q192 417 168.5 395.5Q145 374 145 339V328H49V334Q49 409 100 454Q151 499 235 499Q320 499 369.5 452Q419 405 419 325ZM142 134Q142 103 163 86.5Q184 70 224 70Q263 70 288 92.5Q313 115 319 153V200H228Q184 200 163 183.5Q142 167 142 134ZM303 618Q318 618 326.5 631.5Q335 645 335 666H387Q388 661 388 656Q388 651 388 642Q388 599 367.5 575Q347 551 310 551Q295 551 279.5 555.5Q264 560 249 569L207 590Q196 596 188 599Q180 602 172 602Q153 602 142.5 586.5Q132 571 132 553H79Q78 564 77 570.5Q76 577 76 579Q76 619 101 644.5Q126 670 165 670Q178 670 192 666.5Q206 663 220 655L261 634Q284 622 291 620Q298 618 303 618Z" glyph-name="atilde.alt" horiz-adv-x="481" /><glyph d="M66 0H149L158 51Q179 21 211.5 5.5Q244 -10 284 -10Q362 -10 406.5 40Q451 90 451 176V313Q451 399 406.5 449Q362 499 284 499Q247 499 216.5 485.5Q186 472 166 447V677H66ZM261 77Q218 77 192 105.5Q166 134 166 179V311Q166 356 192 384Q218 412 261 412Q303 412 327.5 385.5Q352 359 352 315V174Q352 130 327.5 103.5Q303 77 261 77Z" glyph-name="b" horiz-adv-x="502" unicode="b" /><glyph d="M421 -111 126 765H26L321 -111Z" glyph-name="backslash" horiz-adv-x="446" unicode="\" /><glyph d="M540 180Q540 100 483.5 50Q427 0 337 0H332V-108H254V0H83V657H254V765H332V657Q418 653 471 606.5Q524 560 524 487Q524 434 498.5 396.5Q473 359 425 340V339Q481 322 510.5 281Q540 240 540 180ZM185 572V379H254V572ZM419 485Q419 521 396 543.5Q373 566 332 571V380Q373 385 396 412.5Q419 440 419 485ZM185 293V85H254V293ZM434 182Q434 233 406.5 263Q379 293 332 293V85Q380 86 407 112Q434 138 434 182Z" glyph-name="baht" horiz-adv-x="583" unicode="&#3647;" /><glyph d="M74 765H170V-111H74Z" glyph-name="bar" horiz-adv-x="244" unicode="|" /><glyph d="M103 73V212Q103 249 85.5 269Q68 289 36 289H25V369H36Q69 369 86 389Q103 409 103 446V581Q103 669 152.5 717Q202 765 293 765H308V673H293Q250 673 228 650Q206 627 206 582V446Q206 406 190.5 376Q175 346 146 329Q175 311 190.5 281Q206 251 206 212V73Q206 28 228 4.5Q250 -19 293 -19H308V-111H293Q202 -111 152.5 -63Q103 -15 103 73Z" glyph-name="braceleft" horiz-adv-x="347" unicode="{" /><glyph d="M244 73V212Q244 249 261.5 269Q279 289 311 289H322V369H311Q278 369 261 389Q244 409 244 446V581Q244 669 194.5 717Q145 765 54 765H39V673H54Q97 673 119 650Q141 627 141 582V446Q141 406 156.5 376Q172 346 201 329Q172 311 156.5 281Q141 251 141 212V73Q141 28 119 4.5Q97 -19 54 -19H39V-111H54Q145 -111 194.5 -63Q244 -15 244 73Z" glyph-name="braceright" horiz-adv-x="347" unicode="}" /><glyph d="M280 672H178V-18H280V-111H74V765H280Z" glyph-name="bracketleft" horiz-adv-x="319" unicode="[" /><glyph d="M39 672H141V-18H39V-111H245V765H39Z" glyph-name="bracketright" horiz-adv-x="319" unicode="]" /><glyph d="M181 650V670H242V650Q242 605 211 575Q180 545 131 545Q82 545 51 575Q20 605 20 650V670H82V650Q82 627 95 613Q108 599 131 599Q153 599 167 613Q181 627 181 650Z" glyph-name="breve" horiz-adv-x="262" unicode="&#728;" /><glyph d="M181 799V819H242V799Q242 754 211 724Q180 694 131 694Q82 694 51 724Q20 754 20 799V819H82V799Q82 776 95.5 762Q109 748 131 748Q153 748 167 762.5Q181 777 181 799Z" glyph-name="breve.case" horiz-adv-x="262" /><glyph d="M178 405H75V765H178ZM178 -111H75V249H178Z" glyph-name="brokenbar" horiz-adv-x="254" unicode="&#166;" /><glyph d="M173 173Q131 173 101 202.5Q71 232 71 274Q71 317 101 347Q131 377 173 377Q216 377 246 347Q276 317 276 274Q276 232 246 202.5Q216 173 173 173Z" glyph-name="bullet" horiz-adv-x="347" unicode="&#8226;" /><glyph d="M335 162V178H431V170Q431 88 379.5 39Q328 -10 242 -10Q155 -10 102 43Q49 96 49 184V305Q49 393 102 446Q155 499 242 499Q327 499 379 451Q431 403 431 323V318H335V329Q335 367 309.5 390.5Q284 414 242 414Q199 414 174 386.5Q149 359 149 313V176Q149 130 174 102.5Q199 75 242 75Q286 75 310.5 98.5Q335 122 335 162Z" glyph-name="c" horiz-adv-x="474" unicode="c" /><glyph d="M306 712 370 651 239 545 193 586ZM335 162V178H431V170Q431 88 379.5 39Q328 -10 242 -10Q155 -10 102 43Q49 96 49 184V305Q49 393 102 446Q155 499 242 499Q327 499 379 451Q431 403 431 323V318H335V329Q335 367 309.5 390.5Q284 414 242 414Q199 414 174 386.5Q149 359 149 313V176Q149 130 174 102.5Q199 75 242 75Q286 75 310.5 98.5Q335 122 335 162Z" glyph-name="cacute" horiz-adv-x="474" unicode="&#263;" /><glyph d="M279 674 174 545H126L20 674L60 708L151 627L241 707Z" glyph-name="caron" horiz-adv-x="299" unicode="&#711;" /><glyph d="M279 821 174 692H126L20 821L60 855L151 774L241 854Z" glyph-name="caron.case" horiz-adv-x="299" /><glyph d="M32 533 54 677H147L88 533Z" glyph-name="caron.salt" horiz-adv-x="182" /><glyph d="M368 674 263 545H215L109 674L149 708L240 627L330 707ZM335 162V178H431V170Q431 88 379.5 39Q328 -10 242 -10Q155 -10 102 43Q49 96 49 184V305Q49 393 102 446Q155 499 242 499Q327 499 379 451Q431 403 431 323V318H335V329Q335 367 309.5 390.5Q284 414 242 414Q199 414 174 386.5Q149 359 149 313V176Q149 130 174 102.5Q199 75 242 75Q286 75 310.5 98.5Q335 122 335 162Z" glyph-name="ccaron" horiz-adv-x="474" unicode="&#269;" /><glyph d="M332 -114Q332 -147 310 -167Q288 -187 251 -187H146V-135H244Q256 -135 262 -129.5Q268 -124 268 -114Q268 -104 261.5 -98.5Q255 -93 244 -93H189L170 -79L192 -5Q125 10 87 60Q49 110 49 184V305Q49 393 102 446Q155 499 242 499Q327 499 379 451Q431 403 431 323V318H335V329Q335 367 309.5 390.5Q284 414 242 414Q199 414 174 386.5Q149 359 149 313V176Q149 130 174 102.5Q199 75 242 75Q286 75 310.5 98.5Q335 122 335 162V178H431V170Q431 90 381.5 41Q332 -8 249 -10L239 -43H251Q290 -43 311 -61.5Q332 -80 332 -114Z" glyph-name="ccedilla" horiz-adv-x="474" unicode="&#231;" /><glyph d="M110 578 216 707H264L369 578L330 544L238 625L148 545ZM335 162V178H431V170Q431 88 379.5 39Q328 -10 242 -10Q155 -10 102 43Q49 96 49 184V305Q49 393 102 446Q155 499 242 499Q327 499 379 451Q431 403 431 323V318H335V329Q335 367 309.5 390.5Q284 414 242 414Q199 414 174 386.5Q149 359 149 313V176Q149 130 174 102.5Q199 75 242 75Q286 75 310.5 98.5Q335 122 335 162Z" glyph-name="ccircumflex" horiz-adv-x="474" unicode="&#265;" /><glyph d="M335 162V178H431V170Q431 88 379.5 39Q328 -10 242 -10Q155 -10 102 43Q49 96 49 184V305Q49 393 102 446Q155 499 242 499Q327 499 379 451Q431 403 431 323V318H335V329Q335 367 309.5 390.5Q284 414 242 414Q199 414 174 386.5Q149 359 149 313V176Q149 130 174 102.5Q199 75 242 75Q286 75 310.5 98.5Q335 122 335 162ZM238 551Q213 551 196 568.5Q179 586 179 611Q179 636 196 653.5Q213 671 238 671Q263 671 280.5 653.5Q298 636 298 611Q298 586 280.5 568.5Q263 551 238 551Z" glyph-name="cdotaccent" horiz-adv-x="474" unicode="&#267;" /><glyph d="M132 -93H77L58 -79L85 13H144L127 -43H139Q178 -43 199 -61.5Q220 -80 220 -114Q220 -147 198 -167Q176 -187 139 -187H34V-135H132Q144 -135 150 -129.5Q156 -124 156 -114Q156 -104 149.5 -98.5Q143 -93 132 -93Z" glyph-name="cedilla" horiz-adv-x="239" unicode="&#184;" /><glyph d="M203 580V667H281V580Q350 569 390 522.5Q430 476 430 405V400H335V412Q335 451 309 475Q283 499 241 499Q198 499 173 471Q148 443 148 397V261Q148 215 173 187Q198 159 241 159Q285 159 310 183Q335 207 335 249V264H430V256Q430 183 390.5 136Q351 89 281 78V-10H203V78Q132 89 90.5 139.5Q49 190 49 268V390Q49 467 90 518Q131 569 203 580Z" glyph-name="cent" horiz-adv-x="478" unicode="&#162;" /><glyph d="M110 289V333H160V289Q194 282 213.5 258Q233 234 233 199V197H165V203Q165 217 156.5 226Q148 235 134 235Q120 235 112 225Q104 215 104 197V132Q104 114 112 104Q120 94 134 94Q149 94 157 103Q165 112 165 129V137H233V134Q233 97 213.5 71.5Q194 46 160 39V-5H110V39Q74 46 54 71.5Q34 97 34 136V192Q34 231 54 256.5Q74 282 110 289Z" glyph-name="cent.denominator" horiz-adv-x="261" unicode="&#63017;" /><glyph d="M110 618V662H160V618Q194 611 213.5 587Q233 563 233 528V526H165V532Q165 546 156.5 555Q148 564 134 564Q120 564 112 554Q104 544 104 526V461Q104 443 112 433Q120 423 134 423Q149 423 157 432Q165 441 165 458V466H233V463Q233 426 213.5 400.5Q194 375 160 368V324H110V368Q74 375 54 400.5Q34 426 34 465V521Q34 560 54 585.5Q74 611 110 618Z" glyph-name="cent.numerator" horiz-adv-x="261" unicode="&#63022;" /><glyph d="M20 578 126 707H174L279 578L240 544L148 625L58 545Z" glyph-name="circumflex" horiz-adv-x="299" unicode="&#710;" /><glyph d="M20 728 126 857H174L279 728L240 694L148 775L58 695Z" glyph-name="circumflex.case" horiz-adv-x="299" /><glyph d="M123 -10Q98 -10 80 8Q62 26 62 51Q62 77 79.5 95Q97 113 123 113Q149 113 167 95Q185 77 185 51Q185 25 167 7.5Q149 -10 123 -10ZM123 376Q98 376 80 394Q62 412 62 437Q62 463 79.5 481Q97 499 123 499Q149 499 167 481Q185 463 185 437Q185 411 167 393.5Q149 376 123 376Z" glyph-name="colon" horiz-adv-x="247" unicode=":" /><glyph d="M31 -94 74 102H181L95 -94Z" glyph-name="comma" horiz-adv-x="233" unicode="," /><glyph d="M21 -47 45 65H113L61 -47Z" glyph-name="comma.denominator" horiz-adv-x="141" unicode="&#63071;" /><glyph d="M20 282 44 394H112L60 282Z" glyph-name="comma.numerator" horiz-adv-x="142" unicode="&#63083;" /><glyph d="M15 -224 52 -47H158L79 -224Z" glyph-name="commaaccent" horiz-adv-x="184" unicode="&#63171;" /><glyph d="M24 -219 64 -41H170L89 -219Z" glyph-name="commaaccent.salt" horiz-adv-x="206" /><glyph d="M454 270V282H536V276Q536 211 494 172.5Q452 134 382 134Q311 134 268 176Q225 218 225 288V368Q225 439 268 481.5Q311 524 382 524Q452 524 494 485.5Q536 447 536 383V380H454V389Q454 417 435 434Q416 451 383 451Q350 451 330 430Q310 409 310 375V283Q310 248 330 226.5Q350 205 383 205Q417 205 435.5 222Q454 239 454 270ZM382 -11Q241 -11 142 87.5Q43 186 43 327Q43 468 142.5 567.5Q242 667 383 667Q524 667 623.5 567.5Q723 468 723 327Q723 186 623 87.5Q523 -11 382 -11ZM383 609Q268 609 186.5 526.5Q105 444 105 327Q105 210 185.5 128.5Q266 47 382 47Q498 47 579 128.5Q660 210 660 327Q660 444 579 526.5Q498 609 383 609Z" glyph-name="copyright" horiz-adv-x="766" unicode="&#169;" /><glyph d="M467 228 550 150 486 87 410 169Q387 155 358.5 147.5Q330 140 299 140Q268 140 240 147.5Q212 155 189 169L113 87L49 150L131 227Q119 249 112.5 273.5Q106 298 106 326V337Q106 365 112 390Q118 415 130 437L49 513L113 576L188 496Q212 509 240 516Q268 523 299 523Q331 523 359 515.5Q387 508 409 494L486 576L550 513L467 435Q479 414 485.5 389.5Q492 365 492 337V326Q492 298 485.5 273.5Q479 249 467 228ZM299 433Q255 433 229 407Q203 381 203 337V326Q203 283 229 256.5Q255 230 299 230Q343 230 369 256.5Q395 283 395 326V337Q395 381 369 407Q343 433 299 433Z" glyph-name="currency" horiz-adv-x="599" unicode="&#164;" /><glyph d="M436 0H354L344 51Q323 21 291 5.5Q259 -10 219 -10Q140 -10 95.5 39.5Q51 89 51 176V313Q51 400 95.5 449.5Q140 499 219 499Q255 499 285.5 485.5Q316 472 337 447V677H436ZM241 77Q284 77 310.5 105.5Q337 134 337 179V311Q337 355 310.5 383.5Q284 412 241 412Q199 412 175 385.5Q151 359 151 315V174Q151 130 175 103.5Q199 77 241 77Z" glyph-name="d" horiz-adv-x="502" unicode="d" /><glyph d="M252 657V554L242 489H373V423H234L252 -8V-111H155V-8L172 423H34V489H164L155 554V657Z" glyph-name="dagger" horiz-adv-x="407" unicode="&#8224;" /><glyph d="M265 657V554L260 489H386V423H256L247 273L256 123H386V57H260L265 -8V-111H169V-8L173 57H48V123H178L186 273L178 423H48V489H173L169 554V657Z" glyph-name="daggerdbl" horiz-adv-x="434" unicode="&#8225;" /><glyph d="M466 533 488 677H581L522 533ZM436 0H354L344 51Q323 21 291 5.5Q259 -10 219 -10Q140 -10 95.5 39.5Q51 89 51 176V313Q51 400 95.5 449.5Q140 499 219 499Q255 499 285.5 485.5Q316 472 337 447V677H436ZM241 77Q284 77 310.5 105.5Q337 134 337 179V311Q337 355 310.5 383.5Q284 412 241 412Q199 412 175 385.5Q151 359 151 315V174Q151 130 175 103.5Q199 77 241 77Z" glyph-name="dcaron" horiz-adv-x="502" unicode="&#271;" /><glyph d="M354 0 344 51Q323 21 291 5.5Q259 -10 219 -10Q140 -10 95.5 39.5Q51 89 51 176V313Q51 400 95.5 449.5Q140 499 219 499Q255 499 285.5 485.5Q316 472 337 447V546H230V608H337V677H436V608H497V546H436V0ZM241 77Q284 77 310.5 105.5Q337 134 337 179V311Q337 355 310.5 383.5Q284 412 241 412Q199 412 175 385.5Q151 359 151 315V174Q151 130 175 103.5Q199 77 241 77Z" glyph-name="dcroat" horiz-adv-x="502" unicode="&#273;" /><glyph d="M213 323Q142 323 92 373.5Q42 424 42 495Q42 566 92 616.5Q142 667 213 667Q285 667 335.5 616.5Q386 566 386 495Q386 424 335.5 373.5Q285 323 213 323ZM213 592Q175 592 148.5 563.5Q122 535 122 495Q122 454 148.5 426Q175 398 213 398Q252 398 279 426Q306 454 306 495Q306 535 279 563.5Q252 592 213 592Z" glyph-name="degree" horiz-adv-x="429" unicode="&#176;" /><glyph d="M74 556Q52 556 36 572Q20 588 20 610Q20 632 35.5 646.5Q51 661 74 661Q95 661 109.5 646.5Q124 632 124 610Q124 587 109.5 571.5Q95 556 74 556ZM201 556Q179 556 164 571.5Q149 587 149 610Q149 632 164 646.5Q179 661 201 661Q223 661 238 646.5Q253 632 253 610Q253 587 238 571.5Q223 556 201 556Z" glyph-name="dieresis" horiz-adv-x="273" unicode="&#168;" /><glyph d="M74 710Q52 710 36 726Q20 742 20 764Q20 786 35.5 801Q51 816 74 816Q95 816 109.5 801Q124 786 124 764Q124 742 109.5 726Q95 710 74 710ZM201 710Q180 710 164.5 726Q149 742 149 764Q149 786 164 801Q179 816 201 816Q223 816 238 801Q253 786 253 764Q253 742 237.5 726Q222 710 201 710Z" glyph-name="dieresis.case" horiz-adv-x="273" /><glyph d="M448 285H54V371H448ZM251 429Q229 429 212 445.5Q195 462 195 484Q195 506 211.5 522.5Q228 539 251 539Q273 539 289.5 522.5Q306 506 306 484Q306 462 289.5 445.5Q273 429 251 429ZM251 117Q228 117 211.5 133.5Q195 150 195 172Q195 194 211.5 210.5Q228 227 251 227Q273 227 289.5 210.5Q306 194 306 172Q306 150 289.5 133.5Q273 117 251 117Z" glyph-name="divide" horiz-adv-x="502" unicode="&#247;" /><glyph d="M452 479V466H351V483Q351 527 324 554Q297 581 252 581Q207 581 180.5 558Q154 535 154 496Q154 469 169.5 447Q185 425 213 414L308 375Q396 339 430.5 295Q465 251 465 186Q465 107 417.5 54.5Q370 2 290 -8V-108H212V-6Q133 5 87.5 54Q42 103 42 178V197H143V174Q143 129 172.5 102.5Q202 76 253 76Q304 76 334 103Q364 130 364 175Q364 210 345.5 234Q327 258 284 276L191 314Q122 342 88 385.5Q54 429 54 489Q54 557 97 604.5Q140 652 212 664V765H290V664Q365 653 408.5 603.5Q452 554 452 479Z" glyph-name="dollar" horiz-adv-x="507" unicode="$" /><glyph d="M239 235V227H170V239Q170 256 160 266Q150 276 134 276Q119 276 109.5 267.5Q100 259 100 245Q100 233 106 223.5Q112 214 124 210L164 194Q211 177 229 154Q247 131 247 96Q247 56 223 29Q199 2 159 -3V-54H108V-2Q70 4 47.5 29.5Q25 55 25 93V105H94V91Q94 73 105 62.5Q116 52 136 52Q156 52 167 62Q178 72 178 89Q178 103 171 112Q164 121 145 129L97 149Q65 162 48.5 184.5Q32 207 32 238Q32 273 53 298.5Q74 324 108 330V382H159V330Q196 324 217.5 298.5Q239 273 239 235Z" glyph-name="dollar.denominator" horiz-adv-x="272" unicode="&#63018;" /><glyph d="M239 564V556H170V568Q170 585 160 595Q150 605 134 605Q119 605 109.5 596.5Q100 588 100 574Q100 562 106 552.5Q112 543 124 539L164 523Q211 506 229 483Q247 460 247 425Q247 385 223 358Q199 331 159 326V275H108V327Q70 333 47.5 358.5Q25 384 25 422V434H94V420Q94 402 105 391.5Q116 381 136 381Q156 381 167 391Q178 401 178 418Q178 432 171 441Q164 450 145 458L97 478Q65 491 48.5 513.5Q32 536 32 567Q32 602 53 627.5Q74 653 108 659V711H159V659Q196 653 217.5 627.5Q239 602 239 564Z" glyph-name="dollar.numerator" horiz-adv-x="271" unicode="&#63023;" /><glyph d="M79 551Q54 551 37 568.5Q20 586 20 611Q20 636 37 653.5Q54 671 79 671Q104 671 121.5 653.5Q139 636 139 611Q139 586 121.5 568.5Q104 551 79 551Z" glyph-name="dotaccent" horiz-adv-x="159" unicode="&#729;" /><glyph d="M79 709Q54 709 37 726Q20 743 20 768Q20 793 37 810.5Q54 828 79 828Q105 828 122 811Q139 794 139 768Q139 743 121.5 726Q104 709 79 709Z" glyph-name="dotaccent.case" horiz-adv-x="159" /><glyph d="M66 0V489H166V0Z" glyph-name="dotlessi" horiz-adv-x="232" unicode="&#305;" /><glyph d="M334 159V167H429V161Q429 84 377.5 37Q326 -10 241 -10Q154 -10 101.5 41.5Q49 93 49 179V305Q49 393 101.5 446Q154 499 241 499Q326 499 377.5 446Q429 393 429 305V228H147V169Q147 125 173 97.5Q199 70 242 70Q285 70 309.5 94Q334 118 334 159ZM241 419Q198 419 172.5 391Q147 363 147 317V299H334V317Q334 363 308.5 391Q283 419 241 419Z" glyph-name="e" horiz-adv-x="475" unicode="e" /><glyph d="M305 712 369 651 238 545 192 586ZM334 159V167H429V161Q429 84 377.5 37Q326 -10 241 -10Q154 -10 101.5 41.5Q49 93 49 179V305Q49 393 101.5 446Q154 499 241 499Q326 499 377.5 446Q429 393 429 305V228H147V169Q147 125 173 97.5Q199 70 242 70Q285 70 309.5 94Q334 118 334 159ZM241 419Q198 419 172.5 391Q147 363 147 317V299H334V317Q334 363 308.5 391Q283 419 241 419Z" glyph-name="eacute" horiz-adv-x="475" unicode="&#233;" /><glyph d="M334 159V167H429V161Q429 84 377.5 37Q326 -10 241 -10Q154 -10 101.5 41.5Q49 93 49 179V305Q49 393 101.5 446Q154 499 241 499Q326 499 377.5 446Q429 393 429 305V228H147V169Q147 125 173 97.5Q199 70 242 70Q285 70 309.5 94Q334 118 334 159ZM241 419Q198 419 172.5 391Q147 363 147 317V299H334V317Q334 363 308.5 391Q283 419 241 419ZM288 650V670H349V650Q349 605 318 575Q287 545 238 545Q189 545 158 575Q127 605 127 650V670H189V650Q189 627 202 613Q215 599 238 599Q260 599 274 613Q288 627 288 650Z" glyph-name="ebreve" horiz-adv-x="475" unicode="&#277;" /><glyph d="M368 674 263 545H215L109 674L149 708L240 627L330 707ZM334 159V167H429V161Q429 84 377.5 37Q326 -10 241 -10Q154 -10 101.5 41.5Q49 93 49 179V305Q49 393 101.5 446Q154 499 241 499Q326 499 377.5 446Q429 393 429 305V228H147V169Q147 125 173 97.5Q199 70 242 70Q285 70 309.5 94Q334 118 334 159ZM241 419Q198 419 172.5 391Q147 363 147 317V299H334V317Q334 363 308.5 391Q283 419 241 419Z" glyph-name="ecaron" horiz-adv-x="475" unicode="&#283;" /><glyph d="M109 578 215 707H263L368 578L329 544L237 625L147 545ZM334 159V167H429V161Q429 84 377.5 37Q326 -10 241 -10Q154 -10 101.5 41.5Q49 93 49 179V305Q49 393 101.5 446Q154 499 241 499Q326 499 377.5 446Q429 393 429 305V228H147V169Q147 125 173 97.5Q199 70 242 70Q285 70 309.5 94Q334 118 334 159ZM241 419Q198 419 172.5 391Q147 363 147 317V299H334V317Q334 363 308.5 391Q283 419 241 419Z" glyph-name="ecircumflex" horiz-adv-x="475" unicode="&#234;" /><glyph d="M177 556Q155 556 139 572Q123 588 123 610Q123 632 138.5 646.5Q154 661 177 661Q198 661 212.5 646.5Q227 632 227 610Q227 587 212.5 571.5Q198 556 177 556ZM304 556Q282 556 267 571.5Q252 587 252 610Q252 632 267 646.5Q282 661 304 661Q326 661 341 646.5Q356 632 356 610Q356 587 341 571.5Q326 556 304 556ZM334 159V167H429V161Q429 84 377.5 37Q326 -10 241 -10Q154 -10 101.5 41.5Q49 93 49 179V305Q49 393 101.5 446Q154 499 241 499Q326 499 377.5 446Q429 393 429 305V228H147V169Q147 125 173 97.5Q199 70 242 70Q285 70 309.5 94Q334 118 334 159ZM241 419Q198 419 172.5 391Q147 363 147 317V299H334V317Q334 363 308.5 391Q283 419 241 419Z" glyph-name="edieresis" horiz-adv-x="475" unicode="&#235;" /><glyph d="M334 159V167H429V161Q429 84 377.5 37Q326 -10 241 -10Q154 -10 101.5 41.5Q49 93 49 179V305Q49 393 101.5 446Q154 499 241 499Q326 499 377.5 446Q429 393 429 305V228H147V169Q147 125 173 97.5Q199 70 242 70Q285 70 309.5 94Q334 118 334 159ZM241 419Q198 419 172.5 391Q147 363 147 317V299H334V317Q334 363 308.5 391Q283 419 241 419ZM238 551Q213 551 196 568.5Q179 586 179 611Q179 636 196 653.5Q213 671 238 671Q263 671 280.5 653.5Q298 636 298 611Q298 586 280.5 568.5Q263 551 238 551Z" glyph-name="edotaccent" horiz-adv-x="475" unicode="&#279;" /><glyph d="M334 159V167H429V161Q429 84 377.5 37Q326 -10 241 -10Q154 -10 101.5 41.5Q49 93 49 179V305Q49 393 101.5 446Q154 499 241 499Q326 499 377.5 446Q429 393 429 305V228H147V169Q147 125 173 97.5Q199 70 242 70Q285 70 309.5 94Q334 118 334 159ZM241 419Q198 419 172.5 391Q147 363 147 317V299H334V317Q334 363 308.5 391Q283 419 241 419ZM286 586 240 545 109 651 174 712Z" glyph-name="egrave" horiz-adv-x="475" unicode="&#232;" /><glyph d="M265 667Q356 667 411 617.5Q466 568 466 487Q466 436 444.5 398Q423 360 384 341Q429 322 453.5 280.5Q478 239 478 182Q478 95 419.5 42.5Q361 -10 265 -10Q169 -10 110.5 42.5Q52 95 52 182Q52 239 76 280Q100 321 145 340Q105 360 84 398Q63 436 63 487Q63 568 118.5 617.5Q174 667 265 667ZM264 299Q212 299 184.5 270Q157 241 157 187Q157 135 185.5 105.5Q214 76 265 76Q316 76 344.5 105.5Q373 135 373 187Q373 240 344.5 269.5Q316 299 264 299ZM264 579Q217 579 191 552.5Q165 526 165 479Q165 430 190.5 403.5Q216 377 265 377Q313 377 338 403.5Q363 430 363 479Q363 526 336.5 552.5Q310 579 264 579Z" glyph-name="eight" horiz-adv-x="529" unicode="8" /><glyph d="M145 333Q192 333 220.5 307.5Q249 282 249 241Q249 216 240 198Q231 180 213 170Q234 161 245 141Q256 121 256 92Q256 48 225.5 21.5Q195 -5 145 -5Q95 -5 65 21.5Q35 48 35 92Q35 121 45.5 140.5Q56 160 77 170Q59 179 49.5 197Q40 215 40 241Q40 282 69 307.5Q98 333 145 333ZM145 142Q126 142 116 130.5Q106 119 106 96Q106 74 116 62.5Q126 51 145 51Q164 51 174.5 63Q185 75 185 96Q185 118 175 130Q165 142 145 142ZM145 275Q128 275 119 265Q110 255 110 236Q110 215 119 204Q128 193 145 193Q162 193 171 204Q180 215 180 236Q180 255 171 265Q162 275 145 275Z" glyph-name="eight.denominator" horiz-adv-x="290" unicode="&#63069;" /><glyph d="M144 183Q191 183 219.5 157.5Q248 132 248 91Q248 66 239 48Q230 30 212 20Q233 11 244 -9Q255 -29 255 -58Q255 -102 224.5 -128.5Q194 -155 144 -155Q94 -155 64 -128.5Q34 -102 34 -58Q34 -29 44.5 -9.5Q55 10 76 20Q58 29 48.5 47Q39 65 39 91Q39 132 68 157.5Q97 183 144 183ZM144 -8Q125 -8 115 -19.5Q105 -31 105 -54Q105 -76 115 -87.5Q125 -99 144 -99Q163 -99 173.5 -87Q184 -75 184 -54Q184 -32 174 -20Q164 -8 144 -8ZM144 125Q127 125 118 115Q109 105 109 86Q109 65 118 54Q127 43 144 43Q161 43 170 54Q179 65 179 86Q179 105 170 115Q161 125 144 125Z" glyph-name="eight.inferior" horiz-adv-x="290" unicode="&#8328;" /><glyph d="M144 662Q191 662 219.5 636.5Q248 611 248 570Q248 545 239 527Q230 509 212 499Q233 490 244 470Q255 450 255 421Q255 377 224.5 350.5Q194 324 144 324Q94 324 64 350.5Q34 377 34 421Q34 450 44.5 469.5Q55 489 76 499Q58 508 48.5 526Q39 544 39 570Q39 611 68 636.5Q97 662 144 662ZM144 471Q125 471 115 459.5Q105 448 105 425Q105 403 115 391.5Q125 380 144 380Q163 380 173.5 392Q184 404 184 425Q184 447 174 459Q164 471 144 471ZM144 604Q127 604 118 594Q109 584 109 565Q109 544 118 533Q127 522 144 522Q161 522 170 533Q179 544 179 565Q179 584 170 594Q161 604 144 604Z" glyph-name="eight.numerator" horiz-adv-x="290" unicode="&#63081;" /><glyph d="M142 813Q189 813 217.5 787.5Q246 762 246 721Q246 696 237 678Q228 660 210 650Q231 641 242 621Q253 601 253 572Q253 528 222.5 501.5Q192 475 142 475Q92 475 62 501.5Q32 528 32 572Q32 601 42.5 620.5Q53 640 74 650Q56 659 46.5 677Q37 695 37 721Q37 762 66 787.5Q95 813 142 813ZM142 622Q123 622 113 610.5Q103 599 103 576Q103 554 113 542.5Q123 531 142 531Q161 531 171.5 543Q182 555 182 576Q182 598 172 610Q162 622 142 622ZM142 755Q125 755 116 745Q107 735 107 716Q107 695 116 684Q125 673 142 673Q159 673 168 684Q177 695 177 716Q177 735 168 745Q159 755 142 755Z" glyph-name="eight.superior" horiz-adv-x="284" unicode="&#8312;" /><glyph d="M271 667Q362 667 417 617.5Q472 568 472 487Q472 436 450.5 398Q429 360 390 341Q435 322 459.5 280.5Q484 239 484 182Q484 95 425.5 42.5Q367 -10 271 -10Q175 -10 116.5 42.5Q58 95 58 182Q58 239 82 280Q106 321 151 340Q111 360 90 398Q69 436 69 487Q69 568 124.5 617.5Q180 667 271 667ZM270 299Q218 299 190.5 270Q163 241 163 187Q163 135 191.5 105.5Q220 76 271 76Q322 76 350.5 105.5Q379 135 379 187Q379 240 350.5 269.5Q322 299 270 299ZM270 579Q223 579 197 552.5Q171 526 171 479Q171 430 196.5 403.5Q222 377 271 377Q319 377 344 403.5Q369 430 369 479Q369 526 342.5 552.5Q316 579 270 579Z" glyph-name="eight.tab" horiz-adv-x="541" unicode="&#65304;" /><glyph d="M112 -10Q87 -10 70 7Q53 24 53 49Q53 74 70 91.5Q87 109 112 109Q138 109 155 92Q172 75 172 49Q172 24 154.5 7Q137 -10 112 -10ZM313 -10Q288 -10 270.5 7Q253 24 253 49Q253 74 270.5 91.5Q288 109 313 109Q338 109 355.5 91.5Q373 74 373 49Q373 24 355.5 7Q338 -10 313 -10ZM513 -10Q488 -10 471 7Q454 24 454 49Q454 74 471 91.5Q488 109 513 109Q539 109 556 92Q573 75 573 49Q573 24 555.5 7Q538 -10 513 -10Z" glyph-name="ellipsis" horiz-adv-x="626" unicode="&#8230;" /><glyph d="M334 159V167H429V161Q429 84 377.5 37Q326 -10 241 -10Q154 -10 101.5 41.5Q49 93 49 179V305Q49 393 101.5 446Q154 499 241 499Q326 499 377.5 446Q429 393 429 305V228H147V169Q147 125 173 97.5Q199 70 242 70Q285 70 309.5 94Q334 118 334 159ZM241 419Q198 419 172.5 391Q147 363 147 317V299H334V317Q334 363 308.5 391Q283 419 241 419ZM358 567H120V639H358Z" glyph-name="emacron" horiz-adv-x="475" unicode="&#275;" /><glyph d="M734 225H63V299H734Z" glyph-name="emdash" horiz-adv-x="797" unicode="&#8212;" /><glyph d="M459 225H63V299H459Z" glyph-name="endash" horiz-adv-x="522" unicode="&#8211;" /><glyph d="M334 159V167H429V161Q429 123 415 91Q401 59 374 34Q336 -1 320 -28.5Q304 -56 304 -84Q304 -107 315.5 -119.5Q327 -132 349 -132H396V-191H337Q293 -191 267.5 -166.5Q242 -142 242 -101Q242 -77 251 -53Q260 -29 277 -7Q269 -9 260 -9.5Q251 -10 241 -10Q154 -10 101.5 41.5Q49 93 49 179V305Q49 393 101.5 446Q154 499 241 499Q326 499 377.5 446Q429 393 429 305V228H147V169Q147 125 173 97.5Q199 70 242 70Q285 70 309.5 94Q334 118 334 159ZM241 419Q198 419 172.5 391Q147 363 147 317V299H334V317Q334 363 308.5 391Q283 419 241 419Z" glyph-name="eogonek" horiz-adv-x="475" unicode="&#281;" /><glyph d="M455 392H66V481H455ZM455 178H66V267H455Z" glyph-name="equal" horiz-adv-x="520" unicode="=" /><glyph d="M384 47Q445 47 499.5 71.5Q554 96 593 141H669Q622 70 546 29.5Q470 -11 384 -11Q243 -11 144 87.5Q45 186 45 327Q45 468 144 567.5Q243 667 384 667Q525 667 624.5 567.5Q724 468 724 327V319H184V133Q223 91 274.5 69Q326 47 384 47ZM384 609Q327 609 275 586Q223 563 184 521V375H585V520Q545 563 493 586Q441 609 384 609Z" glyph-name="estimated" horiz-adv-x="763" unicode="&#8494;" /><glyph d="M423 669V612L371 595Q405 552 421 497.5Q437 443 437 373V184Q437 96 384 43Q331 -10 243 -10Q156 -10 103 43Q50 96 50 184V305Q50 395 96.5 447Q143 499 224 499Q261 499 290 485Q319 471 338 443Q333 482 321 512.5Q309 543 290 569L191 538V594L252 613L194 677H296L331 639ZM243 414Q200 414 174.5 386.5Q149 359 149 313V176Q149 130 174.5 102.5Q200 75 243 75Q286 75 312 103Q338 131 338 176V313Q338 358 312 386Q286 414 243 414Z" glyph-name="eth" horiz-adv-x="497" unicode="&#240;" /><glyph d="M175 657V489L154 178H93L72 489V657ZM123 -10Q98 -10 80 8Q62 26 62 51Q62 77 79.5 95Q97 113 123 113Q149 113 167 95Q185 77 185 51Q185 25 167 7.5Q149 -10 123 -10Z" glyph-name="exclam" horiz-adv-x="247" unicode="!" /><glyph d="M169 -168V0L148 311H87L66 0V-168ZM117 499Q92 499 74 481Q56 463 56 438Q56 412 73.5 394Q91 376 117 376Q143 376 161 394Q179 412 179 438Q179 464 161 481.5Q143 499 117 499Z" glyph-name="exclamdown" horiz-adv-x="235" unicode="&#161;" /><glyph d="M101 402H28V485H101V505Q101 589 145 633Q189 677 274 677H320V592H283Q242 592 221 571.5Q200 551 200 511V485H314V402H200V0H101Z" glyph-name="f" horiz-adv-x="336" unicode="f" /><glyph d="M387 402H200V0H101V402H28V485H101V505Q101 589 145 633Q189 677 274 677H320V592H283Q242 592 221 571.5Q200 551 200 511V485H387V505Q387 589 431 633Q475 677 560 677H606V592H569Q528 592 507 571.5Q486 551 486 511V485H600V402H486V0H387Z" glyph-name="f_f" horiz-adv-x="622" unicode="&#64256;" /><glyph d="M101 402H28V485H101V505Q101 589 145 633Q189 677 274 677H320V592H283Q242 592 221 571.5Q200 551 200 511V485H387V505Q387 589 431.5 633Q476 677 560 677H768V592H569Q528 592 507.5 571.5Q487 551 487 511V485H768V0H668V402H487V0H387V402H200V0H101Z" glyph-name="f_f_i" horiz-adv-x="833" unicode="&#64259;" /><glyph d="M387 402H200V0H101V402H28V485H101V505Q101 589 145 633Q189 677 274 677H320V592H283Q242 592 221 571.5Q200 551 200 511V485H387V505Q387 589 431.5 633Q476 677 560 677H768V0H668V592H569Q528 592 507.5 571.5Q487 551 487 511V485H596V402H487V0H387Z" glyph-name="f_f_l" horiz-adv-x="836" unicode="&#64260;" /><glyph d="M496 677V592H283Q242 592 221 571.5Q200 551 200 511V485H496V0H396V402H200V0H101V402H28V485H101V505Q101 589 145 633Q189 677 274 677Z" glyph-name="fi" horiz-adv-x="561" unicode="&#64257;" /><glyph d="M71 657H444V566H166V375Q188 392 216.5 400.5Q245 409 280 409Q369 409 421.5 353.5Q474 298 474 204Q474 106 416.5 48Q359 -10 262 -10Q167 -10 109 37Q51 84 51 163V178H151V163Q151 124 180 101Q209 78 258 78Q311 78 339.5 111Q368 144 368 203Q368 260 340.5 292Q313 324 262 324Q231 324 207 315Q183 306 159 285H71Z" glyph-name="five" horiz-adv-x="517" unicode="5" /><glyph d="M43 328H240V268H106V193Q116 202 129.5 206Q143 210 160 210Q204 210 230 181.5Q256 153 256 105Q256 54 226.5 24.5Q197 -5 146 -5Q96 -5 65.5 19Q35 43 35 84V92H103V86Q103 70 113.5 61.5Q124 53 143 53Q162 53 173 66.5Q184 80 184 103Q184 127 174 140Q164 153 144 153Q133 153 124.5 149.5Q116 146 104 136H43Z" glyph-name="five.denominator" horiz-adv-x="286" unicode="&#63066;" /><glyph d="M42 178H239V118H105V43Q115 52 128.5 56Q142 60 159 60Q203 60 229 31.5Q255 3 255 -45Q255 -96 225.5 -125.5Q196 -155 145 -155Q95 -155 64.5 -131Q34 -107 34 -66V-58H102V-64Q102 -80 112.5 -88.5Q123 -97 142 -97Q161 -97 172 -83.5Q183 -70 183 -47Q183 -23 173 -10Q163 3 143 3Q132 3 123.5 -0.5Q115 -4 103 -14H42Z" glyph-name="five.inferior" horiz-adv-x="285" unicode="&#8325;" /><glyph d="M42 657H239V597H105V522Q115 531 128.5 535Q142 539 159 539Q203 539 229 510.5Q255 482 255 434Q255 383 225.5 353.5Q196 324 145 324Q95 324 64.5 348Q34 372 34 413V421H102V415Q102 399 112.5 390.5Q123 382 142 382Q161 382 172 395.5Q183 409 183 432Q183 456 173 469Q163 482 143 482Q132 482 123.5 478.5Q115 475 103 465H42Z" glyph-name="five.numerator" horiz-adv-x="285" unicode="&#63078;" /><glyph d="M40 808H237V748H103V673Q113 682 126.5 686Q140 690 157 690Q201 690 227 661.5Q253 633 253 585Q253 534 223.5 504.5Q194 475 143 475Q93 475 62.5 499Q32 523 32 564V572H100V566Q100 550 110.5 541.5Q121 533 140 533Q159 533 170 546.5Q181 560 181 583Q181 607 171 620Q161 633 141 633Q130 633 121.5 629.5Q113 626 101 616H40Z" glyph-name="five.superior" horiz-adv-x="282" unicode="&#8309;" /><glyph d="M82 657H455V566H177V375Q199 392 227.5 400.5Q256 409 291 409Q380 409 432.5 353.5Q485 298 485 204Q485 106 427.5 48Q370 -10 273 -10Q178 -10 120 37Q62 84 62 163V178H162V163Q162 124 191 101Q220 78 269 78Q322 78 350.5 111Q379 144 379 203Q379 260 351.5 292Q324 324 273 324Q242 324 218 315Q194 306 170 285H82Z" glyph-name="five.tab" horiz-adv-x="541" unicode="&#65301;" /><glyph d="M101 402H28V485H101V505Q101 589 145 633Q189 677 274 677H496V0H396V592H283Q242 592 221 571.5Q200 551 200 511V485H310V402H200V0H101Z" glyph-name="fl" horiz-adv-x="564" unicode="&#64258;" /><glyph d="M154 291H80V375H154V494Q154 578 198 622Q242 666 327 666H373V581H336Q295 581 274 560.5Q253 540 253 500V375H367V291H253V-15Q253 -99 208.5 -143Q164 -187 80 -187H34V-102H71Q112 -102 133 -81.5Q154 -61 154 -21Z" glyph-name="florin" horiz-adv-x="415" unicode="&#402;" /><glyph d="M33 245 314 657H439V235H511V147H439V0H337V147H33ZM337 539 129 235H337Z" glyph-name="four" horiz-adv-x="547" unicode="4" /><glyph d="M21 134 156 328H239V126H273V67H239V0H168V67H21ZM168 246 85 126H168Z" glyph-name="four.denominator" horiz-adv-x="301" unicode="&#63065;" /><glyph d="M21 -16 156 178H239V-24H273V-83H239V-150H168V-83H21ZM168 96 85 -24H168Z" glyph-name="four.inferior" horiz-adv-x="301" unicode="&#8324;" /><glyph d="M21 463 156 657H239V455H273V396H239V329H168V396H21ZM168 575 85 455H168Z" glyph-name="four.numerator" horiz-adv-x="301" unicode="&#63077;" /><glyph d="M20 614 155 808H238V606H272V547H238V480H167V547H20ZM167 726 84 606H167Z" glyph-name="four.superior" horiz-adv-x="298" unicode="&#8308;" /><glyph d="M29 245 310 657H435V235H507V147H435V0H333V147H29ZM333 539 125 235H333Z" glyph-name="four.tab" horiz-adv-x="541" unicode="&#65300;" /><glyph d="M-166 0 29 329 216 657H297L102 328L-85 0Z" glyph-name="fraction" horiz-adv-x="130" unicode="&#8260;" /><glyph d="M52 429H114V657H502V564H217V429H384V353H217V287H384V211H217V0H114V211H52V287H114V353H52Z" glyph-name="franc" horiz-adv-x="537" unicode="&#8355;" /><glyph d="M219 9Q140 9 95.5 58.5Q51 108 51 195V313Q51 400 95.5 449.5Q140 499 219 499Q259 499 291 483.5Q323 468 344 439L354 489H436V-21Q436 -102 384.5 -149.5Q333 -197 246 -197Q162 -197 110 -155Q58 -113 58 -44V-41H154V-49Q154 -80 178.5 -98.5Q203 -117 245 -117Q289 -117 313 -92.5Q337 -68 337 -25V60Q316 35 285.5 22Q255 9 219 9ZM241 96Q284 96 310.5 124.5Q337 153 337 197V311Q337 355 310.5 383.5Q284 412 241 412Q199 412 175 385.5Q151 359 151 315V193Q151 149 175 122.5Q199 96 241 96Z" glyph-name="g" horiz-adv-x="502" unicode="g" /><glyph d="M219 9Q140 9 95.5 58.5Q51 108 51 195V313Q51 400 95.5 449.5Q140 499 219 499Q259 499 291 483.5Q323 468 344 439L354 489H436V-21Q436 -102 384.5 -149.5Q333 -197 246 -197Q162 -197 110 -155Q58 -113 58 -44V-41H154V-49Q154 -80 178.5 -98.5Q203 -117 245 -117Q289 -117 313 -92.5Q337 -68 337 -25V60Q316 35 285.5 22Q255 9 219 9ZM241 96Q284 96 310.5 124.5Q337 153 337 197V311Q337 355 310.5 383.5Q284 412 241 412Q199 412 175 385.5Q151 359 151 315V193Q151 149 175 122.5Q199 96 241 96ZM294 650V670H355V650Q355 605 324 575Q293 545 244 545Q195 545 164 575Q133 605 133 650V670H195V650Q195 627 208 613Q221 599 244 599Q266 599 280 613Q294 627 294 650Z" glyph-name="gbreve" horiz-adv-x="502" unicode="&#287;" /><glyph d="M115 578 221 707H269L374 578L335 544L243 625L153 545ZM219 9Q140 9 95.5 58.5Q51 108 51 195V313Q51 400 95.5 449.5Q140 499 219 499Q259 499 291 483.5Q323 468 344 439L354 489H436V-21Q436 -102 384.5 -149.5Q333 -197 246 -197Q162 -197 110 -155Q58 -113 58 -44V-41H154V-49Q154 -80 178.5 -98.5Q203 -117 245 -117Q289 -117 313 -92.5Q337 -68 337 -25V60Q316 35 285.5 22Q255 9 219 9ZM241 96Q284 96 310.5 124.5Q337 153 337 197V311Q337 355 310.5 383.5Q284 412 241 412Q199 412 175 385.5Q151 359 151 315V193Q151 149 175 122.5Q199 96 241 96Z" glyph-name="gcircumflex" horiz-adv-x="502" unicode="&#285;" /><glyph d="M219 9Q140 9 95.5 58.5Q51 108 51 195V313Q51 400 95.5 449.5Q140 499 219 499Q259 499 291 483.5Q323 468 344 439L354 489H436V-21Q436 -102 384.5 -149.5Q333 -197 246 -197Q162 -197 110 -155Q58 -113 58 -44V-41H154V-49Q154 -80 178.5 -98.5Q203 -117 245 -117Q289 -117 313 -92.5Q337 -68 337 -25V60Q316 35 285.5 22Q255 9 219 9ZM241 96Q284 96 310.5 124.5Q337 153 337 197V311Q337 355 310.5 383.5Q284 412 241 412Q199 412 175 385.5Q151 359 151 315V193Q151 149 175 122.5Q199 96 241 96ZM244 551Q219 551 202 568.5Q185 586 185 611Q185 636 202 653.5Q219 671 244 671Q269 671 286.5 653.5Q304 636 304 611Q304 586 286.5 568.5Q269 551 244 551Z" glyph-name="gdotaccent" horiz-adv-x="502" unicode="&#289;" /><glyph d="M261 0H228V83H249Q302 83 332.5 114Q363 145 363 197Q363 250 333 281.5Q303 313 253 313H228V394H243Q291 394 319.5 421.5Q348 449 348 496Q348 542 324 567.5Q300 593 256 593Q209 593 186.5 567.5Q164 542 164 489V0H66V483Q66 576 116 626.5Q166 677 257 677Q345 677 397.5 630Q450 583 450 506Q450 453 425 415.5Q400 378 352 358V357Q407 338 436.5 294.5Q466 251 466 189Q466 104 409.5 52Q353 0 261 0Z" glyph-name="germandbls" horiz-adv-x="509" unicode="&#223;" /><glyph d="M197 586 151 545 20 651 85 712Z" glyph-name="grave" horiz-adv-x="217" unicode="`" /><glyph d="M197 736 151 694 20 800 85 862Z" glyph-name="grave.case" horiz-adv-x="217" /><glyph d="M63 509 440 370V279L63 139V230L323 321L63 414Z" glyph-name="greater" horiz-adv-x="483" unicode="&gt;" /><glyph d="M66 105H455V171H66ZM66 207 455 326V406L66 525V439L337 369L66 297Z" glyph-name="greaterequal" horiz-adv-x="519" unicode="&#8805;" /><glyph d="M302 398H229L172 233L229 68H302L257 233ZM183 398H109L49 233L109 68H183L134 233Z" glyph-name="guillemotleft" horiz-adv-x="358" unicode="&#171;" /><glyph d="M56 398H129L186 233L129 68H56L101 233ZM175 398H249L309 233L249 68H175L224 233Z" glyph-name="guillemotright" horiz-adv-x="358" unicode="&#187;" /><glyph d="M207 398H124L47 233L124 68H207L142 233Z" glyph-name="guilsinglleft" horiz-adv-x="260" unicode="&#8249;" /><glyph d="M53 398H136L213 233L136 68H53L118 233Z" glyph-name="guilsinglright" horiz-adv-x="260" unicode="&#8250;" /><glyph d="M166 311V0H66V677H166V446Q187 472 218 485.5Q249 499 286 499Q364 499 407.5 451Q451 403 451 319V0H352V315Q352 359 327.5 385.5Q303 412 261 412Q218 412 192 384Q166 356 166 311Z" glyph-name="h" horiz-adv-x="513" unicode="h" /><glyph d="M261 412Q218 412 192 384Q166 356 166 311V0H66V546H7V608H66V677H166V608H273V546H166V446Q187 472 218 485.5Q249 499 286 499Q364 499 407.5 451Q451 403 451 319V0H352V315Q352 359 327.5 385.5Q303 412 261 412Z" glyph-name="hbar" horiz-adv-x="513" unicode="&#295;" /><glyph d="M-14 729 92 858H140L245 729L206 695L114 776L24 696ZM166 311V0H66V677H166V446Q187 472 218 485.5Q249 499 286 499Q364 499 407.5 451Q451 403 451 319V0H352V315Q352 359 327.5 385.5Q303 412 261 412Q218 412 192 384Q166 356 166 311Z" glyph-name="hcircumflex" horiz-adv-x="513" unicode="&#293;" /><glyph d="M127 708 182 659 58 546 20 579ZM262 706 313 652 183 545 149 582Z" glyph-name="hungarumlaut" horiz-adv-x="333" unicode="&#733;" /><glyph d="M127 857 182 808 58 694 20 728ZM262 854 313 801 183 693 149 730Z" glyph-name="hungarumlaut.case" horiz-adv-x="333" /><glyph d="M300 216H63V305H300Z" glyph-name="hyphen" horiz-adv-x="363" unicode="-" /><glyph d="M165 99H44V159H165Z" glyph-name="hyphen.denominator" horiz-adv-x="208" unicode="&#63019;" /><glyph d="M165 428H44V488H165Z" glyph-name="hyphen.numerator" horiz-adv-x="208" unicode="&#63024;" /><glyph d="M116 566Q91 566 74 583Q57 600 57 625Q57 650 74 667Q91 684 116 684Q141 684 158 667Q175 650 175 625Q175 600 158 583Q141 566 116 566ZM66 0V489H166V0Z" glyph-name="i" horiz-adv-x="232" unicode="i" /><glyph d="M181 712 245 651 114 545 68 586ZM66 0V489H166V0Z" glyph-name="iacute" horiz-adv-x="232" unicode="&#237;" /><glyph d="M-13 578 93 707H141L246 578L207 544L115 625L25 545ZM66 0V489H166V0Z" glyph-name="icircumflex" horiz-adv-x="232" unicode="&#238;" /><glyph d="M53 556Q31 556 15 572Q-1 588 -1 610Q-1 632 14.5 646.5Q30 661 53 661Q74 661 88.5 646.5Q103 632 103 610Q103 587 88.5 571.5Q74 556 53 556ZM180 556Q158 556 143 571.5Q128 587 128 610Q128 632 143 646.5Q158 661 180 661Q202 661 217 646.5Q232 632 232 610Q232 587 217 571.5Q202 556 180 556ZM66 0V489H166V0Z" glyph-name="idieresis" horiz-adv-x="232" unicode="&#239;" /><glyph d="M66 0V489H166V0ZM162 586 116 545 -15 651 50 712Z" glyph-name="igrave" horiz-adv-x="232" unicode="&#236;" /><glyph d="M116 566Q91 566 74 583Q57 600 57 625Q57 650 74 667Q91 684 116 684Q141 684 158 667Q175 650 175 625Q175 600 158 583Q141 566 116 566ZM66 0V489H166V0ZM192 -197V-112H214Q258 -112 281 -89.5Q304 -67 304 -25V489H404V-19Q404 -105 357 -151Q310 -197 224 -197ZM353 566Q328 566 311 583Q294 600 294 625Q294 650 311 667Q328 684 353 684Q378 684 395 667Q412 650 412 625Q412 600 395 583Q378 566 353 566Z" glyph-name="ij" horiz-adv-x="469" unicode="&#307;" /><glyph d="M66 0V489H166V0ZM235 567H-3V639H235Z" glyph-name="imacron" horiz-adv-x="232" unicode="&#299;" /><glyph d="M565 424Q630 424 673.5 380Q717 336 717 269Q717 205 671 160Q625 115 560 115Q521 115 483.5 135Q446 155 384 211Q332 162 288 139Q244 116 204 116Q139 116 96 159.5Q53 203 53 270Q53 334 98 379.5Q143 425 208 425Q247 425 286 404.5Q325 384 385 328Q438 378 481.5 401Q525 424 565 424ZM208 342Q177 342 156.5 321Q136 300 136 270Q136 239 155 219Q174 199 204 199Q230 199 259 215Q288 231 326 268H325V269Q281 313 256.5 327.5Q232 342 208 342ZM634 269Q634 300 614.5 320.5Q595 341 565 341Q539 341 510.5 325Q482 309 444 272L443 271Q487 227 512 212.5Q537 198 561 198Q592 198 613 218.5Q634 239 634 269Z" glyph-name="infinity" horiz-adv-x="769" unicode="&#8734;" /><glyph d="M872 217H807L706 424V0H611V657H695L841 353L983 657H1069V0H969V420ZM276 259H186V0H83V657H269Q365 657 425.5 603Q486 549 486 461Q486 398 459 351.5Q432 305 380 279L488 0H376ZM381 461Q381 508 349.5 536Q318 564 265 564H186V352H265Q319 352 350 381.5Q381 411 381 461Z" glyph-name="integral" horiz-adv-x="1140" unicode="&#8747;" /><glyph d="M116 566Q91 566 74 583Q57 600 57 625Q57 650 74 667Q91 684 116 684Q141 684 158 667Q175 650 175 625Q175 600 158 583Q141 566 116 566ZM98 -132H145V-191H85Q41 -191 16 -170Q-9 -149 -9 -114Q-9 -81 11.5 -50.5Q32 -20 66 0V489H166V0H128Q91 -23 72 -47.5Q53 -72 53 -97Q53 -113 65 -122.5Q77 -132 98 -132Z" glyph-name="iogonek" horiz-adv-x="232" unicode="&#303;" /><glyph d="M66 0V489H166V0ZM187 618Q202 618 210.5 631.5Q219 645 219 666H271Q272 661 272 656Q272 651 272 642Q272 599 251.5 575Q231 551 194 551Q179 551 163.5 555.5Q148 560 133 569L91 590Q80 596 72 599Q64 602 56 602Q37 602 26.5 586.5Q16 571 16 553H-37Q-38 564 -39 570.5Q-40 577 -40 579Q-40 619 -15 644.5Q10 670 49 670Q62 670 76 666.5Q90 663 104 655L145 634Q168 622 175 620Q182 618 187 618Z" glyph-name="itilde" horiz-adv-x="232" unicode="&#297;" /><glyph d="M-46 -197V-112H-24Q20 -112 43 -89.5Q66 -67 66 -25V489H166V-19Q166 -105 119 -151Q72 -197 -14 -197ZM115 566Q90 566 73 583Q56 600 56 625Q56 650 73 667Q90 684 115 684Q140 684 157 667Q174 650 174 625Q174 600 157 583Q140 566 115 566Z" glyph-name="j" horiz-adv-x="232" unicode="j" /><glyph d="M-13 578 93 707H141L246 578L207 544L115 625L25 545ZM-46 -197V-112H-24Q20 -112 43 -89.5Q66 -67 66 -25V489H166V-19Q166 -105 119 -151Q72 -197 -14 -197Z" glyph-name="jcircumflex" horiz-adv-x="232" unicode="&#309;" /><glyph d="M66 0V677H166V278L345 489H455L298 302L463 0H352L230 225L166 149V0Z" glyph-name="k" horiz-adv-x="478" unicode="k" /><glyph d="M66 0V489H166V279L343 489H455L298 302L463 0H352L230 225L166 149V0Z" glyph-name="kgreenlandic" horiz-adv-x="478" unicode="&#312;" /><glyph d="M69 0V677H168V0Z" glyph-name="l" horiz-adv-x="237" unicode="l" /><glyph d="M184 871 248 809 117 703 71 745ZM69 0V677H168V0Z" glyph-name="lacute" horiz-adv-x="237" unicode="&#314;" /><glyph d="M213 533 235 677H328L269 533ZM69 0V677H168V0Z" glyph-name="lcaron" horiz-adv-x="237" unicode="&#318;" /><glyph d="M69 0V677H168V0ZM283 292Q257 292 239 310Q221 328 221 353Q221 379 239 397Q257 415 283 415Q309 415 327 397Q345 379 345 353Q345 328 327 310Q309 292 283 292Z" glyph-name="ldot" horiz-adv-x="333" unicode="&#320;" /><glyph d="M420 141 43 280V371L420 511V420L160 329L420 236Z" glyph-name="less" horiz-adv-x="483" unicode="&lt;" /><glyph d="M453 105H64V171H453ZM453 207 64 326V406L453 525V439L182 369L453 297Z" glyph-name="lessequal" horiz-adv-x="519" unicode="&#8804;" /><glyph d="M363 192H217V90H514V0H53V90H115V192H53V257H115V323H53V388H115V462Q115 555 170 611Q225 667 316 667Q404 667 457.5 612.5Q511 558 511 468V447H412V468Q412 517 386.5 546Q361 575 316 575Q270 575 243.5 544.5Q217 514 217 462V388H363V323H217V257H363Z" glyph-name="lira" horiz-adv-x="565" unicode="&#8356;" /><glyph d="M356 283H60V372H455V139H356Z" glyph-name="logicalnot" horiz-adv-x="523" unicode="&#172;" /><glyph d="M285 677V592H248Q207 592 186.5 572Q166 552 166 511V0H66V505Q66 589 110.5 633Q155 677 239 677Z" glyph-name="longs" horiz-adv-x="252" unicode="&#383;" /><glyph d="M285 677V592H248Q207 592 186.5 572Q166 552 166 511V0H66V505Q66 589 110.5 633Q155 677 239 677ZM347 402H260V485H347V619H446V485H534V402H446V0H347Z" glyph-name="longs_t" horiz-adv-x="559" unicode="&#64261;" /><glyph d="M333 402H260V485H333V619H432V485H547V402H432V163Q432 127 454 106Q476 85 515 85H547V0H506Q424 0 378.5 44Q333 88 333 169ZM285 677V592H248Q207 592 186.5 572Q166 552 166 511V0H66V505Q66 589 110.5 633Q155 677 239 677Z" glyph-name="longs_t.alt" horiz-adv-x="574" /><glyph d="M221 673H299L490 329L299 -16H221L30 329ZM381 329 259 554 137 329 259 103Z" glyph-name="lozenge" horiz-adv-x="520" unicode="&#9674;" /><glyph d="M249 465V374L185 338V0H86V283L21 247V337L86 373V677H185V429Z" glyph-name="lslash" horiz-adv-x="269" unicode="&#322;" /><glyph d="M166 313V0H66V489H149L158 437Q179 467 211.5 483Q244 499 284 499Q334 499 370.5 477.5Q407 456 426 416Q445 455 481 477Q517 499 564 499Q640 499 683 451Q726 403 726 319V0H627V315Q627 359 603.5 385.5Q580 412 539 412Q498 412 472.5 385Q447 358 446 316V0H346V315Q346 359 322.5 385.5Q299 412 259 412Q218 412 192 384Q166 356 166 313Z" glyph-name="m" horiz-adv-x="788" unicode="m" /><glyph d="M258 567H20V639H258Z" glyph-name="macron" horiz-adv-x="278" unicode="&#175;" /><glyph d="M258 726H20V798H258Z" glyph-name="macron.case" horiz-adv-x="278" /><glyph d="M460 285H66V374H460Z" glyph-name="minus" horiz-adv-x="526" unicode="&#8722;" /><glyph d="M606 564H112V657H606ZM309 356 277 179Q260 88 205.5 39Q151 -10 66 -10H45V83H70Q112 83 139 108Q166 133 174 178L205 356H42V449H676V356H496V130Q496 107 506.5 97.5Q517 88 543 88H563Q589 88 599.5 97.5Q610 107 610 130V179L706 165V108Q706 53 669 24Q632 -5 560 -5H543Q469 -5 431 23.5Q393 52 393 106V356Z" glyph-name="mu" horiz-adv-x="748" unicode="&#181;" /><glyph d="M116 157 50 223 156 327 51 433 116 498 221 393 327 499 392 434 286 328 393 221 328 156 221 262Z" glyph-name="multiply" horiz-adv-x="442" unicode="&#215;" /><glyph d="M166 311V0H66V489H149L158 437Q180 467 213 483Q246 499 286 499Q364 499 407.5 451Q451 403 451 319V0H352V315Q352 359 327.5 385.5Q303 412 261 412Q218 412 192 384Q166 356 166 311Z" glyph-name="n" horiz-adv-x="513" unicode="n" /><glyph d="M325 712 389 651 258 545 212 586ZM166 311V0H66V489H149L158 437Q180 467 213 483Q246 499 286 499Q364 499 407.5 451Q451 403 451 319V0H352V315Q352 359 327.5 385.5Q303 412 261 412Q218 412 192 384Q166 356 166 311Z" glyph-name="nacute" horiz-adv-x="513" unicode="&#324;" /><glyph d="M-2 500 35 677H141L62 500ZM192 311V0H92V489H175L184 437Q206 467 239 483Q272 499 312 499Q390 499 433.5 451Q477 403 477 319V0H378V315Q378 359 353.5 385.5Q329 412 287 412Q244 412 218 384Q192 356 192 311Z" glyph-name="napostrophe" horiz-adv-x="540" unicode="&#329;" /><glyph d="M388 674 283 545H235L129 674L169 708L260 627L350 707ZM166 311V0H66V489H149L158 437Q180 467 213 483Q246 499 286 499Q364 499 407.5 451Q451 403 451 319V0H352V315Q352 359 327.5 385.5Q303 412 261 412Q218 412 192 384Q166 356 166 311Z" glyph-name="ncaron" horiz-adv-x="513" unicode="&#328;" /><glyph d="M242 262Q153 262 101 316.5Q49 371 49 463Q49 557 107 612Q165 667 263 667Q360 667 416 607Q472 547 472 442V199Q472 102 415.5 46Q359 -10 260 -10Q168 -10 112.5 40Q57 90 57 173V183H157V172Q157 130 184.5 104.5Q212 79 259 79Q311 79 340 108.5Q369 138 369 190V306Q343 284 310.5 273Q278 262 242 262ZM155 467Q155 411 182.5 379.5Q210 348 260 348Q292 348 318.5 359.5Q345 371 369 398V442Q369 506 341 542.5Q313 579 263 579Q212 579 183.5 549.5Q155 520 155 467Z" glyph-name="nine" horiz-adv-x="534" unicode="9" /><glyph d="M129 128Q84 128 58 155.5Q32 183 32 230Q32 278 62 305.5Q92 333 143 333Q195 333 224.5 303Q254 273 254 219V105Q254 53 224.5 24Q195 -5 142 -5Q94 -5 65 20.5Q36 46 36 88V93H104V90Q104 74 114 64.5Q124 55 141 55Q161 55 172 66.5Q183 78 183 100V144Q172 136 158 132Q144 128 129 128ZM104 232Q104 209 114 197Q124 185 143 185Q155 185 165 189Q175 193 183 201V218Q183 246 173 260.5Q163 275 144 275Q125 275 114.5 264Q104 253 104 232Z" glyph-name="nine.denominator" horiz-adv-x="292" unicode="&#63070;" /><glyph d="M128 -22Q83 -22 57 5.5Q31 33 31 80Q31 128 61 155.5Q91 183 142 183Q194 183 223.5 153Q253 123 253 69V-45Q253 -97 223.5 -126Q194 -155 141 -155Q93 -155 64 -129.5Q35 -104 35 -62V-57H103V-60Q103 -76 113 -85.5Q123 -95 140 -95Q160 -95 171 -83.5Q182 -72 182 -50V-6Q171 -14 157 -18Q143 -22 128 -22ZM103 82Q103 59 113 47Q123 35 142 35Q154 35 164 39Q174 43 182 51V68Q182 96 172 110.5Q162 125 143 125Q124 125 113.5 114Q103 103 103 82Z" glyph-name="nine.inferior" horiz-adv-x="292" unicode="&#8329;" /><glyph d="M128 457Q83 457 57 484.5Q31 512 31 559Q31 607 61 634.5Q91 662 142 662Q194 662 223.5 632Q253 602 253 548V434Q253 382 223.5 353Q194 324 141 324Q93 324 64 349.5Q35 375 35 417V422H103V419Q103 403 113 393.5Q123 384 140 384Q160 384 171 395.5Q182 407 182 429V473Q171 465 157 461Q143 457 128 457ZM103 561Q103 538 113 526Q123 514 142 514Q154 514 164 518Q174 522 182 530V547Q182 575 172 589.5Q162 604 143 604Q124 604 113.5 593Q103 582 103 561Z" glyph-name="nine.numerator" horiz-adv-x="292" unicode="&#63082;" /><glyph d="M127 608Q82 608 56 635.5Q30 663 30 710Q30 758 60 785.5Q90 813 141 813Q193 813 222.5 783Q252 753 252 699V585Q252 533 222.5 504Q193 475 140 475Q92 475 63 500.5Q34 526 34 568V573H102V570Q102 554 112 544.5Q122 535 139 535Q159 535 170 546.5Q181 558 181 580V624Q170 616 156 612Q142 608 127 608ZM102 712Q102 689 112 677Q122 665 141 665Q153 665 163 669Q173 673 181 681V698Q181 726 171 740.5Q161 755 142 755Q123 755 112.5 744Q102 733 102 712Z" glyph-name="nine.superior" horiz-adv-x="287" unicode="&#8313;" /><glyph d="M245 262Q156 262 104 316.5Q52 371 52 463Q52 557 110 612Q168 667 266 667Q363 667 419 607Q475 547 475 442V199Q475 102 418.5 46Q362 -10 263 -10Q171 -10 115.5 40Q60 90 60 173V183H160V172Q160 130 187.5 104.5Q215 79 262 79Q314 79 343 108.5Q372 138 372 190V306Q346 284 313.5 273Q281 262 245 262ZM158 467Q158 411 185.5 379.5Q213 348 263 348Q295 348 321.5 359.5Q348 371 372 398V442Q372 506 344 542.5Q316 579 266 579Q215 579 186.5 549.5Q158 520 158 467Z" glyph-name="nine.tab" horiz-adv-x="541" unicode="&#65305;" /><glyph d="M251 381H66V465H290L338 562H409L361 465H455V381H322L272 278H455V195H233L185 97H114L162 195H66V278H201Z" glyph-name="notequal" horiz-adv-x="522" unicode="&#8800;" /><glyph d="M166 311V0H66V489H149L158 437Q180 467 213 483Q246 499 286 499Q364 499 407.5 451Q451 403 451 319V0H352V315Q352 359 327.5 385.5Q303 412 261 412Q218 412 192 384Q166 356 166 311ZM330 618Q345 618 353.5 631.5Q362 645 362 666H414Q415 661 415 656Q415 651 415 642Q415 599 394.5 575Q374 551 337 551Q322 551 306.5 555.5Q291 560 276 569L234 590Q223 596 215 599Q207 602 199 602Q180 602 169.5 586.5Q159 571 159 553H106Q105 564 104 570.5Q103 577 103 579Q103 619 128 644.5Q153 670 192 670Q205 670 219 666.5Q233 663 247 655L288 634Q311 622 318 620Q325 618 330 618Z" glyph-name="ntilde" horiz-adv-x="513" unicode="&#241;" /><glyph d="M460 657H536L505 489H614V422H492L458 235H584V168H445L414 0H338L369 168H228L197 0H121L152 168H43V235H164L199 422H73V489H212L243 657H319L288 489H429ZM416 422H275L241 235H381Z" glyph-name="numbersign" horiz-adv-x="657" unicode="#" /><glyph d="M243 414Q200 414 174.5 386.5Q149 359 149 313V176Q149 130 174.5 102.5Q200 75 243 75Q286 75 311.5 102.5Q337 130 337 176V313Q337 359 311.5 386.5Q286 414 243 414ZM243 499Q331 499 384 446Q437 393 437 305V184Q437 96 384 43Q331 -10 243 -10Q155 -10 102 43Q49 96 49 184V305Q49 393 102 446Q155 499 243 499Z" glyph-name="o" horiz-adv-x="486" unicode="o" /><glyph d="M308 712 372 651 241 545 195 586ZM243 414Q200 414 174.5 386.5Q149 359 149 313V176Q149 130 174.5 102.5Q200 75 243 75Q286 75 311.5 102.5Q337 130 337 176V313Q337 359 311.5 386.5Q286 414 243 414ZM243 499Q331 499 384 446Q437 393 437 305V184Q437 96 384 43Q331 -10 243 -10Q155 -10 102 43Q49 96 49 184V305Q49 393 102 446Q155 499 243 499Z" glyph-name="oacute" horiz-adv-x="486" unicode="&#243;" /><glyph d="M243 414Q200 414 174.5 386.5Q149 359 149 313V176Q149 130 174.5 102.5Q200 75 243 75Q286 75 311.5 102.5Q337 130 337 176V313Q337 359 311.5 386.5Q286 414 243 414ZM243 499Q331 499 384 446Q437 393 437 305V184Q437 96 384 43Q331 -10 243 -10Q155 -10 102 43Q49 96 49 184V305Q49 393 102 446Q155 499 243 499ZM293 650V670H354V650Q354 605 323 575Q292 545 243 545Q194 545 163 575Q132 605 132 650V670H194V650Q194 627 207 613Q220 599 243 599Q265 599 279 613Q293 627 293 650Z" glyph-name="obreve" horiz-adv-x="486" unicode="&#335;" /><glyph d="M113 578 219 707H267L372 578L333 544L241 625L151 545ZM243 414Q200 414 174.5 386.5Q149 359 149 313V176Q149 130 174.5 102.5Q200 75 243 75Q286 75 311.5 102.5Q337 130 337 176V313Q337 359 311.5 386.5Q286 414 243 414ZM243 499Q331 499 384 446Q437 393 437 305V184Q437 96 384 43Q331 -10 243 -10Q155 -10 102 43Q49 96 49 184V305Q49 393 102 446Q155 499 243 499Z" glyph-name="ocircumflex" horiz-adv-x="486" unicode="&#244;" /><glyph d="M180 556Q158 556 142 572Q126 588 126 610Q126 632 141.5 646.5Q157 661 180 661Q201 661 215.5 646.5Q230 632 230 610Q230 587 215.5 571.5Q201 556 180 556ZM307 556Q285 556 270 571.5Q255 587 255 610Q255 632 270 646.5Q285 661 307 661Q329 661 344 646.5Q359 632 359 610Q359 587 344 571.5Q329 556 307 556ZM243 414Q200 414 174.5 386.5Q149 359 149 313V176Q149 130 174.5 102.5Q200 75 243 75Q286 75 311.5 102.5Q337 130 337 176V313Q337 359 311.5 386.5Q286 414 243 414ZM243 499Q331 499 384 446Q437 393 437 305V184Q437 96 384 43Q331 -10 243 -10Q155 -10 102 43Q49 96 49 184V305Q49 393 102 446Q155 499 243 499Z" glyph-name="odieresis" horiz-adv-x="486" unicode="&#246;" /><glyph d="M622 159V167H717V161Q717 84 665.5 37Q614 -10 529 -10Q482 -10 445 9Q408 28 386 64Q363 28 326 9Q289 -10 243 -10Q155 -10 102 43Q49 96 49 184V305Q49 393 102 446Q155 499 243 499Q290 499 327 479.5Q364 460 387 423Q409 460 446 479.5Q483 499 529 499Q614 499 665.5 446Q717 393 717 305V228H435V169Q435 125 461 97.5Q487 70 530 70Q573 70 597.5 94Q622 118 622 159ZM243 414Q200 414 174.5 386.5Q149 359 149 313V176Q149 130 174.5 102.5Q200 75 243 75Q286 75 311.5 102.5Q337 130 337 176V313Q337 359 311.5 386.5Q286 414 243 414ZM529 419Q486 419 460.5 391Q435 363 435 317V299H622V317Q622 363 596.5 391Q571 419 529 419Z" glyph-name="oe" horiz-adv-x="763" unicode="&#339;" /><glyph d="M108 -97Q108 -113 120 -122.5Q132 -132 153 -132H200V-191H140Q96 -191 71 -170Q46 -149 46 -114Q46 -76 72 -42Q98 -8 138 9L183 0Q146 -23 127 -47.5Q108 -72 108 -97Z" glyph-name="ogonek" horiz-adv-x="252" unicode="&#731;" /><glyph d="M243 414Q200 414 174.5 386.5Q149 359 149 313V176Q149 130 174.5 102.5Q200 75 243 75Q286 75 311.5 102.5Q337 130 337 176V313Q337 359 311.5 386.5Q286 414 243 414ZM243 499Q331 499 384 446Q437 393 437 305V184Q437 96 384 43Q331 -10 243 -10Q155 -10 102 43Q49 96 49 184V305Q49 393 102 446Q155 499 243 499ZM288 586 242 545 111 651 176 712Z" glyph-name="ograve" horiz-adv-x="486" unicode="&#242;" /><glyph d="M239 708 294 659 170 546 132 579ZM374 706 425 652 295 545 261 582ZM243 414Q200 414 174.5 386.5Q149 359 149 313V176Q149 130 174.5 102.5Q200 75 243 75Q286 75 311.5 102.5Q337 130 337 176V313Q337 359 311.5 386.5Q286 414 243 414ZM243 499Q331 499 384 446Q437 393 437 305V184Q437 96 384 43Q331 -10 243 -10Q155 -10 102 43Q49 96 49 184V305Q49 393 102 446Q155 499 243 499Z" glyph-name="ohungarumlaut" horiz-adv-x="486" unicode="&#337;" /><glyph d="M362 567H124V639H362ZM243 414Q200 414 174.5 386.5Q149 359 149 313V176Q149 130 174.5 102.5Q200 75 243 75Q286 75 311.5 102.5Q337 130 337 176V313Q337 359 311.5 386.5Q286 414 243 414ZM243 499Q331 499 384 446Q437 393 437 305V184Q437 96 384 43Q331 -10 243 -10Q155 -10 102 43Q49 96 49 184V305Q49 393 102 446Q155 499 243 499Z" glyph-name="omacron" horiz-adv-x="486" unicode="&#333;" /><glyph d="M164 565H49V657H267V91H385V0H49V91H164Z" glyph-name="one" horiz-adv-x="414" unicode="1" /><glyph d="M89 266H33V328H159V60H217V0H33V60H89Z" glyph-name="one.denominator" horiz-adv-x="236" unicode="&#63062;" /><glyph d="M88 116H32V178H158V-90H216V-150H32V-90H88Z" glyph-name="one.inferior" horiz-adv-x="235" unicode="&#8321;" /><glyph d="M88 595H32V657H158V389H216V329H32V389H88Z" glyph-name="one.numerator" horiz-adv-x="234" unicode="&#63074;" /><glyph d="M230 565H90V657H333V91H469V0H90V91H230Z" glyph-name="one.tab" horiz-adv-x="541" unicode="&#65297;" /><glyph d="M603 0H382V34Q382 70 395 96Q408 122 433 139L494 179Q512 191 521 205Q530 219 530 236Q530 252 520.5 261Q511 270 493 270Q474 270 463.5 260Q453 250 453 232V224H385V233Q385 277 415.5 305Q446 333 495 333Q545 333 574 307.5Q603 282 603 239Q603 205 588.5 180Q574 155 540 133L486 98Q476 91 469.5 81.5Q463 72 462 64H603ZM105 595H49V657H175V389H233V329H49V389H105ZM101 0 296 329 483 657H564L369 328L182 0Z" glyph-name="onehalf" horiz-adv-x="651" unicode="&#189;" /><glyph d="M351 134 486 328H569V126H603V67H569V0H498V67H351ZM498 246 415 126H498ZM106 595H50V657H176V389H234V329H50V389H106ZM102 0 297 329 484 657H565L370 328L183 0Z" glyph-name="onequarter" horiz-adv-x="645" unicode="&#188;" /><glyph d="M87 748H31V810H157V542H215V482H31V542H87Z" glyph-name="onesuperior" horiz-adv-x="232" unicode="&#185;" /><glyph d="M135 407Q96 407 74.5 432.5Q53 458 53 503V566Q53 611 74.5 636.5Q96 662 135 662Q154 662 168.5 655Q183 648 193 635L197 657H256V412H197L193 434Q183 421 168 414Q153 407 135 407ZM154 466Q170 466 179.5 476.5Q189 487 189 504V566Q189 582 179 593Q169 604 154 604Q139 604 130 593.5Q121 583 121 566V504Q121 486 129.5 476Q138 466 154 466Z" glyph-name="ordfeminine" horiz-adv-x="319" unicode="&#170;" /><glyph d="M153 605Q137 605 128 594.5Q119 584 119 567V501Q119 484 128 474Q137 464 153 464Q169 464 178 474Q187 484 187 501V567Q187 584 177.5 594.5Q168 605 153 605ZM153 661Q199 661 227 634Q255 607 255 562V506Q255 462 227 434.5Q199 407 153 407Q107 407 79 434Q51 461 51 506V562Q51 607 79 634Q107 661 153 661Z" glyph-name="ordmasculine" horiz-adv-x="306" unicode="&#186;" /><glyph d="M243 -10Q217 -10 194 -5Q171 0 150 10L119 -49H57L105 41Q78 66 63.5 102.5Q49 139 49 184V305Q49 393 102 446Q155 499 243 499Q267 499 290.5 494Q314 489 335 480L367 539H429L382 448Q409 422 423 385.5Q437 349 437 305V184Q437 96 384 43Q331 -10 243 -10ZM146 315V174Q146 163 148 151.5Q150 140 154 130L297 402Q286 410 272.5 413.5Q259 417 243 417Q199 417 172.5 389Q146 361 146 315ZM339 174V315Q339 327 337 338Q335 349 332 357L189 87Q201 80 214.5 76.5Q228 73 243 73Q287 73 313 100.5Q339 128 339 174Z" glyph-name="oslash" horiz-adv-x="486" unicode="&#248;" /><glyph d="M243 414Q200 414 174.5 386.5Q149 359 149 313V176Q149 130 174.5 102.5Q200 75 243 75Q286 75 311.5 102.5Q337 130 337 176V313Q337 359 311.5 386.5Q286 414 243 414ZM243 499Q331 499 384 446Q437 393 437 305V184Q437 96 384 43Q331 -10 243 -10Q155 -10 102 43Q49 96 49 184V305Q49 393 102 446Q155 499 243 499ZM313 618Q328 618 336.5 631.5Q345 645 345 666H397Q398 661 398 656Q398 651 398 642Q398 599 377.5 575Q357 551 320 551Q305 551 289.5 555.5Q274 560 259 569L217 590Q206 596 198 599Q190 602 182 602Q163 602 152.5 586.5Q142 571 142 553H89Q88 564 87 570.5Q86 577 86 579Q86 619 111 644.5Q136 670 175 670Q188 670 202 666.5Q216 663 230 655L271 634Q294 622 301 620Q308 618 313 618Z" glyph-name="otilde" horiz-adv-x="486" unicode="&#245;" /><glyph d="M66 489H149L158 439Q179 468 211.5 483.5Q244 499 284 499Q362 499 406.5 449Q451 399 451 313V176Q451 90 406.5 40Q362 -10 284 -10Q247 -10 216.5 3.5Q186 17 166 42V-187H66ZM261 412Q218 412 192 384Q166 356 166 311V179Q166 134 192 105.5Q218 77 261 77Q303 77 327.5 103.5Q352 130 352 174V315Q352 359 327.5 385.5Q303 412 261 412Z" glyph-name="p" horiz-adv-x="502" unicode="p" /><glyph d="M351 568H286V206H266Q161 206 98.5 267Q36 328 36 432Q36 533 104 595Q172 657 281 657H454V-111H351Z" glyph-name="paragraph" horiz-adv-x="533" unicode="&#182;" /><glyph d="M259 -19H269V-111H260Q166 -111 115 -60Q64 -9 64 84V570Q64 663 115 714Q166 765 260 765H269V673H259Q214 673 190.5 648Q167 623 167 576V78Q167 31 190.5 6Q214 -19 259 -19Z" glyph-name="parenleft" horiz-adv-x="309" unicode="(" /><glyph d="M154 7H159V-56H154Q100 -56 71 -27Q42 2 42 54V273Q42 325 71 353.5Q100 382 154 382H159V320H154Q134 320 123 308.5Q112 297 112 276V51Q112 30 123 18.5Q134 7 154 7Z" glyph-name="parenleft.denominator" horiz-adv-x="186" unicode="&#63020;" /><glyph d="M153 -143H158V-206H153Q99 -206 70 -177Q41 -148 41 -96V123Q41 175 70 203.5Q99 232 153 232H158V170H153Q133 170 122 158.5Q111 147 111 126V-99Q111 -120 122 -131.5Q133 -143 153 -143Z" glyph-name="parenleft.inferior" horiz-adv-x="185" unicode="&#8333;" /><glyph d="M153 336H158V273H153Q99 273 70 302Q41 331 41 383V602Q41 654 70 682.5Q99 711 153 711H158V649H153Q133 649 122 637.5Q111 626 111 605V380Q111 359 122 347.5Q133 336 153 336Z" glyph-name="parenleft.numerator" horiz-adv-x="185" unicode="&#63025;" /><glyph d="M150 487H155V424H150Q96 424 67 453Q38 482 38 534V753Q38 805 67 833.5Q96 862 150 862H155V800H150Q130 800 119 788.5Q108 777 108 756V531Q108 510 119 498.5Q130 487 150 487Z" glyph-name="parenleft.superior" horiz-adv-x="180" unicode="&#8317;" /><glyph d="M50 -19H40V-111H49Q143 -111 194 -60Q245 -9 245 84V570Q245 663 194 714Q143 765 49 765H40V673H50Q95 673 118.5 648Q142 623 142 576V78Q142 31 118.5 6Q95 -19 50 -19Z" glyph-name="parenright" horiz-adv-x="309" unicode=")" /><glyph d="M33 7H28V-56H33Q86 -56 115.5 -27Q145 2 145 54V273Q145 325 115.5 353.5Q86 382 33 382H28V320H33Q52 320 63 308.5Q74 297 74 276V51Q74 30 63.5 18.5Q53 7 33 7Z" glyph-name="parenright.denominator" horiz-adv-x="186" unicode="&#63021;" /><glyph d="M33 -143H28V-206H33Q86 -206 115.5 -177Q145 -148 145 -96V123Q145 175 115.5 203.5Q86 232 33 232H28V170H33Q52 170 63 158.5Q74 147 74 126V-99Q74 -120 63.5 -131.5Q53 -143 33 -143Z" glyph-name="parenright.inferior" horiz-adv-x="185" unicode="&#8334;" /><glyph d="M33 336H28V273H33Q86 273 115.5 302Q145 331 145 383V602Q145 654 115.5 682.5Q86 711 33 711H28V649H33Q52 649 63 637.5Q74 626 74 605V380Q74 359 63.5 347.5Q53 336 33 336Z" glyph-name="parenright.numerator" horiz-adv-x="185" unicode="&#63026;" /><glyph d="M31 487H26V424H31Q84 424 113.5 453Q143 482 143 534V753Q143 805 113.5 833.5Q84 862 31 862H26V800H31Q50 800 61 788.5Q72 777 72 756V531Q72 510 61.5 498.5Q51 487 31 487Z" glyph-name="parenright.superior" horiz-adv-x="180" unicode="&#8318;" /><glyph d="M276 259H186V0H83V657H269Q365 657 425.5 603Q486 549 486 461Q486 398 459 351.5Q432 305 380 279L488 0H376ZM381 461Q381 508 349.5 536Q318 564 265 564H186V352H265Q319 352 350 381.5Q381 411 381 461ZM787 -10Q758 -10 734 -0.5Q710 9 688 29V-187H589V489H671L680 446Q702 473 729 486Q756 499 791 499Q861 499 900 455.5Q939 412 939 334V158Q939 80 898 35Q857 -10 787 -10ZM767 412Q731 412 709.5 393Q688 374 688 343V146Q688 115 709.5 96Q731 77 767 77Q801 77 820.5 97.5Q840 118 840 153V339Q840 373 821 392.5Q802 412 767 412Z" glyph-name="partialdiff" horiz-adv-x="985" unicode="&#8706;" /><glyph d="M165 605Q143 605 129.5 590.5Q116 576 116 553V442Q116 419 129.5 404.5Q143 390 165 390Q187 390 200.5 404.5Q214 419 214 442V553Q214 576 200.5 590.5Q187 605 165 605ZM165 667Q219 667 251.5 635.5Q284 604 284 553V442Q284 391 251.5 359.5Q219 328 165 328Q111 328 78.5 359.5Q46 391 46 442V553Q46 604 78.5 635.5Q111 667 165 667ZM86 0 281 329 468 657H549L354 328L167 0ZM470 267Q448 267 434.5 252.5Q421 238 421 215V104Q421 81 434.5 66.5Q448 52 470 52Q492 52 505.5 66.5Q519 81 519 104V215Q519 238 505.5 252.5Q492 267 470 267ZM470 329Q524 329 556.5 297.5Q589 266 589 215V104Q589 53 556.5 21.5Q524 -10 470 -10Q416 -10 383.5 21.5Q351 53 351 104V215Q351 266 383.5 297.5Q416 329 470 329Z" glyph-name="percent" horiz-adv-x="635" unicode="%" /><glyph d="M114 -10Q88 -10 70 8Q52 26 52 51Q52 77 70 95Q88 113 114 113Q140 113 158 95Q176 77 176 51Q176 26 158 8Q140 -10 114 -10Z" glyph-name="period" horiz-adv-x="228" unicode="." /><glyph d="M68 -7Q52 -7 40.5 4.5Q29 16 29 32Q29 49 40.5 60Q52 71 68 71Q85 71 96 60Q107 49 107 32Q107 16 96 4.5Q85 -7 68 -7Z" glyph-name="period.denominator" horiz-adv-x="137" unicode="&#63072;" /><glyph d="M68 322Q52 322 40.5 333.5Q29 345 29 361Q29 378 40.5 389Q52 400 68 400Q85 400 96 389Q107 378 107 361Q107 345 96 333.5Q85 322 68 322Z" glyph-name="period.numerator" horiz-adv-x="138" unicode="&#63084;" /><glyph d="M118 215Q92 215 74 233Q56 251 56 276Q56 302 74 320Q92 338 118 338Q144 338 162 320Q180 302 180 276Q180 251 162 233Q144 215 118 215Z" glyph-name="periodcentered" horiz-adv-x="235" unicode="&#183;" /><glyph d="M166 605Q144 605 130.5 590.5Q117 576 117 553V442Q117 419 130.5 404.5Q144 390 166 390Q189 390 202 404Q215 418 215 442V553Q215 577 202 591Q189 605 166 605ZM166 667Q220 667 252.5 635.5Q285 604 285 553V442Q285 391 252.5 359.5Q220 328 166 328Q112 328 79.5 359.5Q47 391 47 442V553Q47 604 79.5 635.5Q112 667 166 667ZM87 0 282 329 469 657H550L356 328L168 0ZM471 267Q449 267 435.5 252.5Q422 238 422 215V104Q422 81 435.5 66.5Q449 52 471 52Q494 52 507 66Q520 80 520 104V215Q520 239 507 253Q494 267 471 267ZM471 329Q525 329 557.5 297.5Q590 266 590 215V104Q590 53 557.5 21.5Q525 -10 471 -10Q417 -10 384.5 21.5Q352 53 352 104V215Q352 266 384.5 297.5Q417 329 471 329ZM755 267Q733 267 719.5 252.5Q706 238 706 215V104Q706 81 719.5 66.5Q733 52 755 52Q778 52 791 66Q804 80 804 104V215Q804 239 791 253Q778 267 755 267ZM755 329Q809 329 841.5 297.5Q874 266 874 215V104Q874 53 841.5 21.5Q809 -10 755 -10Q701 -10 668.5 21.5Q636 53 636 104V215Q636 266 668.5 297.5Q701 329 755 329Z" glyph-name="perthousand" horiz-adv-x="916" unicode="&#8240;" /><glyph d="M182 0H79V657H295Q394 657 457 598.5Q520 540 520 446Q520 349 457.5 289Q395 229 295 229H182ZM415 444Q415 500 380 533Q345 566 287 566H182V319H287Q345 319 380 353Q415 387 415 444ZM826 139V154H919V136Q919 104 944 85Q969 66 1012 66Q1055 66 1078 83.5Q1101 101 1101 133Q1101 157 1088 171Q1075 185 1044 194L954 222Q897 240 868 274Q839 308 839 357Q839 417 887.5 458.5Q936 500 1009 500Q1092 500 1141 461Q1190 422 1190 355V345H1097V358Q1097 388 1073.5 406Q1050 424 1011 424Q976 424 953.5 408Q931 392 931 365Q931 344 943.5 331Q956 318 984 310L1060 287Q1135 263 1165 229.5Q1195 196 1195 143Q1195 73 1145.5 31Q1096 -11 1014 -11Q930 -11 878 30Q826 71 826 139ZM640 402H553V485H640V619H739V485H827V402H739V0H640Z" glyph-name="peseta" horiz-adv-x="1242" unicode="&#8359;" /><glyph d="M515 0H415V401H210V0H110V401H24V489H600V401H515Z" glyph-name="pi" horiz-adv-x="625" unicode="&#960;" /><glyph d="M193 515H290V372H439V283H290V139H193V283H44V372H193Z" glyph-name="plus" horiz-adv-x="483" unicode="+" /><glyph d="M215 529H309V406H459V334H309V211H215V334H64V406H215ZM454 105H64V172H454Z" glyph-name="plusminus" horiz-adv-x="521" unicode="&#177;" /><glyph d="M78 657H517V0H413V564H181V0H78Z" glyph-name="product" horiz-adv-x="594" unicode="&#8719;" /><glyph d="M436 489H354L344 439Q323 468 291 483.5Q259 499 219 499Q140 499 95.5 449.5Q51 400 51 313V176Q51 89 95.5 39.5Q140 -10 219 -10Q255 -10 285.5 3.5Q316 17 337 42V-187H436ZM241 412Q284 412 310.5 383.5Q337 355 337 311V179Q337 134 310.5 105.5Q284 77 241 77Q199 77 175 103.5Q151 130 151 174V315Q151 359 175 385.5Q199 412 241 412Z" glyph-name="q" horiz-adv-x="502" unicode="q" /><glyph d="M278 210 274 178H193L188 214Q185 241 190.5 264.5Q196 288 213 311Q220 322 229.5 333Q239 344 283 387Q321 425 331.5 445.5Q342 466 342 489Q342 529 315.5 551.5Q289 574 243 574Q193 574 165 548Q137 522 137 477V452H37V477Q37 562 94.5 614.5Q152 667 245 667Q337 667 392.5 619.5Q448 572 448 492Q448 452 429 415.5Q410 379 363 334Q341 313 327 299.5Q313 286 308 280Q295 263 287.5 246Q280 229 278 210ZM234 -10Q209 -10 191 7.5Q173 25 173 50Q173 76 191 93.5Q209 111 234 111Q259 111 276.5 93.5Q294 76 294 50Q294 25 276.5 7.5Q259 -10 234 -10Z" glyph-name="question" horiz-adv-x="486" unicode="?" /><glyph d="M205 279 209 311H290L295 275Q298 248 292.5 224.5Q287 201 270 178Q263 167 253.5 156Q244 145 200 102Q162 64 151.5 43.5Q141 23 141 0Q141 -40 167.5 -62.5Q194 -85 240 -85Q290 -85 318 -59Q346 -33 346 12V37H446V12Q446 -73 388.5 -125.5Q331 -178 238 -178Q146 -178 90.5 -130.5Q35 -83 35 -3Q35 37 54 73.5Q73 110 120 155Q142 176 156 189.5Q170 203 175 209Q188 226 195.5 243Q203 260 205 279ZM249 499Q274 499 292 481.5Q310 464 310 439Q310 413 292 395.5Q274 378 249 378Q224 378 206.5 395.5Q189 413 189 439Q189 464 206.5 481.5Q224 499 249 499Z" glyph-name="questiondown" horiz-adv-x="481" unicode="&#191;" /><glyph d="M57 586V657H153V586Q153 567 149 532.5Q145 498 141 473L135 427H75L68 473Q62 520 59.5 546Q57 572 57 586ZM203 586V657H298V586Q298 572 295.5 546Q293 520 287 473L280 427H220L214 473Q210 494 206.5 530Q203 566 203 586Z" glyph-name="quotedbl" horiz-adv-x="355" unicode="&quot;" /><glyph d="M31 -94 74 102H180L94 -94ZM163 -94 217 102H323L226 -94Z" glyph-name="quotedblbase" horiz-adv-x="375" unicode="&#8222;" /><glyph d="M332 657 289 461H183L269 657ZM200 657 146 461H40L137 657Z" glyph-name="quotedblleft" horiz-adv-x="374" unicode="&#8220;" /><glyph d="M47 461 91 657H196L111 461ZM179 461 234 657H339L243 461Z" glyph-name="quotedblright" horiz-adv-x="369" unicode="&#8221;" /><glyph d="M191 657 148 461H41L126 657Z" glyph-name="quoteleft" horiz-adv-x="233" unicode="&#8216;" /><glyph d="M47 461 91 657H197L112 461Z" glyph-name="quoteright" horiz-adv-x="229" unicode="&#8217;" /><glyph d="M31 -94 74 102H181L95 -94Z" glyph-name="quotesinglbase" horiz-adv-x="233" unicode="&#8218;" /><glyph d="M57 586V657H156V586Q156 567 152 532.5Q148 498 144 473L138 427H75L68 473Q62 520 59.5 546Q57 572 57 586Z" glyph-name="quotesingle" horiz-adv-x="213" unicode="'" /><glyph d="M166 303V0H66V489H149L159 431Q179 463 210.5 481Q242 499 280 499Q291 499 296.5 498.5Q302 498 307 496V402Q295 404 286.5 405Q278 406 271 406Q224 406 195 378Q166 350 166 303Z" glyph-name="r" horiz-adv-x="327" unicode="r" /><glyph d="M239 712 303 651 172 545 126 586ZM166 303V0H66V489H149L159 431Q179 463 210.5 481Q242 499 280 499Q291 499 296.5 498.5Q302 498 307 496V402Q295 404 286.5 405Q278 406 271 406Q224 406 195 378Q166 350 166 303Z" glyph-name="racute" horiz-adv-x="327" unicode="&#341;" /><glyph d="M554 0H470L420 243H312L262 0H178L125 243H35V305H111L98 367H35V429H84L34 657H127L171 429H279L326 657H410L457 429H565L610 657H698L648 429H704V367H634L621 305H704V243H607ZM366 502 351 429H381ZM184 367 196 305H254L267 367ZM338 367 325 305H407L394 367ZM469 367 482 305H541L553 367ZM241 243H208L224 159ZM529 243H495L512 158Z" glyph-name="radical" horiz-adv-x="738" unicode="&#8730;" /><glyph d="M295 674 190 545H142L36 674L76 708L167 627L257 707ZM166 303V0H66V489H149L159 431Q179 463 210.5 481Q242 499 280 499Q291 499 296.5 498.5Q302 498 307 496V402Q295 404 286.5 405Q278 406 271 406Q224 406 195 378Q166 350 166 303Z" glyph-name="rcaron" horiz-adv-x="327" unicode="&#345;" /><glyph d="M262 244Q174 244 112.5 305.5Q51 367 51 455Q51 543 112.5 605Q174 667 262 667Q350 667 412 605Q474 543 474 455Q474 367 412 305.5Q350 244 262 244ZM262 620Q195 620 148 572Q101 524 101 455Q101 386 148 338Q195 290 262 290Q329 290 376 338Q423 386 423 455Q423 523 376 571.5Q329 620 262 620ZM319 435 355 344H299L269 425H231V344H181V565H274Q310 565 332.5 546Q355 527 355 496Q355 477 345.5 461Q336 445 319 435ZM301 495Q301 509 292.5 516.5Q284 524 268 524H231V464H268Q284 464 292.5 472.5Q301 481 301 495Z" glyph-name="registered" horiz-adv-x="525" unicode="&#174;" /><glyph d="M77 628Q77 606 90 591.5Q103 577 123 577Q144 577 157 591Q170 605 170 628Q170 650 157 663.5Q144 677 123 677Q103 677 90 663.5Q77 650 77 628ZM227 628Q227 585 197.5 556.5Q168 528 123 528Q78 528 49 556.5Q20 585 20 628Q20 670 49 698.5Q78 727 123 727Q168 727 197.5 698.5Q227 670 227 628Z" glyph-name="ring" horiz-adv-x="247" unicode="&#730;" /><glyph d="M77 787Q77 765 90 751Q103 737 123 737Q144 737 157 751Q170 765 170 787Q170 809 157 823Q144 837 123 837Q103 837 90 823Q77 809 77 787ZM227 787Q227 745 197.5 716.5Q168 688 123 688Q78 688 49 716.5Q20 745 20 787Q20 830 49.5 858.5Q79 887 123 887Q168 887 197.5 858Q227 829 227 787Z" glyph-name="ring.case" horiz-adv-x="247" /><glyph d="M872 217H807L706 424V0H611V657H695L841 353L983 657H1069V0H969V420ZM276 259H186V0H83V657H269Q365 657 425.5 603Q486 549 486 461Q486 398 459 351.5Q432 305 380 279L488 0H376ZM381 461Q381 508 349.5 536Q318 564 265 564H186V352H265Q319 352 350 381.5Q381 411 381 461Z" glyph-name="ringgit" horiz-adv-x="1140" /><glyph d="M276 259H186V0H83V657H269Q365 657 425.5 603Q486 549 486 461Q486 398 459 351.5Q432 305 380 279L488 0H376ZM381 461Q381 508 349.5 536Q318 564 265 564H186V352H265Q319 352 350 381.5Q381 411 381 461ZM787 -10Q758 -10 734 -0.5Q710 9 688 29V-187H589V489H671L680 446Q702 473 729 486Q756 499 791 499Q861 499 900 455.5Q939 412 939 334V158Q939 80 898 35Q857 -10 787 -10ZM767 412Q731 412 709.5 393Q688 374 688 343V146Q688 115 709.5 96Q731 77 767 77Q801 77 820.5 97.5Q840 118 840 153V339Q840 373 821 392.5Q802 412 767 412Z" glyph-name="rupee" horiz-adv-x="985" unicode="&#8360;" /><glyph d="M276 259H186V0H83V657H269Q365 657 425.5 603Q486 549 486 461Q486 398 459 351.5Q432 305 380 279L488 0H376ZM381 461Q381 508 349.5 536Q318 564 265 564H186V352H265Q319 352 350 381.5Q381 411 381 461ZM787 -10Q758 -10 734 -0.5Q710 9 688 29V-187H589V489H671L680 446Q702 473 729 486Q756 499 791 499Q861 499 900 455.5Q939 412 939 334V158Q939 80 898 35Q857 -10 787 -10ZM767 412Q731 412 709.5 393Q688 374 688 343V146Q688 115 709.5 96Q731 77 767 77Q801 77 820.5 97.5Q840 118 840 153V339Q840 373 821 392.5Q802 412 767 412Z" glyph-name="rupiah" horiz-adv-x="985" /><glyph d="M38 139V154H131V136Q131 104 156 85Q181 66 224 66Q267 66 290 83.5Q313 101 313 133Q313 157 300 171Q287 185 256 194L166 222Q109 240 80 274Q51 308 51 357Q51 417 99.5 458.5Q148 500 221 500Q304 500 353 461Q402 422 402 355V345H309V358Q309 388 285.5 406Q262 424 223 424Q188 424 165.5 408Q143 392 143 365Q143 344 155.5 331Q168 318 196 310L272 287Q347 263 377 229.5Q407 196 407 143Q407 73 357.5 31Q308 -11 226 -11Q142 -11 90 30Q38 71 38 139Z" glyph-name="s" horiz-adv-x="450" unicode="s" /><glyph d="M287 712 351 651 220 545 174 586ZM38 139V154H131V136Q131 104 156 85Q181 66 224 66Q267 66 290 83.5Q313 101 313 133Q313 157 300 171Q287 185 256 194L166 222Q109 240 80 274Q51 308 51 357Q51 417 99.5 458.5Q148 500 221 500Q304 500 353 461Q402 422 402 355V345H309V358Q309 388 285.5 406Q262 424 223 424Q188 424 165.5 408Q143 392 143 365Q143 344 155.5 331Q168 318 196 310L272 287Q347 263 377 229.5Q407 196 407 143Q407 73 357.5 31Q308 -11 226 -11Q142 -11 90 30Q38 71 38 139Z" glyph-name="sacute" horiz-adv-x="450" unicode="&#347;" /><glyph d="M352 674 247 545H199L93 674L133 708L224 627L314 707ZM38 139V154H131V136Q131 104 156 85Q181 66 224 66Q267 66 290 83.5Q313 101 313 133Q313 157 300 171Q287 185 256 194L166 222Q109 240 80 274Q51 308 51 357Q51 417 99.5 458.5Q148 500 221 500Q304 500 353 461Q402 422 402 355V345H309V358Q309 388 285.5 406Q262 424 223 424Q188 424 165.5 408Q143 392 143 365Q143 344 155.5 331Q168 318 196 310L272 287Q347 263 377 229.5Q407 196 407 143Q407 73 357.5 31Q308 -11 226 -11Q142 -11 90 30Q38 71 38 139Z" glyph-name="scaron" horiz-adv-x="450" unicode="&#353;" /><glyph d="M321 -114Q321 -147 299 -167Q277 -187 240 -187H135V-135H233Q245 -135 251 -129.5Q257 -124 257 -114Q257 -104 250.5 -98.5Q244 -93 233 -93H178L159 -79L180 -7Q115 4 77 43Q39 82 39 139V154H132V136Q132 104 157 85Q182 66 225 66Q268 66 291 83.5Q314 101 314 133Q314 157 301 171Q288 185 257 194L167 222Q110 240 81 274Q52 308 52 357Q52 417 100.5 458.5Q149 500 222 500Q305 500 354 461Q403 422 403 355V345H310V358Q310 388 286.5 406Q263 424 224 424Q189 424 166.5 408Q144 392 144 365Q144 344 156.5 331Q169 318 197 310L273 287Q348 263 378 229.5Q408 196 408 143Q408 76 362 34Q316 -8 238 -11L228 -43H240Q279 -43 300 -61.5Q321 -80 321 -114Z" glyph-name="scedilla" horiz-adv-x="450" unicode="&#351;" /><glyph d="M93 578 199 707H247L352 578L313 544L221 625L131 545ZM38 139V154H131V136Q131 104 156 85Q181 66 224 66Q267 66 290 83.5Q313 101 313 133Q313 157 300 171Q287 185 256 194L166 222Q109 240 80 274Q51 308 51 357Q51 417 99.5 458.5Q148 500 221 500Q304 500 353 461Q402 422 402 355V345H309V358Q309 388 285.5 406Q262 424 223 424Q188 424 165.5 408Q143 392 143 365Q143 344 155.5 331Q168 318 196 310L272 287Q347 263 377 229.5Q407 196 407 143Q407 73 357.5 31Q308 -11 226 -11Q142 -11 90 30Q38 71 38 139Z" glyph-name="scircumflex" horiz-adv-x="450" unicode="&#349;" /><glyph d="M459 226V207L192 313Q122 341 88 384Q54 427 54 487Q54 566 109.5 616.5Q165 667 253 667Q345 667 401 615Q457 563 457 477V464H360V484Q360 530 331.5 557Q303 584 254 584Q206 584 178 560.5Q150 537 150 497Q150 467 168 442.5Q186 418 218 406L350 351Q413 325 436 297Q459 269 459 226ZM54 244V263L322 156Q391 129 425 86Q459 43 459 -17Q459 -96 403.5 -147Q348 -198 260 -198Q168 -198 112 -146Q56 -94 56 -8V6H153V-15Q153 -60 181.5 -87Q210 -114 259 -114Q308 -114 335.5 -90.5Q363 -67 363 -27Q363 3 345 27Q327 51 295 64L163 119Q100 144 77 172Q54 200 54 244Z" glyph-name="section" horiz-adv-x="513" unicode="&#167;" /><glyph d="M41 -94 84 102H191L106 -94ZM136 376Q111 376 93 394Q75 412 75 437Q75 463 92.5 481Q110 499 136 499Q162 499 180 481Q198 463 198 437Q198 411 180 393.5Q162 376 136 376Z" glyph-name="semicolon" horiz-adv-x="261" unicode=";" /><glyph d="M315 566H33V657H429V580L203 0H93Z" glyph-name="seven" horiz-adv-x="457" unicode="7" /><glyph d="M150 268H21V328H227V275L121 0H45Z" glyph-name="seven.denominator" horiz-adv-x="247" unicode="&#63068;" /><glyph d="M150 118H21V178H227V125L121 -150H45Z" glyph-name="seven.inferior" horiz-adv-x="247" unicode="&#8327;" /><glyph d="M150 597H21V657H227V604L121 329H45Z" glyph-name="seven.numerator" horiz-adv-x="246" unicode="&#63080;" /><glyph d="M148 748H19V808H225V755L119 480H43Z" glyph-name="seven.superior" horiz-adv-x="244" unicode="&#8311;" /><glyph d="M370 566H59V657H484V580L244 0H134Z" glyph-name="seven.tab" horiz-adv-x="541" unicode="&#65303;" /><glyph d="M292 395Q381 395 433 340.5Q485 286 485 194Q485 99 427.5 44.5Q370 -10 272 -10Q175 -10 118.5 47.5Q62 105 62 204V458Q62 555 118.5 611Q175 667 274 667Q366 667 421.5 617Q477 567 477 484V474H377V485Q377 527 349.5 552.5Q322 578 275 578Q223 578 194 548.5Q165 519 165 467V350Q189 372 222 383.5Q255 395 292 395ZM379 190Q379 245 352 277Q325 309 275 309Q241 309 214.5 297Q188 285 165 259V204Q165 145 193.5 111.5Q222 78 273 78Q323 78 351 107.5Q379 137 379 190Z" glyph-name="six" horiz-adv-x="534" unicode="6" /><glyph d="M164 200Q209 200 235 172.5Q261 145 261 98Q261 50 231.5 22.5Q202 -5 151 -5Q99 -5 69.5 22.5Q40 50 40 100V223Q40 275 69.5 304Q99 333 151 333Q199 333 228 307.5Q257 282 257 240V235H189V239Q189 254 179 263.5Q169 273 152 273Q132 273 121 261.5Q110 250 110 228V183Q122 191 135.5 195.5Q149 200 164 200ZM189 96Q189 119 179 131Q169 143 150 143Q138 143 128 139Q118 135 110 127V101Q110 77 120 65Q130 53 149 53Q168 53 178.5 64Q189 75 189 96Z" glyph-name="six.denominator" horiz-adv-x="293" unicode="&#63067;" /><glyph d="M164 50Q209 50 235 22.5Q261 -5 261 -52Q261 -100 231.5 -127.5Q202 -155 151 -155Q99 -155 69.5 -127.5Q40 -100 40 -50V73Q40 125 69.5 154Q99 183 151 183Q199 183 228 157.5Q257 132 257 90V85H189V89Q189 104 179 113.5Q169 123 152 123Q132 123 121 111.5Q110 100 110 78V33Q122 41 135.5 45.5Q149 50 164 50ZM189 -54Q189 -31 179 -19Q169 -7 150 -7Q138 -7 128 -11Q118 -15 110 -23V-49Q110 -73 120 -85Q130 -97 149 -97Q168 -97 178.5 -86Q189 -75 189 -54Z" glyph-name="six.inferior" horiz-adv-x="293" unicode="&#8326;" /><glyph d="M164 529Q209 529 235 501.5Q261 474 261 427Q261 379 231.5 351.5Q202 324 151 324Q99 324 69.5 351.5Q40 379 40 429V552Q40 604 69.5 633Q99 662 151 662Q199 662 228 636.5Q257 611 257 569V564H189V568Q189 583 179 592.5Q169 602 152 602Q132 602 121 590.5Q110 579 110 557V512Q122 520 135.5 524.5Q149 529 164 529ZM189 425Q189 448 179 460Q169 472 150 472Q138 472 128 468Q118 464 110 456V430Q110 406 120 394Q130 382 149 382Q168 382 178.5 393Q189 404 189 425Z" glyph-name="six.numerator" horiz-adv-x="293" unicode="&#63079;" /><glyph d="M161 680Q206 680 232 652.5Q258 625 258 578Q258 530 228.5 502.5Q199 475 148 475Q96 475 66.5 502.5Q37 530 37 580V703Q37 755 66.5 784Q96 813 148 813Q196 813 225 787.5Q254 762 254 720V715H186V719Q186 734 176 743.5Q166 753 149 753Q129 753 118 741.5Q107 730 107 708V663Q119 671 132.5 675.5Q146 680 161 680ZM186 576Q186 599 176 611Q166 623 147 623Q135 623 125 619Q115 615 107 607V581Q107 557 117 545Q127 533 146 533Q165 533 175.5 544Q186 555 186 576Z" glyph-name="six.superior" horiz-adv-x="289" unicode="&#8310;" /><glyph d="M296 395Q385 395 437 340.5Q489 286 489 194Q489 99 431.5 44.5Q374 -10 276 -10Q179 -10 122.5 47.5Q66 105 66 204V458Q66 555 122.5 611Q179 667 278 667Q370 667 425.5 617Q481 567 481 484V474H381V485Q381 527 353.5 552.5Q326 578 279 578Q227 578 198 548.5Q169 519 169 467V350Q193 372 226 383.5Q259 395 296 395ZM383 190Q383 245 356 277Q329 309 279 309Q245 309 218.5 297Q192 285 169 259V204Q169 145 197.5 111.5Q226 78 277 78Q327 78 355 107.5Q383 137 383 190Z" glyph-name="six.tab" horiz-adv-x="541" unicode="&#65302;" /><glyph d="M26 -111 320 765H418L123 -111Z" glyph-name="slash" horiz-adv-x="443" unicode="/" /><glyph glyph-name="space" horiz-adv-x="204" unicode=" " /><glyph d="M109 248H48V329H109V462Q109 555 164.5 611Q220 667 310 667Q399 667 452.5 613Q506 559 506 468V443H407V468Q407 517 381.5 546Q356 575 311 575Q265 575 238 544.5Q211 514 211 462V329H383V248H211V90H509V0H48V90H109Z" glyph-name="sterling" horiz-adv-x="560" unicode="&#163;" /><glyph d="M481 657V564H184L368 335L166 95H501V0H43V88L249 336L54 569V657Z" glyph-name="summation" horiz-adv-x="544" unicode="&#8721;" /><glyph d="M112 402H25V485H112V619H211V485H299V402H211V0H112Z" glyph-name="t" horiz-adv-x="324" unicode="t" /><glyph d="M100 402H27V485H100V619H199V485H314V402H199V163Q199 127 221 106Q243 85 282 85H314V0H273Q190 0 145 44Q100 88 100 169Z" glyph-name="t.alt" horiz-adv-x="341" /><glyph d="M292 315V249H213V0H114V249H36V315H114V402H27V485H114V619H213V485H301V402H213V315Z" glyph-name="tbar" horiz-adv-x="328" unicode="&#359;" /><glyph d="M302 84H334V-1H293Q210 -1 165 43Q120 87 120 168V247H41V314H120V401H47V484H120V618H219V484H334V401H219V314H323V247H219V162Q219 126 241 105Q263 84 302 84Z" glyph-name="tbar.alt" horiz-adv-x="371" /><glyph d="M256 533 278 677H371L312 533ZM112 402H25V485H112V619H211V485H299V402H211V0H112Z" glyph-name="tcaron" horiz-adv-x="324" unicode="&#357;" /><glyph d="M100 402H27V485H100V619H199V485H314V402H199V163Q199 127 221 106Q243 85 282 85H314V0H273Q190 0 145 44Q100 88 100 169ZM248 533 270 677H363L304 533Z" glyph-name="tcaron.alt" horiz-adv-x="341" /><glyph d="M66 677H166V447Q186 472 216.5 485.5Q247 499 284 499Q362 499 406.5 449Q451 399 451 313V176Q451 90 406.5 40Q362 -10 284 -10Q247 -10 216.5 3Q186 16 166 41V-187H66ZM261 412Q218 412 192 384Q166 356 166 311V179Q166 134 192 105.5Q218 77 261 77Q303 77 327.5 103.5Q352 130 352 174V315Q352 359 327.5 385.5Q303 412 261 412Z" glyph-name="thorn" horiz-adv-x="502" unicode="&#254;" /><glyph d="M250 299H202V380H250Q303 380 329.5 404.5Q356 429 356 479Q356 524 329.5 549Q303 574 255 574Q208 574 180 548.5Q152 523 152 480V464H53V480Q53 563 109.5 615Q166 667 257 667Q349 667 404.5 618Q460 569 460 489Q460 438 439.5 400.5Q419 363 380 343Q424 322 447.5 280.5Q471 239 471 181Q471 94 413 42Q355 -10 258 -10Q163 -10 106 41Q49 92 49 177V192H148V177Q148 133 177 106.5Q206 80 256 80Q308 80 336.5 109Q365 138 365 191Q365 242 335 270.5Q305 299 250 299Z" glyph-name="three" horiz-adv-x="523" unicode="3" /><glyph d="M134 141H112V195H134Q156 195 166 204Q176 213 176 233Q176 251 166.5 260.5Q157 270 139 270Q121 270 111 260Q101 250 101 232V226H33V234Q33 277 63 305Q93 333 141 333Q188 333 217 308Q246 283 246 242Q246 217 237 198.5Q228 180 210 170Q230 160 241 140Q252 120 252 92Q252 48 221.5 21.5Q191 -5 140 -5Q90 -5 60.5 22Q31 49 31 94V102H99V95Q99 76 109.5 65.5Q120 55 138 55Q158 55 169 66.5Q180 78 180 100Q180 120 168.5 130.5Q157 141 134 141Z" glyph-name="three.denominator" horiz-adv-x="286" unicode="&#63064;" /><glyph d="M134 -9H112V45H134Q156 45 166 54Q176 63 176 83Q176 101 166.5 110.5Q157 120 139 120Q121 120 111 110Q101 100 101 82V76H33V84Q33 127 63 155Q93 183 141 183Q188 183 217 158Q246 133 246 92Q246 67 237 48.5Q228 30 210 20Q230 10 241 -10Q252 -30 252 -58Q252 -102 221.5 -128.5Q191 -155 140 -155Q90 -155 60.5 -128Q31 -101 31 -56V-48H99V-55Q99 -74 109.5 -84.5Q120 -95 138 -95Q158 -95 169 -83.5Q180 -72 180 -50Q180 -30 168.5 -19.5Q157 -9 134 -9Z" glyph-name="three.inferior" horiz-adv-x="286" unicode="&#8323;" /><glyph d="M134 470H112V524H134Q156 524 166 533Q176 542 176 562Q176 580 166.5 589.5Q157 599 139 599Q121 599 111 589Q101 579 101 561V555H33V563Q33 606 63 634Q93 662 141 662Q188 662 217 637Q246 612 246 571Q246 546 237 527.5Q228 509 210 499Q230 489 241 469Q252 449 252 421Q252 377 221.5 350.5Q191 324 140 324Q90 324 60.5 351Q31 378 31 423V431H99V424Q99 405 109.5 394.5Q120 384 138 384Q158 384 169 395.5Q180 407 180 429Q180 449 168.5 459.5Q157 470 134 470Z" glyph-name="three.numerator" horiz-adv-x="286" unicode="&#63076;" /><glyph d="M259 299H211V380H259Q312 380 338.5 404.5Q365 429 365 479Q365 524 338.5 549Q312 574 264 574Q217 574 189 548.5Q161 523 161 480V464H62V480Q62 563 118.5 615Q175 667 266 667Q358 667 413.5 618Q469 569 469 489Q469 438 448.5 400.5Q428 363 389 343Q433 322 456.5 280.5Q480 239 480 181Q480 94 422 42Q364 -10 267 -10Q172 -10 115 41Q58 92 58 177V192H157V177Q157 133 186 106.5Q215 80 265 80Q317 80 345.5 109Q374 138 374 191Q374 242 344 270.5Q314 299 259 299Z" glyph-name="three.tab" horiz-adv-x="541" unicode="&#65299;" /><glyph d="M346 134 481 328H564V126H598V67H564V0H493V67H346ZM493 246 410 126H493ZM98 0 293 329 480 657H561L366 328L179 0ZM149 475H127V529H149Q171 529 181 538Q191 547 191 567Q191 585 181.5 594.5Q172 604 154 604Q136 604 126 594Q116 584 116 566V560H48V568Q48 611 78 639Q108 667 156 667Q203 667 232 642Q261 617 261 576Q261 551 252 532.5Q243 514 225 504Q245 494 256 474Q267 454 267 426Q267 382 236.5 355.5Q206 329 155 329Q105 329 75.5 356Q46 383 46 428V436H114V429Q114 410 124.5 399.5Q135 389 153 389Q173 389 184 400.5Q195 412 195 434Q195 454 183.5 464.5Q172 475 149 475Z" glyph-name="threequarters" horiz-adv-x="641" unicode="&#190;" /><glyph d="M132 623H110V677H132Q154 677 164 686Q174 695 174 715Q174 733 164.5 742.5Q155 752 137 752Q119 752 109 742Q99 732 99 714V708H31V716Q31 759 61 787Q91 815 139 815Q186 815 215 790Q244 765 244 724Q244 699 235 680.5Q226 662 208 652Q228 642 239 622Q250 602 250 574Q250 530 219.5 503.5Q189 477 138 477Q88 477 58.5 504Q29 531 29 576V584H97V577Q97 558 107.5 547.5Q118 537 136 537Q156 537 167 548.5Q178 560 178 582Q178 602 166.5 612.5Q155 623 132 623Z" glyph-name="threesuperior" horiz-adv-x="281" unicode="&#179;" /><glyph d="M247 618Q262 618 270.5 631.5Q279 645 279 666H331Q332 661 332 656Q332 651 332 642Q332 599 311.5 575Q291 551 254 551Q239 551 223.5 555.5Q208 560 193 569L151 590Q140 596 132 599Q124 602 116 602Q97 602 86.5 586.5Q76 571 76 553H23Q22 564 21 570.5Q20 577 20 579Q20 619 45 644.5Q70 670 109 670Q122 670 136 666.5Q150 663 164 655L205 634Q228 622 235 620Q242 618 247 618Z" glyph-name="tilde" horiz-adv-x="352" unicode="&#732;" /><glyph d="M247 763Q262 763 270.5 776.5Q279 790 279 811H331Q332 807 332 802Q332 797 332 787Q332 744 311.5 720Q291 696 254 696Q240 696 224.5 700.5Q209 705 193 713L151 735Q139 741 131 743.5Q123 746 116 746Q97 746 86.5 731Q76 716 76 698H23Q23 701 21.5 709.5Q20 718 20 724Q20 764 45 789.5Q70 815 109 815Q122 815 136 811.5Q150 808 164 800L205 779Q228 767 235 765Q242 763 247 763Z" glyph-name="tilde.case" horiz-adv-x="352" /><glyph d="M645 515 564 377H520L442 510V289H373V657H439L545 471L650 657H717V289H645ZM157 590H59V657H334V590H237V289H157Z" glyph-name="trademark" horiz-adv-x="788" unicode="&#8482;" /><glyph d="M470 0H50V43Q50 127 79.5 183Q109 239 173 283L284 356Q324 383 343.5 415Q363 447 363 485Q363 527 336 550.5Q309 574 261 574Q212 574 183.5 548Q155 522 155 477V458H55V477Q55 562 112.5 614.5Q170 667 264 667Q359 667 414.5 619Q470 571 470 488Q470 427 441 378.5Q412 330 352 290L232 209Q200 187 183 159Q166 131 164 95H470Z" glyph-name="two" horiz-adv-x="522" unicode="2" /><glyph d="M254 0H33V34Q33 70 46 96Q59 122 84 139L145 179Q163 191 172 205Q181 219 181 236Q181 252 171.5 261Q162 270 144 270Q125 270 114.5 260Q104 250 104 232V224H36V233Q36 277 66.5 305Q97 333 146 333Q196 333 225 307.5Q254 282 254 239Q254 205 239.5 180Q225 155 191 133L137 98Q127 91 120.5 81.5Q114 72 113 64H254Z" glyph-name="two.denominator" horiz-adv-x="289" unicode="&#63063;" /><glyph d="M253 -150H32V-116Q32 -80 45 -54Q58 -28 83 -11L144 29Q162 41 171 55Q180 69 180 86Q180 102 170.5 111Q161 120 143 120Q124 120 113.5 110Q103 100 103 82V74H35V83Q35 127 65.5 155Q96 183 145 183Q195 183 224 157.5Q253 132 253 89Q253 55 238.5 30Q224 5 190 -17L136 -52Q126 -59 119.5 -68.5Q113 -78 112 -86H253Z" glyph-name="two.inferior" horiz-adv-x="288" unicode="&#8322;" /><glyph d="M253 329H32V363Q32 399 45 425Q58 451 83 468L144 508Q162 520 171 534Q180 548 180 565Q180 581 170.5 590Q161 599 143 599Q124 599 113.5 589Q103 579 103 561V553H35V562Q35 606 65.5 634Q96 662 145 662Q195 662 224 636.5Q253 611 253 568Q253 534 238.5 509Q224 484 190 462L136 427Q126 420 119.5 410.5Q113 401 112 393H253Z" glyph-name="two.numerator" horiz-adv-x="288" unicode="&#63075;" /><glyph d="M479 0H59V43Q59 127 88.5 183Q118 239 182 283L293 356Q333 383 352.5 415Q372 447 372 485Q372 527 345 550.5Q318 574 270 574Q221 574 192.5 548Q164 522 164 477V458H64V477Q64 562 121.5 614.5Q179 667 273 667Q368 667 423.5 619Q479 571 479 488Q479 427 450 378.5Q421 330 361 290L241 209Q209 187 192 159Q175 131 173 95H479Z" glyph-name="two.tab" horiz-adv-x="541" unicode="&#65298;" /><glyph d="M251 480H30V514Q30 550 43 576Q56 602 81 619L142 659Q160 671 169 685Q178 699 178 716Q178 732 168.5 741Q159 750 141 750Q122 750 111.5 740Q101 730 101 712V704H33V713Q33 757 63.5 785Q94 813 143 813Q193 813 222 787.5Q251 762 251 719Q251 685 236.5 660Q222 635 188 613L134 578Q124 571 117.5 561.5Q111 552 110 544H251Z" glyph-name="twosuperior" horiz-adv-x="284" unicode="&#178;" /><glyph d="M222 -10Q147 -10 104.5 36.5Q62 83 62 165V489H162V169Q162 127 184.5 102Q207 77 247 77Q290 77 316 105.5Q342 134 342 179V489H442V0H359L349 51Q328 22 295 6Q262 -10 222 -10Z" glyph-name="u" horiz-adv-x="508" unicode="u" /><glyph d="M318 712 382 651 251 545 205 586ZM222 -10Q147 -10 104.5 36.5Q62 83 62 165V489H162V169Q162 127 184.5 102Q207 77 247 77Q290 77 316 105.5Q342 134 342 179V489H442V0H359L349 51Q328 22 295 6Q262 -10 222 -10Z" glyph-name="uacute" horiz-adv-x="508" unicode="&#250;" /><glyph d="M222 -10Q147 -10 104.5 36.5Q62 83 62 165V489H162V169Q162 127 184.5 102Q207 77 247 77Q290 77 316 105.5Q342 134 342 179V489H442V0H359L349 51Q328 22 295 6Q262 -10 222 -10ZM302 650V670H363V650Q363 605 332 575Q301 545 252 545Q203 545 172 575Q141 605 141 650V670H203V650Q203 627 216 613Q229 599 252 599Q274 599 288 613Q302 627 302 650Z" glyph-name="ubreve" horiz-adv-x="508" unicode="&#365;" /><glyph d="M122 578 228 707H276L381 578L342 544L250 625L160 545ZM222 -10Q147 -10 104.5 36.5Q62 83 62 165V489H162V169Q162 127 184.5 102Q207 77 247 77Q290 77 316 105.5Q342 134 342 179V489H442V0H359L349 51Q328 22 295 6Q262 -10 222 -10Z" glyph-name="ucircumflex" horiz-adv-x="508" unicode="&#251;" /><glyph d="M190 556Q168 556 152 572Q136 588 136 610Q136 632 151.5 646.5Q167 661 190 661Q211 661 225.5 646.5Q240 632 240 610Q240 587 225.5 571.5Q211 556 190 556ZM317 556Q295 556 280 571.5Q265 587 265 610Q265 632 280 646.5Q295 661 317 661Q339 661 354 646.5Q369 632 369 610Q369 587 354 571.5Q339 556 317 556ZM222 -10Q147 -10 104.5 36.5Q62 83 62 165V489H162V169Q162 127 184.5 102Q207 77 247 77Q290 77 316 105.5Q342 134 342 179V489H442V0H359L349 51Q328 22 295 6Q262 -10 222 -10Z" glyph-name="udieresis" horiz-adv-x="508" unicode="&#252;" /><glyph d="M222 -10Q147 -10 104.5 36.5Q62 83 62 165V489H162V169Q162 127 184.5 102Q207 77 247 77Q290 77 316 105.5Q342 134 342 179V489H442V0H359L349 51Q328 22 295 6Q262 -10 222 -10ZM298 586 252 545 121 651 186 712Z" glyph-name="ugrave" horiz-adv-x="508" unicode="&#249;" /><glyph d="M222 -10Q147 -10 104.5 36.5Q62 83 62 165V489H162V169Q162 127 184.5 102Q207 77 247 77Q290 77 316 105.5Q342 134 342 179V489H442V0H359L349 51Q328 22 295 6Q262 -10 222 -10ZM256 708 311 659 187 546 149 579ZM391 706 442 652 312 545 278 582Z" glyph-name="uhungarumlaut" horiz-adv-x="508" unicode="&#369;" /><glyph d="M222 -10Q147 -10 104.5 36.5Q62 83 62 165V489H162V169Q162 127 184.5 102Q207 77 247 77Q290 77 316 105.5Q342 134 342 179V489H442V0H359L349 51Q328 22 295 6Q262 -10 222 -10ZM371 567H133V639H371Z" glyph-name="umacron" horiz-adv-x="508" unicode="&#363;" /><glyph d="M628 -104H63V-30H628Z" glyph-name="underscore" horiz-adv-x="691" unicode="_" /><glyph glyph-name="uni00A0" horiz-adv-x="204" unicode="&#160;" /><glyph d="M300 216H63V305H300Z" glyph-name="uni00AD" horiz-adv-x="363" unicode="&#173;" /><glyph d="M205 -224 242 -47H348L269 -224ZM405 246H297V328H502V199Q502 104 442.5 47Q383 -10 283 -10Q182 -10 121 49Q60 108 60 205V452Q60 551 120.5 609Q181 667 285 667Q384 667 443 613Q502 559 502 468V453H402V469Q402 517 370.5 545.5Q339 574 284 574Q228 574 195.5 541Q163 508 163 452V205Q163 149 195.5 116Q228 83 283 83Q340 83 372.5 114Q405 145 405 198Z" glyph-name="uni0122" horiz-adv-x="555" unicode="&#290;" /><glyph d="M323 726 286 549H180L259 726ZM219 9Q140 9 95.5 58.5Q51 108 51 195V313Q51 400 95.5 449.5Q140 499 219 499Q259 499 291 483.5Q323 468 344 439L354 489H436V-21Q436 -102 384.5 -149.5Q333 -197 246 -197Q162 -197 110 -155Q58 -113 58 -44V-41H154V-49Q154 -80 178.5 -98.5Q203 -117 245 -117Q289 -117 313 -92.5Q337 -68 337 -25V60Q316 35 285.5 22Q255 9 219 9ZM241 96Q284 96 310.5 124.5Q337 153 337 197V311Q337 355 310.5 383.5Q284 412 241 412Q199 412 175 385.5Q151 359 151 315V193Q151 149 175 122.5Q199 96 241 96Z" glyph-name="uni0123" horiz-adv-x="502" unicode="&#291;" /><glyph d="M200 -224 237 -47H343L264 -224ZM78 657H181V319L413 657H528L347 387L534 0H418L275 301L181 164V0H78Z" glyph-name="uni0136" horiz-adv-x="549" unicode="&#310;" /><glyph d="M161 -224 198 -47H304L225 -224ZM66 0V677H166V278L345 489H455L298 302L463 0H352L230 225L166 149V0Z" glyph-name="uni0137" horiz-adv-x="478" unicode="&#311;" /><glyph d="M168 -224 205 -47H311L232 -224ZM78 657H181V93H451V0H78Z" glyph-name="uni013B" horiz-adv-x="466" unicode="&#315;" /><glyph d="M27 -224 64 -47H170L91 -224ZM69 0V677H168V0Z" glyph-name="uni013C" horiz-adv-x="237" unicode="&#316;" /><glyph d="M216 -224 253 -47H359L280 -224ZM418 657H513V0H428L172 456V0H78V657H167L418 210Z" glyph-name="uni0145" horiz-adv-x="590" unicode="&#325;" /><glyph d="M171 -224 208 -47H314L235 -224ZM166 311V0H66V489H149L158 437Q180 467 213 483Q246 499 286 499Q364 499 407.5 451Q451 403 451 319V0H352V315Q352 359 327.5 385.5Q303 412 261 412Q218 412 192 384Q166 356 166 311Z" glyph-name="uni0146" horiz-adv-x="513" unicode="&#326;" /><glyph d="M198 -224 235 -47H341L262 -224ZM406 274 521 0H408L305 250Q302 249 298.5 249Q295 249 288 249H181V0H78V657H295Q394 657 456.5 601.5Q519 546 519 456Q519 394 489.5 346.5Q460 299 406 274ZM414 455Q414 506 379.5 536Q345 566 286 566H181V339H286Q345 339 379.5 370.5Q414 402 414 455Z" glyph-name="uni0156" horiz-adv-x="566" unicode="&#342;" /><glyph d="M28 -224 65 -47H171L92 -224ZM166 303V0H66V489H149L159 431Q179 463 210.5 481Q242 499 280 499Q291 499 296.5 498.5Q302 498 307 496V402Q295 404 286.5 405Q278 406 271 406Q224 406 195 378Q166 350 166 303Z" glyph-name="uni0157" horiz-adv-x="327" unicode="&#343;" /><glyph d="M344 -114Q344 -147 322 -167Q300 -187 263 -187H158V-135H256Q268 -135 274 -129.5Q280 -124 280 -114Q280 -104 273.5 -98.5Q267 -93 256 -93H201L182 -79L205 0H183V564H19V657H450V564H286V0H264L251 -43H263Q302 -43 323 -61.5Q344 -80 344 -114Z" glyph-name="uni0162" horiz-adv-x="469" unicode="&#354;" /><glyph d="M271 -114Q271 -147 249 -167Q227 -187 190 -187H85V-135H183Q195 -135 201 -129.5Q207 -124 207 -114Q207 -104 200.5 -98.5Q194 -93 183 -93H128L109 -79L132 0H112V402H25V485H112V619H211V485H299V402H211V0H191L178 -43H190Q229 -43 250 -61.5Q271 -80 271 -114Z" glyph-name="uni0163" horiz-adv-x="324" unicode="&#355;" /><glyph d="M314 -114Q314 -147 292 -167Q270 -187 233 -187H127V-135H226Q237 -135 243.5 -129.5Q250 -124 250 -114Q250 -104 243.5 -98.5Q237 -93 226 -93H170L151 -79L180 19Q141 39 120.5 77Q100 115 100 169V402H27V485H100V619H199V485H314V402H199V163Q199 127 221 106Q243 85 282 85H314V0H273Q263 0 253.5 1Q244 2 235 3L221 -43H233Q272 -43 293 -61.5Q314 -80 314 -114Z" glyph-name="uni0163.alt" horiz-adv-x="341" /><glyph d="M184 -224 221 -47H327L248 -224ZM473 477V463H371V481Q371 526 341 553.5Q311 581 262 581Q213 581 184 558Q155 535 155 496Q155 469 173 447Q191 425 224 413L323 375Q414 340 449.5 296Q485 252 485 186Q485 98 424.5 44Q364 -10 266 -10Q165 -10 103.5 42Q42 94 42 180V199H143V176Q143 130 175.5 103Q208 76 263 76Q319 76 351.5 103Q384 130 384 175Q384 211 362.5 235Q341 259 294 277L197 315Q125 343 90.5 385.5Q56 428 56 489Q56 567 113.5 617Q171 667 262 667Q357 667 415 615Q473 563 473 477Z" glyph-name="uni0218" horiz-adv-x="529" unicode="&#536;" /><glyph d="M143 -224 180 -47H286L207 -224ZM38 139V154H131V136Q131 104 156 85Q181 66 224 66Q267 66 290 83.5Q313 101 313 133Q313 157 300 171Q287 185 256 194L166 222Q109 240 80 274Q51 308 51 357Q51 417 99.5 458.5Q148 500 221 500Q304 500 353 461Q402 422 402 355V345H309V358Q309 388 285.5 406Q262 424 223 424Q188 424 165.5 408Q143 392 143 365Q143 344 155.5 331Q168 318 196 310L272 287Q347 263 377 229.5Q407 196 407 143Q407 73 357.5 31Q308 -11 226 -11Q142 -11 90 30Q38 71 38 139Z" glyph-name="uni0219" horiz-adv-x="450" unicode="&#537;" /><glyph d="M143 -224 180 -47H286L207 -224ZM183 564H19V657H450V564H286V0H183Z" glyph-name="uni021A" horiz-adv-x="469" unicode="&#538;" /><glyph d="M70 -224 107 -47H213L134 -224ZM112 402H25V485H112V619H211V485H299V402H211V0H112Z" glyph-name="uni021B" horiz-adv-x="324" unicode="&#539;" /><glyph d="M88 -224 125 -47H231L152 -224ZM100 402H27V485H100V619H199V485H314V402H199V163Q199 127 221 106Q243 85 282 85H314V0H273Q190 0 145 44Q100 88 100 169Z" glyph-name="uni021B.alt" horiz-adv-x="355" /><glyph d="M-46 -197V-112H-24Q20 -112 43 -89.5Q66 -67 66 -25V489H166V-19Q166 -105 119 -151Q72 -197 -14 -197Z" glyph-name="uni0237" horiz-adv-x="232" unicode="&#567;" /><glyph d="M258 568H20V640H258Z" glyph-name="uni02C9" horiz-adv-x="278" unicode="&#713;" /><glyph d="M211 657H320L509 0H22ZM375 91 263 506 151 91Z" glyph-name="uni0394" horiz-adv-x="530" unicode="&#916;" /><glyph d="M540 180Q540 100 483.5 50Q427 0 337 0H332V-108H254V0H83V657H254V765H332V657Q418 653 471 606.5Q524 560 524 487Q524 434 498.5 396.5Q473 359 425 340V339Q481 322 510.5 281Q540 240 540 180ZM185 572V379H254V572ZM419 485Q419 521 396 543.5Q373 566 332 571V380Q373 385 396 412.5Q419 440 419 485ZM185 293V85H254V293ZM434 182Q434 233 406.5 263Q379 293 332 293V85Q380 86 407 112Q434 138 434 182Z" glyph-name="uni03A9" horiz-adv-x="599" unicode="&#937;" /><glyph d="M602 564H108V657H602ZM305 356 273 179Q256 88 201.5 39Q147 -10 62 -10H41V83H66Q108 83 135 108Q162 133 170 178L201 356H38V449H672V356H492V130Q492 107 502.5 97.5Q513 88 539 88H559Q585 88 595.5 97.5Q606 107 606 130V179L702 165V108Q702 53 665 24Q628 -5 556 -5H539Q465 -5 427 23.5Q389 52 389 106V356Z" glyph-name="uni03BC" horiz-adv-x="512" unicode="&#956;" /><glyph d="M71 167 22 243 117 309V502Q117 581 160.5 626.5Q204 672 279 672Q352 672 396 630.5Q440 589 440 524Q440 476 415 434.5Q390 393 340 357L216 269V172Q216 130 239 107.5Q262 85 306 85H424V0H297Q210 0 163.5 46Q117 92 117 178V199ZM348 523Q348 552 330.5 570Q313 588 283 588Q251 588 233.5 565.5Q216 543 216 504V379L285 427Q319 451 333.5 473.5Q348 496 348 523Z" glyph-name="uni2113" horiz-adv-x="472" unicode="&#8467;" /><glyph d="M105 595H49V657H175V389H233V329H49V389H105ZM101 0 296 329 483 657H564L369 328L182 0ZM490 141H468V195H490Q512 195 522 204Q532 213 532 233Q532 251 522.5 260.5Q513 270 495 270Q477 270 467 260Q457 250 457 232V226H389V234Q389 277 419 305Q449 333 497 333Q544 333 573 308Q602 283 602 242Q602 217 593 198.5Q584 180 566 170Q586 160 597 140Q608 120 608 92Q608 48 577.5 21.5Q547 -5 496 -5Q446 -5 416.5 22Q387 49 387 94V102H455V95Q455 76 465.5 65.5Q476 55 494 55Q514 55 525 66.5Q536 78 536 100Q536 120 524.5 130.5Q513 141 490 141Z" glyph-name="uni2153" horiz-adv-x="652" unicode="&#8531;" /><glyph d="M267 329H46V363Q46 399 59 425Q72 451 97 468L158 508Q176 520 185 534Q194 548 194 565Q194 581 184.5 590Q175 599 157 599Q138 599 127.5 589Q117 579 117 561V553H49V562Q49 606 79.5 634Q110 662 159 662Q209 662 238 636.5Q267 611 267 568Q267 534 252.5 509Q238 484 204 462L150 427Q140 420 133.5 410.5Q127 401 126 393H267ZM131 0 326 329 513 657H594L399 328L212 0ZM520 141H498V195H520Q542 195 552 204Q562 213 562 233Q562 251 552.5 260.5Q543 270 525 270Q507 270 497 260Q487 250 487 232V226H419V234Q419 277 449 305Q479 333 527 333Q574 333 603 308Q632 283 632 242Q632 217 623 198.5Q614 180 596 170Q616 160 627 140Q638 120 638 92Q638 48 607.5 21.5Q577 -5 526 -5Q476 -5 446.5 22Q417 49 417 94V102H485V95Q485 76 495.5 65.5Q506 55 524 55Q544 55 555 66.5Q566 78 566 100Q566 120 554.5 130.5Q543 141 520 141Z" glyph-name="uni2154" horiz-adv-x="682" unicode="&#8532;" /><glyph d="M101 0 296 329 483 657H564L369 328L182 0ZM105 595H49V657H175V389H233V329H49V389H105ZM411 328H608V268H474V193Q484 202 497.5 206Q511 210 528 210Q572 210 598 181.5Q624 153 624 105Q624 54 594.5 24.5Q565 -5 514 -5Q464 -5 433.5 19Q403 43 403 84V92H471V86Q471 70 481.5 61.5Q492 53 511 53Q530 53 541 66.5Q552 80 552 103Q552 127 542 140Q532 153 512 153Q501 153 492.5 149.5Q484 146 472 136H411Z" glyph-name="uni2155" horiz-adv-x="669" unicode="&#8533;" /><glyph d="M268 329H47V363Q47 399 60 425Q73 451 98 468L159 508Q177 520 186 534Q195 548 195 565Q195 581 185.5 590Q176 599 158 599Q139 599 128.5 589Q118 579 118 561V553H50V562Q50 606 80.5 634Q111 662 160 662Q210 662 239 636.5Q268 611 268 568Q268 534 253.5 509Q239 484 205 462L151 427Q141 420 134.5 410.5Q128 401 127 393H268ZM126 0 321 329 508 657H589L394 328L207 0ZM436 328H633V268H499V193Q509 202 522.5 206Q536 210 553 210Q597 210 623 181.5Q649 153 649 105Q649 54 619.5 24.5Q590 -5 539 -5Q489 -5 458.5 19Q428 43 428 84V92H496V86Q496 70 506.5 61.5Q517 53 536 53Q555 53 566 66.5Q577 80 577 103Q577 127 567 140Q557 153 537 153Q526 153 517.5 149.5Q509 146 497 136H436Z" glyph-name="uni2156" horiz-adv-x="694" unicode="&#8534;" /><glyph d="M97 0 292 329 479 657H560L365 328L178 0ZM407 328H604V268H470V193Q480 202 493.5 206Q507 210 524 210Q568 210 594 181.5Q620 153 620 105Q620 54 590.5 24.5Q561 -5 510 -5Q460 -5 429.5 19Q399 43 399 84V92H467V86Q467 70 477.5 61.5Q488 53 507 53Q526 53 537 66.5Q548 80 548 103Q548 127 538 140Q528 153 508 153Q497 153 488.5 149.5Q480 146 468 136H407ZM149 474H127V528H149Q171 528 181 537Q191 546 191 566Q191 584 181.5 593.5Q172 603 154 603Q136 603 126 593Q116 583 116 565V559H48V567Q48 610 78 638Q108 666 156 666Q203 666 232 641Q261 616 261 575Q261 550 252 531.5Q243 513 225 503Q245 493 256 473Q267 453 267 425Q267 381 236.5 354.5Q206 328 155 328Q105 328 75.5 355Q46 382 46 427V435H114V428Q114 409 124.5 398.5Q135 388 153 388Q173 388 184 399.5Q195 411 195 433Q195 453 183.5 463.5Q172 474 149 474Z" glyph-name="uni2157" horiz-adv-x="665" unicode="&#8535;" /><glyph d="M37 463 172 657H255V455H289V396H255V329H184V396H37ZM184 575 101 455H184ZM125 0 320 329 507 657H588L393 328L206 0ZM435 328H632V268H498V193Q508 202 521.5 206Q535 210 552 210Q596 210 622 181.5Q648 153 648 105Q648 54 618.5 24.5Q589 -5 538 -5Q488 -5 457.5 19Q427 43 427 84V92H495V86Q495 70 505.5 61.5Q516 53 535 53Q554 53 565 66.5Q576 80 576 103Q576 127 566 140Q556 153 536 153Q525 153 516.5 149.5Q508 146 496 136H435Z" glyph-name="uni2158" horiz-adv-x="694" unicode="&#8536;" /><glyph d="M522 200Q567 200 593 172.5Q619 145 619 98Q619 50 589.5 22.5Q560 -5 509 -5Q457 -5 427.5 22.5Q398 50 398 100V223Q398 275 427.5 304Q457 333 509 333Q557 333 586 307.5Q615 282 615 240V235H547V239Q547 254 537 263.5Q527 273 510 273Q490 273 479 261.5Q468 250 468 228V183Q480 191 493.5 195.5Q507 200 522 200ZM547 96Q547 119 537 131Q527 143 508 143Q496 143 486 139Q476 135 468 127V101Q468 77 478 65Q488 53 507 53Q526 53 536.5 64Q547 75 547 96ZM105 595H49V657H175V389H233V329H49V389H105ZM101 0 296 329 483 657H564L369 328L182 0Z" glyph-name="uni2159" horiz-adv-x="664" unicode="&#8537;" /><glyph d="M525 200Q570 200 596 172.5Q622 145 622 98Q622 50 592.5 22.5Q563 -5 512 -5Q460 -5 430.5 22.5Q401 50 401 100V223Q401 275 430.5 304Q460 333 512 333Q560 333 589 307.5Q618 282 618 240V235H550V239Q550 254 540 263.5Q530 273 513 273Q493 273 482 261.5Q471 250 471 228V183Q483 191 496.5 195.5Q510 200 525 200ZM550 96Q550 119 540 131Q530 143 511 143Q499 143 489 139Q479 135 471 127V101Q471 77 481 65Q491 53 510 53Q529 53 539.5 64Q550 75 550 96ZM104 0 299 329 486 657H567L372 328L185 0ZM54 657H251V597H117V522Q127 531 140.5 535Q154 539 171 539Q215 539 241 510.5Q267 482 267 434Q267 383 237.5 353.5Q208 324 157 324Q107 324 76.5 348Q46 372 46 413V421H114V415Q114 399 124.5 390.5Q135 382 154 382Q173 382 184 395.5Q195 409 195 432Q195 456 185 469Q175 482 155 482Q144 482 135.5 478.5Q127 475 115 465H54Z" glyph-name="uni215A" horiz-adv-x="667" unicode="&#8538;" /><glyph d="M101 0 296 329 483 657H564L369 328L182 0ZM105 595H49V657H175V389H233V329H49V389H105ZM504 333Q551 333 579.5 307.5Q608 282 608 241Q608 216 599 198Q590 180 572 170Q593 161 604 141Q615 121 615 92Q615 48 584.5 21.5Q554 -5 504 -5Q454 -5 424 21.5Q394 48 394 92Q394 121 404.5 140.5Q415 160 436 170Q418 179 408.5 197Q399 215 399 241Q399 282 428 307.5Q457 333 504 333ZM504 142Q485 142 475 130.5Q465 119 465 96Q465 74 475 62.5Q485 51 504 51Q523 51 533.5 63Q544 75 544 96Q544 118 534 130Q524 142 504 142ZM504 275Q487 275 478 265Q469 255 469 236Q469 215 478 204Q487 193 504 193Q521 193 530 204Q539 215 539 236Q539 255 530 265Q521 275 504 275Z" glyph-name="uni215B" horiz-adv-x="659" unicode="&#8539;" /><glyph d="M100 0 295 329 482 657H563L368 328L181 0ZM503 333Q550 333 578.5 307.5Q607 282 607 241Q607 216 598 198Q589 180 571 170Q592 161 603 141Q614 121 614 92Q614 48 583.5 21.5Q553 -5 503 -5Q453 -5 423 21.5Q393 48 393 92Q393 121 403.5 140.5Q414 160 435 170Q417 179 407.5 197Q398 215 398 241Q398 282 427 307.5Q456 333 503 333ZM503 142Q484 142 474 130.5Q464 119 464 96Q464 74 474 62.5Q484 51 503 51Q522 51 532.5 63Q543 75 543 96Q543 118 533 130Q523 142 503 142ZM503 275Q486 275 477 265Q468 255 468 236Q468 215 477 204Q486 193 503 193Q520 193 529 204Q538 215 538 236Q538 255 529 265Q520 275 503 275ZM149 474H127V528H149Q171 528 181 537Q191 546 191 566Q191 584 181.5 593.5Q172 603 154 603Q136 603 126 593Q116 583 116 565V559H48V567Q48 610 78 638Q108 666 156 666Q203 666 232 641Q261 616 261 575Q261 550 252 531.5Q243 513 225 503Q245 493 256 473Q267 453 267 425Q267 381 236.5 354.5Q206 328 155 328Q105 328 75.5 355Q46 382 46 427V435H114V428Q114 409 124.5 398.5Q135 388 153 388Q173 388 184 399.5Q195 411 195 433Q195 453 183.5 463.5Q172 474 149 474Z" glyph-name="uni215C" horiz-adv-x="658" unicode="&#8540;" /><glyph d="M103 0 298 329 485 657H566L371 328L184 0ZM54 657H251V597H117V522Q127 531 140.5 535Q154 539 171 539Q215 539 241 510.5Q267 482 267 434Q267 383 237.5 353.5Q208 324 157 324Q107 324 76.5 348Q46 372 46 413V421H114V415Q114 399 124.5 390.5Q135 382 154 382Q173 382 184 395.5Q195 409 195 432Q195 456 185 469Q175 482 155 482Q144 482 135.5 478.5Q127 475 115 465H54ZM506 333Q553 333 581.5 307.5Q610 282 610 241Q610 216 601 198Q592 180 574 170Q595 161 606 141Q617 121 617 92Q617 48 586.5 21.5Q556 -5 506 -5Q456 -5 426 21.5Q396 48 396 92Q396 121 406.5 140.5Q417 160 438 170Q420 179 410.5 197Q401 215 401 241Q401 282 430 307.5Q459 333 506 333ZM506 142Q487 142 477 130.5Q467 119 467 96Q467 74 477 62.5Q487 51 506 51Q525 51 535.5 63Q546 75 546 96Q546 118 536 130Q526 142 506 142ZM506 275Q489 275 480 265Q471 255 471 236Q471 215 480 204Q489 193 506 193Q523 193 532 204Q541 215 541 236Q541 255 532 265Q523 275 506 275Z" glyph-name="uni215D" horiz-adv-x="661" unicode="&#8541;" /><glyph d="M183 597H43V657H260V604L148 329H72ZM76 0 271 329 458 657H539L344 328L157 0ZM483 333Q530 333 558.5 307.5Q587 282 587 241Q587 216 578 198Q569 180 551 170Q572 161 583 141Q594 121 594 92Q594 48 563.5 21.5Q533 -5 483 -5Q433 -5 403 21.5Q373 48 373 92Q373 121 383.5 140.5Q394 160 415 170Q397 179 387.5 197Q378 215 378 241Q378 282 407 307.5Q436 333 483 333ZM483 142Q464 142 454 130.5Q444 119 444 96Q444 74 454 62.5Q464 51 483 51Q502 51 512.5 63Q523 75 523 96Q523 118 513 130Q503 142 483 142ZM483 275Q466 275 457 265Q448 255 448 236Q448 215 457 204Q466 193 483 193Q500 193 509 204Q518 215 518 236Q518 255 509 265Q500 275 483 275Z" glyph-name="uni215E" horiz-adv-x="638" unicode="&#8542;" /><glyph d="M105 595H49V657H175V389H233V329H49V389H105ZM101 0 296 329 483 657H564L369 328L182 0Z" glyph-name="uni215F" horiz-adv-x="398" unicode="&#8543;" /><glyph d="M8 0 203 329 390 657H471L276 328L89 0Z" glyph-name="uni2215" horiz-adv-x="477" unicode="&#8725;" /><glyph d="M153 173Q111 173 81 202.5Q51 232 51 274Q51 317 81 347Q111 377 153 377Q196 377 226 347Q256 317 256 274Q256 232 226 202.5Q196 173 153 173Z" glyph-name="uni2219" horiz-adv-x="307" unicode="&#8729;" /><glyph d="M296 388V431Q296 462 275.5 477Q255 492 214 492Q172 492 150.5 476.5Q129 461 129 431V352Q129 322 151 306Q173 290 214 290Q254 290 274 305.5Q294 321 294 352V355Q294 361 291 363.5Q288 366 282 366H250Q244 366 241.5 363.5Q239 361 239 355V354Q239 345 232.5 340.5Q226 336 214 336Q202 336 196.5 340.5Q191 345 191 354V377H284Q290 377 293 379.5Q296 382 296 388ZM239 417H191V428Q191 437 196.5 441.5Q202 446 214 446Q226 446 232.5 441.5Q239 437 239 428ZM378 488H340Q334 488 331.5 485.5Q329 483 329 477V306Q329 300 331.5 297.5Q334 295 340 295H381Q387 295 389 297.5Q391 300 391 306V423Q399 429 409 433.5Q419 438 428 438Q437 438 440 435Q443 432 443 422V306Q443 300 445.5 297.5Q448 295 455 295H493Q499 295 501.5 297.5Q504 300 504 306V423Q513 430 523 434Q533 438 542 438Q550 438 553 435Q556 432 556 422V306Q556 300 559 297.5Q562 295 569 295H607Q614 295 616.5 297.5Q619 300 619 306V438Q619 462 603.5 477Q588 492 562 492Q544 492 529 486Q514 480 498 466Q490 479 476.5 485.5Q463 492 447 492Q432 492 418.5 487.5Q405 483 389 471V477Q389 483 386.5 485.5Q384 488 378 488ZM762 487H731V523Q731 530 728.5 532.5Q726 535 719 535H680Q674 535 671 532Q668 529 668 523V487H667L651 486Q644 484 642 481.5Q640 479 640 475V450Q640 444 642.5 441.5Q645 439 651 439H668V355Q668 322 686 308.5Q704 295 746 295H765Q771 295 774 297.5Q777 300 777 306V333Q777 339 774 341.5Q771 344 765 344H755Q743 344 737 348.5Q731 353 731 362V439H762Q768 439 770.5 441.5Q773 444 773 450V477Q773 483 770.5 485Q768 487 762 487ZM879 370Q879 373 877 384.5Q875 396 872 407L850 477Q848 484 845.5 486Q843 488 838 488H798Q790 488 787.5 485Q785 482 787 477L852 287L836 228Q835 223 837.5 220Q840 217 847 217H875Q880 217 883.5 220Q887 223 889 228L973 477Q974 482 971.5 485Q969 488 962 488H925Q920 488 917.5 486Q915 484 913 477L889 405Q886 394 883 382.5Q880 371 879 370ZM1043 488H1007Q1001 488 998.5 485.5Q996 483 996 477V228Q996 222 998.5 219.5Q1001 217 1007 217H1047Q1053 217 1055.5 219.5Q1058 222 1058 228V311Q1072 300 1086 295Q1100 290 1116 290Q1144 290 1158.5 306Q1173 322 1173 352V432Q1173 461 1158.5 476.5Q1144 492 1116 492Q1099 492 1085 487Q1071 482 1056 470L1055 477Q1055 483 1052.5 485.5Q1050 488 1043 488ZM1095 438Q1104 438 1108 434.5Q1112 431 1112 423V361Q1112 352 1108 348Q1104 344 1095 344Q1089 344 1082.5 346.5Q1076 349 1058 360V423Q1073 432 1080.5 435Q1088 438 1095 438ZM1370 388V431Q1370 462 1349.5 477Q1329 492 1288 492Q1246 492 1225 476.5Q1204 461 1204 431V352Q1204 322 1225.5 306Q1247 290 1288 290Q1328 290 1347.5 305.5Q1367 321 1367 352V355Q1367 361 1364.5 363.5Q1362 366 1356 366H1324Q1318 366 1315 363.5Q1312 361 1312 355V354Q1312 345 1306 340.5Q1300 336 1288 336Q1276 336 1270.5 340.5Q1265 345 1265 354V377H1359Q1365 377 1367.5 379.5Q1370 382 1370 388ZM1312 417H1265V428Q1265 437 1270.5 441.5Q1276 446 1288 446Q1300 446 1306 441.5Q1312 437 1312 428ZM70 5V35Q70 38 69 39Q68 40 65 40H54Q52 40 51 39Q50 38 50 35V5Q50 2 51 1Q52 0 54 0H65Q68 0 69 1Q70 2 70 5ZM154 171V188Q154 190 153 191Q152 192 149 192H140Q137 192 136 191Q135 190 135 188V5Q135 2 136 1Q137 0 140 0H151Q153 0 154 1.5Q155 3 155 5V153Q165 163 182 169.5Q199 176 217 176Q236 176 246 168Q256 160 256 145V5Q256 1 257 0.5Q258 0 260 0H271Q273 0 274 1.5Q275 3 275 5V149Q275 170 261 182.5Q247 195 221 195Q204 195 187.5 189Q171 183 154 171ZM472 98V147Q472 171 455 183Q438 195 404 195Q369 195 351.5 183Q334 171 334 147V45Q334 21 351 9Q368 -3 403 -3Q438 -3 455 8.5Q472 20 472 45V54Q472 56 471 57Q470 58 467 58H458Q454 58 453 57Q452 56 452 54V46Q452 29 440 21Q428 13 404 13Q379 13 366.5 21Q354 29 354 46V94H468Q470 94 471 95.5Q472 97 472 98ZM452 110H354V146Q354 162 366.5 170Q379 178 404 178Q428 178 440 170Q452 162 452 146ZM603 191H556V232Q555 233 554 234.5Q553 236 552 237H541Q538 237 537.5 236Q537 235 537 232V191H533H512Q510 190 509 189Q508 188 508 186V179Q508 176 509 175Q510 174 512 174H537V48Q537 22 552.5 11Q568 0 603 0H612Q614 0 615.5 1.5Q617 3 617 5V12Q617 14 615.5 15.5Q614 17 612 17H606Q581 17 568.5 25.5Q556 34 556 50V174H603Q605 174 606 175Q607 176 607 179V187Q607 189 606.5 190Q606 191 603 191Z" glyph-name="uniF8FF" horiz-adv-x="1420" unicode="&#63743;" /><glyph d="M385 -132H432V-191H372Q328 -191 303 -170Q278 -149 278 -114Q278 -80 300 -48Q322 -16 358 3L349 51Q328 22 295 6Q262 -10 222 -10Q147 -10 104.5 36.5Q62 83 62 165V489H162V169Q162 127 184.5 102Q207 77 247 77Q290 77 316 105.5Q342 134 342 179V489H442V0H415Q378 -23 359 -47.5Q340 -72 340 -97Q340 -113 352 -122.5Q364 -132 385 -132Z" glyph-name="uogonek" horiz-adv-x="508" unicode="&#371;" /><glyph d="M205 628Q205 606 218 591.5Q231 577 251 577Q272 577 285 591Q298 605 298 628Q298 650 285 663.5Q272 677 251 677Q231 677 218 663.5Q205 650 205 628ZM355 628Q355 585 325.5 556.5Q296 528 251 528Q206 528 177 556.5Q148 585 148 628Q148 670 177 698.5Q206 727 251 727Q296 727 325.5 698.5Q355 670 355 628ZM222 -10Q147 -10 104.5 36.5Q62 83 62 165V489H162V169Q162 127 184.5 102Q207 77 247 77Q290 77 316 105.5Q342 134 342 179V489H442V0H359L349 51Q328 22 295 6Q262 -10 222 -10Z" glyph-name="uring" horiz-adv-x="508" unicode="&#367;" /><glyph d="M222 -10Q147 -10 104.5 36.5Q62 83 62 165V489H162V169Q162 127 184.5 102Q207 77 247 77Q290 77 316 105.5Q342 134 342 179V489H442V0H359L349 51Q328 22 295 6Q262 -10 222 -10ZM323 618Q338 618 346.5 631.5Q355 645 355 666H407Q408 661 408 656Q408 651 408 642Q408 599 387.5 575Q367 551 330 551Q315 551 299.5 555.5Q284 560 269 569L227 590Q216 596 208 599Q200 602 192 602Q173 602 162.5 586.5Q152 571 152 553H99Q98 564 97 570.5Q96 577 96 579Q96 619 121 644.5Q146 670 185 670Q198 670 212 666.5Q226 663 240 655L281 634Q304 622 311 620Q318 618 323 618Z" glyph-name="utilde" horiz-adv-x="508" unicode="&#361;" /><glyph d="M442 489 281 0H180L20 489H127L234 130L340 489Z" glyph-name="v" horiz-adv-x="462" unicode="v" /><glyph d="M24 489H130L210 143L295 489H380L465 143L545 489H647L512 0H422L336 327L250 0H160Z" glyph-name="w" horiz-adv-x="671" unicode="w" /><glyph d="M402 712 466 651 335 545 289 586ZM24 489H130L210 143L295 489H380L465 143L545 489H647L512 0H422L336 327L250 0H160Z" glyph-name="wacute" horiz-adv-x="671" unicode="&#7811;" /><glyph d="M206 578 312 707H360L465 578L426 544L334 625L244 545ZM24 489H130L210 143L295 489H380L465 143L545 489H647L512 0H422L336 327L250 0H160Z" glyph-name="wcircumflex" horiz-adv-x="671" unicode="&#373;" /><glyph d="M273 556Q251 556 235 572Q219 588 219 610Q219 632 234.5 646.5Q250 661 273 661Q294 661 308.5 646.5Q323 632 323 610Q323 587 308.5 571.5Q294 556 273 556ZM400 556Q378 556 363 571.5Q348 587 348 610Q348 632 363 646.5Q378 661 400 661Q422 661 437 646.5Q452 632 452 610Q452 587 437 571.5Q422 556 400 556ZM24 489H130L210 143L295 489H380L465 143L545 489H647L512 0H422L336 327L250 0H160Z" glyph-name="wdieresis" horiz-adv-x="671" unicode="&#7813;" /><glyph d="M24 489H130L210 143L295 489H380L465 143L545 489H647L512 0H422L336 327L250 0H160ZM381 586 335 545 204 651 269 712Z" glyph-name="wgrave" horiz-adv-x="671" unicode="&#7809;" /><glyph d="M554 0H470L420 243H312L262 0H178L125 243H35V305H111L98 367H35V429H84L34 657H127L171 429H279L326 657H410L457 429H565L610 657H698L648 429H704V367H634L621 305H704V243H607ZM366 502 351 429H381ZM184 367 196 305H254L267 367ZM338 367 325 305H407L394 367ZM469 367 482 305H541L553 367ZM241 243H208L224 159ZM529 243H495L512 158Z" glyph-name="won" horiz-adv-x="738" unicode="&#8361;" /><glyph d="M172 243 22 489H132L228 326L325 489H431L278 253L435 0H325L222 172L122 0H17Z" glyph-name="x" horiz-adv-x="451" unicode="x" /><glyph d="M442 489 216 -187H123L186 -9L20 489H126L233 135L340 489Z" glyph-name="y" horiz-adv-x="461" unicode="y" /><glyph d="M442 489 216 -187H123L186 -9L20 489H126L233 135L340 489ZM298 712 362 651 231 545 185 586Z" glyph-name="yacute" horiz-adv-x="461" unicode="&#253;" /><glyph d="M442 489 216 -187H123L186 -9L20 489H126L233 135L340 489ZM101 578 207 707H255L360 578L321 544L229 625L139 545Z" glyph-name="ycircumflex" horiz-adv-x="461" unicode="&#375;" /><glyph d="M442 489 216 -187H123L186 -9L20 489H126L233 135L340 489ZM169 556Q147 556 131 572Q115 588 115 610Q115 632 130.5 646.5Q146 661 169 661Q190 661 204.5 646.5Q219 632 219 610Q219 587 204.5 571.5Q190 556 169 556ZM296 556Q274 556 259 571.5Q244 587 244 610Q244 632 259 646.5Q274 661 296 661Q318 661 333 646.5Q348 632 348 610Q348 587 333 571.5Q318 556 296 556Z" glyph-name="ydieresis" horiz-adv-x="461" unicode="&#255;" /><glyph d="M473 242V177H322V0H224V177H73V242H224V276L208 308H73V373H177L39 657H146L276 373L405 657H506L368 373H473V308H337L322 277V242Z" glyph-name="yen" horiz-adv-x="546" unicode="&#165;" /><glyph d="M606 564H112V657H606ZM309 356 277 179Q260 88 205.5 39Q151 -10 66 -10H45V83H70Q112 83 139 108Q166 133 174 178L205 356H42V449H676V356H496V130Q496 107 506.5 97.5Q517 88 543 88H563Q589 88 599.5 97.5Q610 107 610 130V179L706 165V108Q706 53 669 24Q632 -5 560 -5H543Q469 -5 431 23.5Q393 52 393 106V356Z" glyph-name="yuan" horiz-adv-x="748" unicode="&#20803;" /><glyph d="M268 407H44V489H391V430L159 82H396V0H36V59Z" glyph-name="z" horiz-adv-x="434" unicode="z" /><glyph d="M282 712 346 651 215 545 169 586ZM268 407H44V489H391V430L159 82H396V0H36V59Z" glyph-name="zacute" horiz-adv-x="434" unicode="&#378;" /><glyph d="M346 674 241 545H193L87 674L127 708L218 627L308 707ZM268 407H44V489H391V430L159 82H396V0H36V59Z" glyph-name="zcaron" horiz-adv-x="434" unicode="&#382;" /><glyph d="M268 407H44V489H391V430L159 82H396V0H36V59ZM216 551Q191 551 174 568.5Q157 586 157 611Q157 636 174 653.5Q191 671 216 671Q241 671 258.5 653.5Q276 636 276 611Q276 586 258.5 568.5Q241 551 216 551Z" glyph-name="zdotaccent" horiz-adv-x="434" unicode="&#380;" /><glyph d="M274 574Q224 574 195 543Q166 512 166 460V197Q166 145 195 114Q224 83 274 83Q324 83 353.5 114Q383 145 383 197V460Q383 512 353.5 543Q324 574 274 574ZM274 667Q370 667 428 610.5Q486 554 486 459V198Q486 103 428 46.5Q370 -10 274 -10Q178 -10 120 46.5Q62 103 62 198V459Q62 556 118.5 611.5Q175 667 274 667Z" glyph-name="zero" horiz-adv-x="548" unicode="0" /><glyph d="M151 270Q132 270 121.5 258Q111 246 111 226V102Q111 82 121.5 70Q132 58 151 58Q170 58 181 69.5Q192 81 192 102V226Q192 247 181 258.5Q170 270 151 270ZM151 333Q201 333 231.5 304Q262 275 262 227V101Q262 53 231.5 24Q201 -5 151 -5Q101 -5 70.5 24Q40 53 40 101V227Q40 277 69 305Q98 333 151 333Z" glyph-name="zero.denominator" horiz-adv-x="302" unicode="&#63061;" /><glyph d="M151 120Q132 120 121.5 108Q111 96 111 76V-48Q111 -68 121.5 -80Q132 -92 151 -92Q170 -92 181 -80.5Q192 -69 192 -48V76Q192 97 181 108.5Q170 120 151 120ZM151 183Q201 183 231.5 154Q262 125 262 77V-49Q262 -97 231.5 -126Q201 -155 151 -155Q101 -155 70.5 -126Q40 -97 40 -49V77Q40 127 69 155Q98 183 151 183Z" glyph-name="zero.inferior" horiz-adv-x="301" unicode="&#8320;" /><glyph d="M151 599Q132 599 121.5 587Q111 575 111 555V431Q111 411 121.5 399Q132 387 151 387Q170 387 181 398.5Q192 410 192 431V555Q192 576 181 587.5Q170 599 151 599ZM151 662Q201 662 231.5 633Q262 604 262 556V430Q262 382 231.5 353Q201 324 151 324Q101 324 70.5 353Q40 382 40 430V556Q40 606 69 634Q98 662 151 662Z" glyph-name="zero.numerator" horiz-adv-x="301" unicode="&#63073;" /><glyph d="M147 750Q128 750 117.5 738Q107 726 107 706V582Q107 562 117.5 550Q128 538 147 538Q166 538 177 549.5Q188 561 188 582V706Q188 727 177 738.5Q166 750 147 750ZM147 813Q197 813 227.5 784Q258 755 258 707V581Q258 533 227.5 504Q197 475 147 475Q97 475 66.5 504Q36 533 36 581V707Q36 757 65 785Q94 813 147 813Z" glyph-name="zero.superior" horiz-adv-x="295" unicode="&#8304;" /><glyph d="M270 574Q220 574 191 543Q162 512 162 460V197Q162 145 191 114Q220 83 270 83Q320 83 349.5 114Q379 145 379 197V460Q379 512 349.5 543Q320 574 270 574ZM270 667Q366 667 424 610.5Q482 554 482 459V198Q482 103 424 46.5Q366 -10 270 -10Q174 -10 116 46.5Q58 103 58 198V459Q58 556 114.5 611.5Q171 667 270 667Z" glyph-name="zero.tab" horiz-adv-x="541" unicode="&#65296;" /></font>
</defs>
</svg>
